G04 start of page 7 for group -4062 idx -4062 *
G04 Title: (unknown), soldermask *
G04 Creator: pcb 4.3.0 *
G04 CreationDate: Wed Mar 23 17:19:41 2022 UTC *
G04 For: steve *
G04 Format: Gerber/RS-274X *
G04 PCB-Dimensions (mil): 3200.00 1400.00 *
G04 PCB-Coordinate-Origin: lower left *
%MOIN*%
%FSLAX25Y25*%
%LNGBS*%
%ADD42C,0.1400*%
%ADD41C,0.1380*%
%ADD40C,0.1360*%
%ADD39C,0.1060*%
%ADD38C,0.0660*%
%ADD37C,0.0001*%
G54D37*G36*
X46700Y43300D02*Y36700D01*
X53300D01*
Y43300D01*
X46700D01*
G37*
G54D38*X60000Y40000D03*
X70000D03*
X80000D03*
X90000D03*
X100000D03*
X110000D03*
X120000D03*
X80000Y100000D03*
X90000D03*
X100000D03*
X110000D03*
G54D37*G36*
X46700Y103300D02*Y96700D01*
X53300D01*
Y103300D01*
X46700D01*
G37*
G54D38*X60000Y100000D03*
X70000D03*
X120000D03*
X130000D03*
X140000D03*
X150000D03*
X160000D03*
X130000Y40000D03*
X140000D03*
X150000D03*
X160000D03*
G54D39*X210100Y58200D03*
X220000Y67300D03*
X210100Y77900D03*
X220000Y20000D03*
X239600Y77900D03*
Y58200D03*
X259300Y67300D03*
Y20000D03*
X269200Y77900D03*
G54D37*G36*
X264400Y63000D02*Y53400D01*
X274000D01*
Y63000D01*
X264400D01*
G37*
G54D40*X180000Y35000D03*
G54D41*Y105000D03*
G54D42*X300000D03*
Y35000D03*
X60000Y20000D03*
G54D41*Y120000D03*
M02*
