G04 start of page 11 for group -3984 idx -3984 *
G04 Title: (unknown), fab *
G04 Creator: pcb 4.3.0 *
G04 CreationDate: Wed Mar 23 17:19:41 2022 UTC *
G04 For: steve *
G04 Format: Gerber/RS-274X *
G04 PCB-Dimensions (mil): 3200.00 1400.00 *
G04 PCB-Coordinate-Origin: lower left *
%MOIN*%
%FSLAX25Y25*%
%LNFAB*%
%ADD50C,0.0100*%
%ADD49C,0.0075*%
%ADD48C,0.0060*%
%ADD47C,0.0001*%
G54D47*G36*
X178800Y36766D02*X181766Y33800D01*
X181200Y33234D01*
X178234Y36200D01*
X178800Y36766D01*
G37*
G36*
X178234Y33800D02*X181200Y36766D01*
X181766Y36200D01*
X178800Y33234D01*
X178234Y33800D01*
G37*
G36*
X178800Y106766D02*X181766Y103800D01*
X181200Y103234D01*
X178234Y106200D01*
X178800Y106766D01*
G37*
G36*
X178234Y103800D02*X181200Y106766D01*
X181766Y106200D01*
X178800Y103234D01*
X178234Y103800D01*
G37*
G36*
X298800Y106766D02*X301766Y103800D01*
X301200Y103234D01*
X298234Y106200D01*
X298800Y106766D01*
G37*
G36*
X298234Y103800D02*X301200Y106766D01*
X301766Y106200D01*
X298800Y103234D01*
X298234Y103800D01*
G37*
G36*
X298800Y36766D02*X301766Y33800D01*
X301200Y33234D01*
X298234Y36200D01*
X298800Y36766D01*
G37*
G36*
X298234Y33800D02*X301200Y36766D01*
X301766Y36200D01*
X298800Y33234D01*
X298234Y33800D01*
G37*
G36*
X58800Y21766D02*X61766Y18800D01*
X61200Y18234D01*
X58234Y21200D01*
X58800Y21766D01*
G37*
G36*
X58234Y18800D02*X61200Y21766D01*
X61766Y21200D01*
X58800Y18234D01*
X58234Y18800D01*
G37*
G36*
X58800Y121766D02*X61766Y118800D01*
X61200Y118234D01*
X58234Y121200D01*
X58800Y121766D01*
G37*
G36*
X58234Y118800D02*X61200Y121766D01*
X61766Y121200D01*
X58800Y118234D01*
X58234Y118800D01*
G37*
G36*
X13800Y168016D02*X16766Y165050D01*
X16200Y164484D01*
X13234Y167450D01*
X13800Y168016D01*
G37*
G36*
X13234Y165050D02*X16200Y168016D01*
X16766Y167450D01*
X13800Y164484D01*
X13234Y165050D01*
G37*
G54D48*X135000Y168500D02*X136500Y165500D01*
X138000Y168500D01*
X136500Y165500D02*Y162500D01*
X139800Y165800D02*X142050D01*
X139800Y162500D02*X142800D01*
X139800Y168500D02*Y162500D01*
Y168500D02*X142800D01*
X147600D02*X148350Y167750D01*
X145350Y168500D02*X147600D01*
X144600Y167750D02*X145350Y168500D01*
X144600Y167750D02*Y166250D01*
X145350Y165500D01*
X147600D01*
X148350Y164750D01*
Y163250D01*
X147600Y162500D02*X148350Y163250D01*
X145350Y162500D02*X147600D01*
X144600Y163250D02*X145350Y162500D01*
X100250Y168500D02*X101000Y167750D01*
X98750Y168500D02*X100250D01*
X98000Y167750D02*X98750Y168500D01*
X98000Y167750D02*Y163250D01*
X98750Y162500D01*
X100250Y165800D02*X101000Y165050D01*
X98000Y165800D02*X100250D01*
X98750Y162500D02*X100250D01*
X101000Y163250D01*
Y165050D02*Y163250D01*
X45000D02*X45750Y162500D01*
X45000Y167750D02*Y163250D01*
Y167750D02*X45750Y168500D01*
X47250D01*
X48000Y167750D01*
Y163250D01*
X47250Y162500D02*X48000Y163250D01*
X45750Y162500D02*X47250D01*
X45000Y164000D02*X48000Y167000D01*
X49800Y162500D02*X50550D01*
X52350Y167300D02*X53550Y168500D01*
Y162500D01*
X52350D02*X54600D01*
X56400Y167750D02*X57150Y168500D01*
X58650D01*
X59400Y167750D01*
X58650Y162500D02*X59400Y163250D01*
X57150Y162500D02*X58650D01*
X56400Y163250D02*X57150Y162500D01*
Y165800D02*X58650D01*
X59400Y167750D02*Y166550D01*
Y165050D02*Y163250D01*
Y165050D02*X58650Y165800D01*
X59400Y166550D02*X58650Y165800D01*
X61200Y163250D02*X61950Y162500D01*
X61200Y167750D02*Y163250D01*
Y167750D02*X61950Y168500D01*
X63450D01*
X64200Y167750D01*
Y163250D01*
X63450Y162500D02*X64200Y163250D01*
X61950Y162500D02*X63450D01*
X61200Y164000D02*X64200Y167000D01*
X210100Y59800D02*Y56600D01*
X208500Y58200D02*X211700D01*
X220000Y68900D02*Y65700D01*
X218400Y67300D02*X221600D01*
X210100Y79500D02*Y76300D01*
X208500Y77900D02*X211700D01*
X239600Y79500D02*Y76300D01*
X238000Y77900D02*X241200D01*
X239600Y59800D02*Y56600D01*
X238000Y58200D02*X241200D01*
X259300Y68900D02*Y65700D01*
X257700Y67300D02*X260900D01*
X269200Y79500D02*Y76300D01*
X267600Y77900D02*X270800D01*
X269200Y59800D02*Y56600D01*
X267600Y58200D02*X270800D01*
X220000Y21600D02*Y18400D01*
X218400Y20000D02*X221600D01*
X259300Y21600D02*Y18400D01*
X257700Y20000D02*X260900D01*
X15000Y182850D02*Y179650D01*
X13400Y181250D02*X16600D01*
X135000Y183500D02*X136500Y180500D01*
X138000Y183500D01*
X136500Y180500D02*Y177500D01*
X139800Y180800D02*X142050D01*
X139800Y177500D02*X142800D01*
X139800Y183500D02*Y177500D01*
Y183500D02*X142800D01*
X147600D02*X148350Y182750D01*
X145350Y183500D02*X147600D01*
X144600Y182750D02*X145350Y183500D01*
X144600Y182750D02*Y181250D01*
X145350Y180500D01*
X147600D01*
X148350Y179750D01*
Y178250D01*
X147600Y177500D02*X148350Y178250D01*
X145350Y177500D02*X147600D01*
X144600Y178250D02*X145350Y177500D01*
X98000Y182300D02*X99200Y183500D01*
Y177500D01*
X98000D02*X100250D01*
X102050Y178250D02*X102800Y177500D01*
X102050Y182750D02*Y178250D01*
Y182750D02*X102800Y183500D01*
X104300D01*
X105050Y182750D01*
Y178250D01*
X104300Y177500D02*X105050Y178250D01*
X102800Y177500D02*X104300D01*
X102050Y179000D02*X105050Y182000D01*
X45000Y178250D02*X45750Y177500D01*
X45000Y182750D02*Y178250D01*
Y182750D02*X45750Y183500D01*
X47250D01*
X48000Y182750D01*
Y178250D01*
X47250Y177500D02*X48000Y178250D01*
X45750Y177500D02*X47250D01*
X45000Y179000D02*X48000Y182000D01*
X49800Y177500D02*X50550D01*
X52350Y178250D02*X53100Y177500D01*
X52350Y182750D02*Y178250D01*
Y182750D02*X53100Y183500D01*
X54600D01*
X55350Y182750D01*
Y178250D01*
X54600Y177500D02*X55350Y178250D01*
X53100Y177500D02*X54600D01*
X52350Y179000D02*X55350Y182000D01*
X59400Y183500D02*X60150Y182750D01*
X57900Y183500D02*X59400D01*
X57150Y182750D02*X57900Y183500D01*
X57150Y182750D02*Y178250D01*
X57900Y177500D01*
X59400Y180800D02*X60150Y180050D01*
X57150Y180800D02*X59400D01*
X57900Y177500D02*X59400D01*
X60150Y178250D01*
Y180050D02*Y178250D01*
X61950D02*X62700Y177500D01*
X61950Y182750D02*Y178250D01*
Y182750D02*X62700Y183500D01*
X64200D01*
X64950Y182750D01*
Y178250D01*
X64200Y177500D02*X64950Y178250D01*
X62700Y177500D02*X64200D01*
X61950Y179000D02*X64950Y182000D01*
X50000Y100000D02*Y98400D01*
Y100000D02*X51387Y100800D01*
X50000Y100000D02*X48613Y100800D01*
X60000Y100000D02*Y98400D01*
Y100000D02*X61387Y100800D01*
X60000Y100000D02*X58613Y100800D01*
X70000Y100000D02*Y98400D01*
Y100000D02*X71387Y100800D01*
X70000Y100000D02*X68613Y100800D01*
X80000Y100000D02*Y98400D01*
Y100000D02*X81387Y100800D01*
X80000Y100000D02*X78613Y100800D01*
X90000Y100000D02*Y98400D01*
Y100000D02*X91387Y100800D01*
X90000Y100000D02*X88613Y100800D01*
X100000Y100000D02*Y98400D01*
Y100000D02*X101387Y100800D01*
X100000Y100000D02*X98613Y100800D01*
X110000Y100000D02*Y98400D01*
Y100000D02*X111387Y100800D01*
X110000Y100000D02*X108613Y100800D01*
X120000Y100000D02*Y98400D01*
Y100000D02*X121387Y100800D01*
X120000Y100000D02*X118613Y100800D01*
X130000Y100000D02*Y98400D01*
Y100000D02*X131387Y100800D01*
X130000Y100000D02*X128613Y100800D01*
X140000Y100000D02*Y98400D01*
Y100000D02*X141387Y100800D01*
X140000Y100000D02*X138613Y100800D01*
X150000Y100000D02*Y98400D01*
Y100000D02*X151387Y100800D01*
X150000Y100000D02*X148613Y100800D01*
X160000Y100000D02*Y98400D01*
Y100000D02*X161387Y100800D01*
X160000Y100000D02*X158613Y100800D01*
X50000Y40000D02*Y38400D01*
Y40000D02*X51387Y40800D01*
X50000Y40000D02*X48613Y40800D01*
X60000Y40000D02*Y38400D01*
Y40000D02*X61387Y40800D01*
X60000Y40000D02*X58613Y40800D01*
X70000Y40000D02*Y38400D01*
Y40000D02*X71387Y40800D01*
X70000Y40000D02*X68613Y40800D01*
X80000Y40000D02*Y38400D01*
Y40000D02*X81387Y40800D01*
X80000Y40000D02*X78613Y40800D01*
X90000Y40000D02*Y38400D01*
Y40000D02*X91387Y40800D01*
X90000Y40000D02*X88613Y40800D01*
X100000Y40000D02*Y38400D01*
Y40000D02*X101387Y40800D01*
X100000Y40000D02*X98613Y40800D01*
X110000Y40000D02*Y38400D01*
Y40000D02*X111387Y40800D01*
X110000Y40000D02*X108613Y40800D01*
X120000Y40000D02*Y38400D01*
Y40000D02*X121387Y40800D01*
X120000Y40000D02*X118613Y40800D01*
X130000Y40000D02*Y38400D01*
Y40000D02*X131387Y40800D01*
X130000Y40000D02*X128613Y40800D01*
X140000Y40000D02*Y38400D01*
Y40000D02*X141387Y40800D01*
X140000Y40000D02*X138613Y40800D01*
X150000Y40000D02*Y38400D01*
Y40000D02*X151387Y40800D01*
X150000Y40000D02*X148613Y40800D01*
X160000Y40000D02*Y38400D01*
Y40000D02*X161387Y40800D01*
X160000Y40000D02*X158613Y40800D01*
X15000Y196250D02*Y194650D01*
Y196250D02*X16387Y197050D01*
X15000Y196250D02*X13613Y197050D01*
X135000Y198500D02*X136500Y195500D01*
X138000Y198500D01*
X136500Y195500D02*Y192500D01*
X139800Y195800D02*X142050D01*
X139800Y192500D02*X142800D01*
X139800Y198500D02*Y192500D01*
Y198500D02*X142800D01*
X147600D02*X148350Y197750D01*
X145350Y198500D02*X147600D01*
X144600Y197750D02*X145350Y198500D01*
X144600Y197750D02*Y196250D01*
X145350Y195500D01*
X147600D01*
X148350Y194750D01*
Y193250D01*
X147600Y192500D02*X148350Y193250D01*
X145350Y192500D02*X147600D01*
X144600Y193250D02*X145350Y192500D01*
X98000Y197750D02*X98750Y198500D01*
X101000D01*
X101750Y197750D01*
Y196250D01*
X98000Y192500D02*X101750Y196250D01*
X98000Y192500D02*X101750D01*
X103550Y194750D02*X106550Y198500D01*
X103550Y194750D02*X107300D01*
X106550Y198500D02*Y192500D01*
X45000Y193250D02*X45750Y192500D01*
X45000Y197750D02*Y193250D01*
Y197750D02*X45750Y198500D01*
X47250D01*
X48000Y197750D01*
Y193250D01*
X47250Y192500D02*X48000Y193250D01*
X45750Y192500D02*X47250D01*
X45000Y194000D02*X48000Y197000D01*
X49800Y192500D02*X50550D01*
X52350Y193250D02*X53100Y192500D01*
X52350Y197750D02*Y193250D01*
Y197750D02*X53100Y198500D01*
X54600D01*
X55350Y197750D01*
Y193250D01*
X54600Y192500D02*X55350Y193250D01*
X53100Y192500D02*X54600D01*
X52350Y194000D02*X55350Y197000D01*
X57150Y197750D02*X57900Y198500D01*
X59400D01*
X60150Y197750D01*
X59400Y192500D02*X60150Y193250D01*
X57900Y192500D02*X59400D01*
X57150Y193250D02*X57900Y192500D01*
Y195800D02*X59400D01*
X60150Y197750D02*Y196550D01*
Y195050D02*Y193250D01*
Y195050D02*X59400Y195800D01*
X60150Y196550D02*X59400Y195800D01*
X61950Y193250D02*X62700Y192500D01*
X61950Y194450D02*Y193250D01*
Y194450D02*X63000Y195500D01*
X63900D01*
X64950Y194450D01*
Y193250D01*
X64200Y192500D02*X64950Y193250D01*
X62700Y192500D02*X64200D01*
X61950Y196550D02*X63000Y195500D01*
X61950Y197750D02*Y196550D01*
Y197750D02*X62700Y198500D01*
X64200D01*
X64950Y197750D01*
Y196550D01*
X63900Y195500D02*X64950Y196550D01*
X3000Y213500D02*X3750Y212750D01*
X750Y213500D02*X3000D01*
X0Y212750D02*X750Y213500D01*
X0Y212750D02*Y211250D01*
X750Y210500D01*
X3000D01*
X3750Y209750D01*
Y208250D01*
X3000Y207500D02*X3750Y208250D01*
X750Y207500D02*X3000D01*
X0Y208250D02*X750Y207500D01*
X5550Y210500D02*Y208250D01*
X6300Y207500D01*
X8550Y210500D02*Y206000D01*
X7800Y205250D02*X8550Y206000D01*
X6300Y205250D02*X7800D01*
X5550Y206000D02*X6300Y205250D01*
Y207500D02*X7800D01*
X8550Y208250D01*
X11100Y209750D02*Y207500D01*
Y209750D02*X11850Y210500D01*
X12600D01*
X13350Y209750D01*
Y207500D01*
Y209750D02*X14100Y210500D01*
X14850D01*
X15600Y209750D01*
Y207500D01*
X10350Y210500D02*X11100Y209750D01*
X17400Y213500D02*Y207500D01*
Y208250D02*X18150Y207500D01*
X19650D01*
X20400Y208250D01*
Y209750D02*Y208250D01*
X19650Y210500D02*X20400Y209750D01*
X18150Y210500D02*X19650D01*
X17400Y209750D02*X18150Y210500D01*
X22200Y209750D02*Y208250D01*
Y209750D02*X22950Y210500D01*
X24450D01*
X25200Y209750D01*
Y208250D01*
X24450Y207500D02*X25200Y208250D01*
X22950Y207500D02*X24450D01*
X22200Y208250D02*X22950Y207500D01*
X27000Y213500D02*Y208250D01*
X27750Y207500D01*
X0Y204250D02*X29250D01*
X41750Y213500D02*Y207500D01*
X43700Y213500D02*X44750Y212450D01*
Y208550D01*
X43700Y207500D02*X44750Y208550D01*
X41000Y207500D02*X43700D01*
X41000Y213500D02*X43700D01*
G54D49*X46550Y212000D02*Y211850D01*
G54D48*Y209750D02*Y207500D01*
X50300Y210500D02*X51050Y209750D01*
X48800Y210500D02*X50300D01*
X48050Y209750D02*X48800Y210500D01*
X48050Y209750D02*Y208250D01*
X48800Y207500D01*
X51050Y210500D02*Y208250D01*
X51800Y207500D01*
X48800D02*X50300D01*
X51050Y208250D01*
X54350Y209750D02*Y207500D01*
Y209750D02*X55100Y210500D01*
X55850D01*
X56600Y209750D01*
Y207500D01*
Y209750D02*X57350Y210500D01*
X58100D01*
X58850Y209750D01*
Y207500D01*
X53600Y210500D02*X54350Y209750D01*
X60650Y207500D02*X61400D01*
X65900Y208250D02*X66650Y207500D01*
X65900Y212750D02*X66650Y213500D01*
X65900Y212750D02*Y208250D01*
X68450Y213500D02*X69950D01*
X69200D02*Y207500D01*
X68450D02*X69950D01*
X72500Y209750D02*Y207500D01*
Y209750D02*X73250Y210500D01*
X74000D01*
X74750Y209750D01*
Y207500D01*
X71750Y210500D02*X72500Y209750D01*
X77300Y210500D02*X79550D01*
X76550Y209750D02*X77300Y210500D01*
X76550Y209750D02*Y208250D01*
X77300Y207500D01*
X79550D01*
X81350Y213500D02*Y207500D01*
Y209750D02*X82100Y210500D01*
X83600D01*
X84350Y209750D01*
Y207500D01*
X86150Y213500D02*X86900Y212750D01*
Y208250D01*
X86150Y207500D02*X86900Y208250D01*
X41000Y204250D02*X88700D01*
X96050Y207500D02*X98000D01*
X95000Y208550D02*X96050Y207500D01*
X95000Y212450D02*Y208550D01*
Y212450D02*X96050Y213500D01*
X98000D01*
X99800Y209750D02*Y208250D01*
Y209750D02*X100550Y210500D01*
X102050D01*
X102800Y209750D01*
Y208250D01*
X102050Y207500D02*X102800Y208250D01*
X100550Y207500D02*X102050D01*
X99800Y208250D02*X100550Y207500D01*
X104600Y210500D02*Y208250D01*
X105350Y207500D01*
X106850D01*
X107600Y208250D01*
Y210500D02*Y208250D01*
X110150Y209750D02*Y207500D01*
Y209750D02*X110900Y210500D01*
X111650D01*
X112400Y209750D01*
Y207500D01*
X109400Y210500D02*X110150Y209750D01*
X114950Y213500D02*Y208250D01*
X115700Y207500D01*
X114200Y211250D02*X115700D01*
X95000Y204250D02*X117200D01*
X130750Y213500D02*Y207500D01*
X130000Y213500D02*X133000D01*
X133750Y212750D01*
Y211250D01*
X133000Y210500D02*X133750Y211250D01*
X130750Y210500D02*X133000D01*
X135550Y213500D02*Y208250D01*
X136300Y207500D01*
X140050Y210500D02*X140800Y209750D01*
X138550Y210500D02*X140050D01*
X137800Y209750D02*X138550Y210500D01*
X137800Y209750D02*Y208250D01*
X138550Y207500D01*
X140800Y210500D02*Y208250D01*
X141550Y207500D01*
X138550D02*X140050D01*
X140800Y208250D01*
X144100Y213500D02*Y208250D01*
X144850Y207500D01*
X143350Y211250D02*X144850D01*
X147100Y207500D02*X149350D01*
X146350Y208250D02*X147100Y207500D01*
X146350Y209750D02*Y208250D01*
Y209750D02*X147100Y210500D01*
X148600D01*
X149350Y209750D01*
X146350Y209000D02*X149350D01*
Y209750D02*Y209000D01*
X154150Y213500D02*Y207500D01*
X153400D02*X154150Y208250D01*
X151900Y207500D02*X153400D01*
X151150Y208250D02*X151900Y207500D01*
X151150Y209750D02*Y208250D01*
Y209750D02*X151900Y210500D01*
X153400D01*
X154150Y209750D01*
X157450Y210500D02*Y209750D01*
Y208250D02*Y207500D01*
X155950Y212750D02*Y212000D01*
Y212750D02*X156700Y213500D01*
X158200D01*
X158950Y212750D01*
Y212000D01*
X157450Y210500D02*X158950Y212000D01*
X130000Y204250D02*X160750D01*
X0Y228500D02*X3000D01*
X1500D02*Y222500D01*
X4800Y228500D02*Y222500D01*
Y224750D02*X5550Y225500D01*
X7050D01*
X7800Y224750D01*
Y222500D01*
X10350D02*X12600D01*
X9600Y223250D02*X10350Y222500D01*
X9600Y224750D02*Y223250D01*
Y224750D02*X10350Y225500D01*
X11850D01*
X12600Y224750D01*
X9600Y224000D02*X12600D01*
Y224750D02*Y224000D01*
X15150Y224750D02*Y222500D01*
Y224750D02*X15900Y225500D01*
X17400D01*
X14400D02*X15150Y224750D01*
X19950Y222500D02*X22200D01*
X19200Y223250D02*X19950Y222500D01*
X19200Y224750D02*Y223250D01*
Y224750D02*X19950Y225500D01*
X21450D01*
X22200Y224750D01*
X19200Y224000D02*X22200D01*
Y224750D02*Y224000D01*
X28950Y225500D02*X29700Y224750D01*
X27450Y225500D02*X28950D01*
X26700Y224750D02*X27450Y225500D01*
X26700Y224750D02*Y223250D01*
X27450Y222500D01*
X29700Y225500D02*Y223250D01*
X30450Y222500D01*
X27450D02*X28950D01*
X29700Y223250D01*
X33000Y224750D02*Y222500D01*
Y224750D02*X33750Y225500D01*
X35250D01*
X32250D02*X33000Y224750D01*
X37800Y222500D02*X40050D01*
X37050Y223250D02*X37800Y222500D01*
X37050Y224750D02*Y223250D01*
Y224750D02*X37800Y225500D01*
X39300D01*
X40050Y224750D01*
X37050Y224000D02*X40050D01*
Y224750D02*Y224000D01*
X44550Y227750D02*X45300Y228500D01*
X46800D01*
X47550Y227750D01*
X46800Y222500D02*X47550Y223250D01*
X45300Y222500D02*X46800D01*
X44550Y223250D02*X45300Y222500D01*
Y225800D02*X46800D01*
X47550Y227750D02*Y226550D01*
Y225050D02*Y223250D01*
Y225050D02*X46800Y225800D01*
X47550Y226550D02*X46800Y225800D01*
X55050Y228500D02*Y222500D01*
X54300D02*X55050Y223250D01*
X52800Y222500D02*X54300D01*
X52050Y223250D02*X52800Y222500D01*
X52050Y224750D02*Y223250D01*
Y224750D02*X52800Y225500D01*
X54300D01*
X55050Y224750D01*
G54D49*X56850Y227000D02*Y226850D01*
G54D48*Y224750D02*Y222500D01*
X59100Y227750D02*Y222500D01*
Y227750D02*X59850Y228500D01*
X60600D01*
X58350Y225500D02*X59850D01*
X62850Y227750D02*Y222500D01*
Y227750D02*X63600Y228500D01*
X64350D01*
X62100Y225500D02*X63600D01*
X66600Y222500D02*X68850D01*
X65850Y223250D02*X66600Y222500D01*
X65850Y224750D02*Y223250D01*
Y224750D02*X66600Y225500D01*
X68100D01*
X68850Y224750D01*
X65850Y224000D02*X68850D01*
Y224750D02*Y224000D01*
X71400Y224750D02*Y222500D01*
Y224750D02*X72150Y225500D01*
X73650D01*
X70650D02*X71400Y224750D01*
X76200Y222500D02*X78450D01*
X75450Y223250D02*X76200Y222500D01*
X75450Y224750D02*Y223250D01*
Y224750D02*X76200Y225500D01*
X77700D01*
X78450Y224750D01*
X75450Y224000D02*X78450D01*
Y224750D02*Y224000D01*
X81000Y224750D02*Y222500D01*
Y224750D02*X81750Y225500D01*
X82500D01*
X83250Y224750D01*
Y222500D01*
X80250Y225500D02*X81000Y224750D01*
X85800Y228500D02*Y223250D01*
X86550Y222500D01*
X85050Y226250D02*X86550D01*
X93750Y228500D02*Y222500D01*
X93000D02*X93750Y223250D01*
X91500Y222500D02*X93000D01*
X90750Y223250D02*X91500Y222500D01*
X90750Y224750D02*Y223250D01*
Y224750D02*X91500Y225500D01*
X93000D01*
X93750Y224750D01*
X96300D02*Y222500D01*
Y224750D02*X97050Y225500D01*
X98550D01*
X95550D02*X96300Y224750D01*
G54D49*X100350Y227000D02*Y226850D01*
G54D48*Y224750D02*Y222500D01*
X101850Y228500D02*Y223250D01*
X102600Y222500D01*
X104100Y228500D02*Y223250D01*
X104850Y222500D01*
X109800D02*X112050D01*
X112800Y223250D01*
X112050Y224000D02*X112800Y223250D01*
X109800Y224000D02*X112050D01*
X109050Y224750D02*X109800Y224000D01*
X109050Y224750D02*X109800Y225500D01*
X112050D01*
X112800Y224750D01*
X109050Y223250D02*X109800Y222500D01*
G54D49*X114600Y227000D02*Y226850D01*
G54D48*Y224750D02*Y222500D01*
X116100Y225500D02*X119100D01*
X116100Y222500D02*X119100Y225500D01*
X116100Y222500D02*X119100D01*
X121650D02*X123900D01*
X120900Y223250D02*X121650Y222500D01*
X120900Y224750D02*Y223250D01*
Y224750D02*X121650Y225500D01*
X123150D01*
X123900Y224750D01*
X120900Y224000D02*X123900D01*
Y224750D02*Y224000D01*
X126450Y222500D02*X128700D01*
X129450Y223250D01*
X128700Y224000D02*X129450Y223250D01*
X126450Y224000D02*X128700D01*
X125700Y224750D02*X126450Y224000D01*
X125700Y224750D02*X126450Y225500D01*
X128700D01*
X129450Y224750D01*
X125700Y223250D02*X126450Y222500D01*
X133950Y225500D02*Y223250D01*
X134700Y222500D01*
X136200D01*
X136950Y223250D01*
Y225500D02*Y223250D01*
X139500Y222500D02*X141750D01*
X142500Y223250D01*
X141750Y224000D02*X142500Y223250D01*
X139500Y224000D02*X141750D01*
X138750Y224750D02*X139500Y224000D01*
X138750Y224750D02*X139500Y225500D01*
X141750D01*
X142500Y224750D01*
X138750Y223250D02*X139500Y222500D01*
X145050D02*X147300D01*
X144300Y223250D02*X145050Y222500D01*
X144300Y224750D02*Y223250D01*
Y224750D02*X145050Y225500D01*
X146550D01*
X147300Y224750D01*
X144300Y224000D02*X147300D01*
Y224750D02*Y224000D01*
X152100Y228500D02*Y222500D01*
X151350D02*X152100Y223250D01*
X149850Y222500D02*X151350D01*
X149100Y223250D02*X149850Y222500D01*
X149100Y224750D02*Y223250D01*
Y224750D02*X149850Y225500D01*
X151350D01*
X152100Y224750D01*
G54D49*X156600Y227000D02*Y226850D01*
G54D48*Y224750D02*Y222500D01*
X158850Y224750D02*Y222500D01*
Y224750D02*X159600Y225500D01*
X160350D01*
X161100Y224750D01*
Y222500D01*
X158100Y225500D02*X158850Y224750D01*
X166350Y228500D02*Y223250D01*
X167100Y222500D01*
X165600Y226250D02*X167100D01*
X168600Y228500D02*Y222500D01*
Y224750D02*X169350Y225500D01*
X170850D01*
X171600Y224750D01*
Y222500D01*
G54D49*X173400Y227000D02*Y226850D01*
G54D48*Y224750D02*Y222500D01*
X175650D02*X177900D01*
X178650Y223250D01*
X177900Y224000D02*X178650Y223250D01*
X175650Y224000D02*X177900D01*
X174900Y224750D02*X175650Y224000D01*
X174900Y224750D02*X175650Y225500D01*
X177900D01*
X178650Y224750D01*
X174900Y223250D02*X175650Y222500D01*
X183150Y228500D02*Y223250D01*
X183900Y222500D01*
X187650Y225500D02*X188400Y224750D01*
X186150Y225500D02*X187650D01*
X185400Y224750D02*X186150Y225500D01*
X185400Y224750D02*Y223250D01*
X186150Y222500D01*
X188400Y225500D02*Y223250D01*
X189150Y222500D01*
X186150D02*X187650D01*
X188400Y223250D01*
X190950Y225500D02*Y223250D01*
X191700Y222500D01*
X193950Y225500D02*Y221000D01*
X193200Y220250D02*X193950Y221000D01*
X191700Y220250D02*X193200D01*
X190950Y221000D02*X191700Y220250D01*
Y222500D02*X193200D01*
X193950Y223250D01*
X195750Y224750D02*Y223250D01*
Y224750D02*X196500Y225500D01*
X198000D01*
X198750Y224750D01*
Y223250D01*
X198000Y222500D02*X198750Y223250D01*
X196500Y222500D02*X198000D01*
X195750Y223250D02*X196500Y222500D01*
X200550Y225500D02*Y223250D01*
X201300Y222500D01*
X202800D01*
X203550Y223250D01*
Y225500D02*Y223250D01*
X206100Y228500D02*Y223250D01*
X206850Y222500D01*
X205350Y226250D02*X206850D01*
X208350Y221000D02*X209850Y222500D01*
X214350Y224750D02*X217350Y228500D01*
X214350Y224750D02*X218100D01*
X217350Y228500D02*Y222500D01*
X219900Y223250D02*X220650Y222500D01*
X219900Y227750D02*Y223250D01*
Y227750D02*X220650Y228500D01*
X222150D01*
X222900Y227750D01*
Y223250D01*
X222150Y222500D02*X222900Y223250D01*
X220650Y222500D02*X222150D01*
X219900Y224000D02*X222900Y227000D01*
X227400Y228500D02*Y222500D01*
Y224750D02*X228150Y225500D01*
X229650D01*
X230400Y224750D01*
Y222500D01*
X232200Y224750D02*Y223250D01*
Y224750D02*X232950Y225500D01*
X234450D01*
X235200Y224750D01*
Y223250D01*
X234450Y222500D02*X235200Y223250D01*
X232950Y222500D02*X234450D01*
X232200Y223250D02*X232950Y222500D01*
X237000Y228500D02*Y223250D01*
X237750Y222500D01*
X240000D02*X242250D01*
X239250Y223250D02*X240000Y222500D01*
X239250Y224750D02*Y223250D01*
Y224750D02*X240000Y225500D01*
X241500D01*
X242250Y224750D01*
X239250Y224000D02*X242250D01*
Y224750D02*Y224000D01*
X244800Y222500D02*X247050D01*
X247800Y223250D01*
X247050Y224000D02*X247800Y223250D01*
X244800Y224000D02*X247050D01*
X244050Y224750D02*X244800Y224000D01*
X244050Y224750D02*X244800Y225500D01*
X247050D01*
X247800Y224750D01*
X244050Y223250D02*X244800Y222500D01*
X253050Y228500D02*Y223250D01*
X253800Y222500D01*
X252300Y226250D02*X253800D01*
X255300Y224750D02*Y223250D01*
Y224750D02*X256050Y225500D01*
X257550D01*
X258300Y224750D01*
Y223250D01*
X257550Y222500D02*X258300Y223250D01*
X256050Y222500D02*X257550D01*
X255300Y223250D02*X256050Y222500D01*
X260850Y228500D02*Y223250D01*
X261600Y222500D01*
X260100Y226250D02*X261600D01*
X265350Y225500D02*X266100Y224750D01*
X263850Y225500D02*X265350D01*
X263100Y224750D02*X263850Y225500D01*
X263100Y224750D02*Y223250D01*
X263850Y222500D01*
X266100Y225500D02*Y223250D01*
X266850Y222500D01*
X263850D02*X265350D01*
X266100Y223250D01*
X268650Y228500D02*Y223250D01*
X269400Y222500D01*
G54D50*X320000Y110000D02*Y20000D01*
X310000Y10000D01*
X40000Y22500D02*Y110000D01*
Y100000D01*
Y20000D02*Y27500D01*
Y105000D02*Y120000D01*
X50000Y130000D01*
X72500D01*
X40000Y25000D02*Y20000D01*
X50000Y10000D01*
X72500D01*
X67500D02*X82500D01*
X310000D01*
X312500Y12500D01*
X70000Y130000D02*X82500D01*
X310000D01*
X320000Y120000D01*
Y105000D01*
G54D48*X73675Y-9500D02*X76675D01*
X77425Y-8750D01*
Y-6950D02*Y-8750D01*
X76675Y-6200D02*X77425Y-6950D01*
X74425Y-6200D02*X76675D01*
X74425Y-3500D02*Y-9500D01*
X73675Y-3500D02*X76675D01*
X77425Y-4250D01*
Y-5450D01*
X76675Y-6200D02*X77425Y-5450D01*
X79225Y-7250D02*Y-8750D01*
Y-7250D02*X79975Y-6500D01*
X81475D01*
X82225Y-7250D01*
Y-8750D01*
X81475Y-9500D02*X82225Y-8750D01*
X79975Y-9500D02*X81475D01*
X79225Y-8750D02*X79975Y-9500D01*
X86275Y-6500D02*X87025Y-7250D01*
X84775Y-6500D02*X86275D01*
X84025Y-7250D02*X84775Y-6500D01*
X84025Y-7250D02*Y-8750D01*
X84775Y-9500D01*
X87025Y-6500D02*Y-8750D01*
X87775Y-9500D01*
X84775D02*X86275D01*
X87025Y-8750D01*
X90325Y-7250D02*Y-9500D01*
Y-7250D02*X91075Y-6500D01*
X92575D01*
X89575D02*X90325Y-7250D01*
X97375Y-3500D02*Y-9500D01*
X96625D02*X97375Y-8750D01*
X95125Y-9500D02*X96625D01*
X94375Y-8750D02*X95125Y-9500D01*
X94375Y-7250D02*Y-8750D01*
Y-7250D02*X95125Y-6500D01*
X96625D01*
X97375Y-7250D01*
X101875D02*Y-8750D01*
Y-7250D02*X102625Y-6500D01*
X104125D01*
X104875Y-7250D01*
Y-8750D01*
X104125Y-9500D02*X104875Y-8750D01*
X102625Y-9500D02*X104125D01*
X101875Y-8750D02*X102625Y-9500D01*
X106675Y-6500D02*Y-8750D01*
X107425Y-9500D01*
X108925D01*
X109675Y-8750D01*
Y-6500D02*Y-8750D01*
X112225Y-3500D02*Y-8750D01*
X112975Y-9500D01*
X111475Y-5750D02*X112975D01*
X114475Y-3500D02*Y-8750D01*
X115225Y-9500D01*
G54D49*X116725Y-5000D02*Y-5150D01*
G54D48*Y-7250D02*Y-9500D01*
X118975Y-7250D02*Y-9500D01*
Y-7250D02*X119725Y-6500D01*
X120475D01*
X121225Y-7250D01*
Y-9500D01*
X118225Y-6500D02*X118975Y-7250D01*
X123775Y-9500D02*X126025D01*
X123025Y-8750D02*X123775Y-9500D01*
X123025Y-7250D02*Y-8750D01*
Y-7250D02*X123775Y-6500D01*
X125275D01*
X126025Y-7250D01*
X123025Y-8000D02*X126025D01*
Y-7250D02*Y-8000D01*
G54D49*X130525Y-5000D02*Y-5150D01*
G54D48*Y-7250D02*Y-9500D01*
X132775D02*X135025D01*
X135775Y-8750D01*
X135025Y-8000D02*X135775Y-8750D01*
X132775Y-8000D02*X135025D01*
X132025Y-7250D02*X132775Y-8000D01*
X132025Y-7250D02*X132775Y-6500D01*
X135025D01*
X135775Y-7250D01*
X132025Y-8750D02*X132775Y-9500D01*
X141025Y-3500D02*Y-8750D01*
X141775Y-9500D01*
X140275Y-5750D02*X141775D01*
X143275Y-3500D02*Y-9500D01*
Y-7250D02*X144025Y-6500D01*
X145525D01*
X146275Y-7250D01*
Y-9500D01*
X148825D02*X151075D01*
X148075Y-8750D02*X148825Y-9500D01*
X148075Y-7250D02*Y-8750D01*
Y-7250D02*X148825Y-6500D01*
X150325D01*
X151075Y-7250D01*
X148075Y-8000D02*X151075D01*
Y-7250D02*Y-8000D01*
X156325Y-6500D02*X158575D01*
X155575Y-7250D02*X156325Y-6500D01*
X155575Y-7250D02*Y-8750D01*
X156325Y-9500D01*
X158575D01*
X161125D02*X163375D01*
X160375Y-8750D02*X161125Y-9500D01*
X160375Y-7250D02*Y-8750D01*
Y-7250D02*X161125Y-6500D01*
X162625D01*
X163375Y-7250D01*
X160375Y-8000D02*X163375D01*
Y-7250D02*Y-8000D01*
X165925Y-7250D02*Y-9500D01*
Y-7250D02*X166675Y-6500D01*
X167425D01*
X168175Y-7250D01*
Y-9500D01*
X165175Y-6500D02*X165925Y-7250D01*
X170725Y-3500D02*Y-8750D01*
X171475Y-9500D01*
X169975Y-5750D02*X171475D01*
X173725Y-9500D02*X175975D01*
X172975Y-8750D02*X173725Y-9500D01*
X172975Y-7250D02*Y-8750D01*
Y-7250D02*X173725Y-6500D01*
X175225D01*
X175975Y-7250D01*
X172975Y-8000D02*X175975D01*
Y-7250D02*Y-8000D01*
X178525Y-7250D02*Y-9500D01*
Y-7250D02*X179275Y-6500D01*
X180775D01*
X177775D02*X178525Y-7250D01*
X182575Y-3500D02*Y-8750D01*
X183325Y-9500D01*
G54D49*X184825Y-5000D02*Y-5150D01*
G54D48*Y-7250D02*Y-9500D01*
X187075Y-7250D02*Y-9500D01*
Y-7250D02*X187825Y-6500D01*
X188575D01*
X189325Y-7250D01*
Y-9500D01*
X186325Y-6500D02*X187075Y-7250D01*
X191875Y-9500D02*X194125D01*
X191125Y-8750D02*X191875Y-9500D01*
X191125Y-7250D02*Y-8750D01*
Y-7250D02*X191875Y-6500D01*
X193375D01*
X194125Y-7250D01*
X191125Y-8000D02*X194125D01*
Y-7250D02*Y-8000D01*
X198625Y-7250D02*Y-8750D01*
Y-7250D02*X199375Y-6500D01*
X200875D01*
X201625Y-7250D01*
Y-8750D01*
X200875Y-9500D02*X201625Y-8750D01*
X199375Y-9500D02*X200875D01*
X198625Y-8750D02*X199375Y-9500D01*
X204175Y-4250D02*Y-9500D01*
Y-4250D02*X204925Y-3500D01*
X205675D01*
X203425Y-6500D02*X204925D01*
X210625Y-3500D02*Y-8750D01*
X211375Y-9500D01*
X209875Y-5750D02*X211375D01*
X212875Y-3500D02*Y-9500D01*
Y-7250D02*X213625Y-6500D01*
X215125D01*
X215875Y-7250D01*
Y-9500D01*
G54D49*X217675Y-5000D02*Y-5150D01*
G54D48*Y-7250D02*Y-9500D01*
X219925D02*X222175D01*
X222925Y-8750D01*
X222175Y-8000D02*X222925Y-8750D01*
X219925Y-8000D02*X222175D01*
X219175Y-7250D02*X219925Y-8000D01*
X219175Y-7250D02*X219925Y-6500D01*
X222175D01*
X222925Y-7250D01*
X219175Y-8750D02*X219925Y-9500D01*
X228175Y-7250D02*Y-11750D01*
X227425Y-6500D02*X228175Y-7250D01*
X228925Y-6500D01*
X230425D01*
X231175Y-7250D01*
Y-8750D01*
X230425Y-9500D02*X231175Y-8750D01*
X228925Y-9500D02*X230425D01*
X228175Y-8750D02*X228925Y-9500D01*
X235225Y-6500D02*X235975Y-7250D01*
X233725Y-6500D02*X235225D01*
X232975Y-7250D02*X233725Y-6500D01*
X232975Y-7250D02*Y-8750D01*
X233725Y-9500D01*
X235975Y-6500D02*Y-8750D01*
X236725Y-9500D01*
X233725D02*X235225D01*
X235975Y-8750D01*
X239275Y-3500D02*Y-8750D01*
X240025Y-9500D01*
X238525Y-5750D02*X240025D01*
X241525Y-3500D02*Y-9500D01*
Y-7250D02*X242275Y-6500D01*
X243775D01*
X244525Y-7250D01*
Y-9500D01*
X200750Y168500D02*Y162500D01*
X202700Y168500D02*X203750Y167450D01*
Y163550D01*
X202700Y162500D02*X203750Y163550D01*
X200000Y162500D02*X202700D01*
X200000Y168500D02*X202700D01*
X207800Y165500D02*X208550Y164750D01*
X206300Y165500D02*X207800D01*
X205550Y164750D02*X206300Y165500D01*
X205550Y164750D02*Y163250D01*
X206300Y162500D01*
X208550Y165500D02*Y163250D01*
X209300Y162500D01*
X206300D02*X207800D01*
X208550Y163250D01*
X211850Y168500D02*Y163250D01*
X212600Y162500D01*
X211100Y166250D02*X212600D01*
X214850Y162500D02*X217100D01*
X214100Y163250D02*X214850Y162500D01*
X214100Y164750D02*Y163250D01*
Y164750D02*X214850Y165500D01*
X216350D01*
X217100Y164750D01*
X214100Y164000D02*X217100D01*
Y164750D02*Y164000D01*
X218900Y166250D02*X219650D01*
X218900Y164750D02*X219650D01*
X224150Y168500D02*Y165500D01*
X224900Y162500D01*
X226400Y165500D01*
X227900Y162500D01*
X228650Y165500D01*
Y168500D02*Y165500D01*
X231200Y162500D02*X233450D01*
X230450Y163250D02*X231200Y162500D01*
X230450Y164750D02*Y163250D01*
Y164750D02*X231200Y165500D01*
X232700D01*
X233450Y164750D01*
X230450Y164000D02*X233450D01*
Y164750D02*Y164000D01*
X238250Y168500D02*Y162500D01*
X237500D02*X238250Y163250D01*
X236000Y162500D02*X237500D01*
X235250Y163250D02*X236000Y162500D01*
X235250Y164750D02*Y163250D01*
Y164750D02*X236000Y165500D01*
X237500D01*
X238250Y164750D01*
X242750Y168500D02*Y162500D01*
Y168500D02*X245000Y165500D01*
X247250Y168500D01*
Y162500D01*
X251300Y165500D02*X252050Y164750D01*
X249800Y165500D02*X251300D01*
X249050Y164750D02*X249800Y165500D01*
X249050Y164750D02*Y163250D01*
X249800Y162500D01*
X252050Y165500D02*Y163250D01*
X252800Y162500D01*
X249800D02*X251300D01*
X252050Y163250D01*
X255350Y164750D02*Y162500D01*
Y164750D02*X256100Y165500D01*
X257600D01*
X254600D02*X255350Y164750D01*
X262100Y167750D02*X262850Y168500D01*
X265100D01*
X265850Y167750D01*
Y166250D01*
X262100Y162500D02*X265850Y166250D01*
X262100Y162500D02*X265850D01*
X267650Y167750D02*X268400Y168500D01*
X269900D01*
X270650Y167750D01*
X269900Y162500D02*X270650Y163250D01*
X268400Y162500D02*X269900D01*
X267650Y163250D02*X268400Y162500D01*
Y165800D02*X269900D01*
X270650Y167750D02*Y166550D01*
Y165050D02*Y163250D01*
Y165050D02*X269900Y165800D01*
X270650Y166550D02*X269900Y165800D01*
X275150Y167300D02*X276350Y168500D01*
Y162500D01*
X275150D02*X277400D01*
X279950D02*X282950Y168500D01*
X279200D02*X282950D01*
X284750Y166250D02*X285500D01*
X284750Y164750D02*X285500D01*
X287300Y167300D02*X288500Y168500D01*
Y162500D01*
X287300D02*X289550D01*
X292100D02*X294350Y165500D01*
Y167750D02*Y165500D01*
X293600Y168500D02*X294350Y167750D01*
X292100Y168500D02*X293600D01*
X291350Y167750D02*X292100Y168500D01*
X291350Y167750D02*Y166250D01*
X292100Y165500D01*
X294350D01*
X296150Y166250D02*X296900D01*
X296150Y164750D02*X296900D01*
X298700D02*X301700Y168500D01*
X298700Y164750D02*X302450D01*
X301700Y168500D02*Y162500D01*
X304250Y167300D02*X305450Y168500D01*
Y162500D01*
X304250D02*X306500D01*
X311000Y167750D02*X311750Y168500D01*
X314000D01*
X314750Y167750D01*
Y166250D01*
X311000Y162500D02*X314750Y166250D01*
X311000Y162500D02*X314750D01*
X316550Y163250D02*X317300Y162500D01*
X316550Y167750D02*Y163250D01*
Y167750D02*X317300Y168500D01*
X318800D01*
X319550Y167750D01*
Y163250D01*
X318800Y162500D02*X319550Y163250D01*
X317300Y162500D02*X318800D01*
X316550Y164000D02*X319550Y167000D01*
X321350Y167750D02*X322100Y168500D01*
X324350D01*
X325100Y167750D01*
Y166250D01*
X321350Y162500D02*X325100Y166250D01*
X321350Y162500D02*X325100D01*
X326900Y167750D02*X327650Y168500D01*
X329900D01*
X330650Y167750D01*
Y166250D01*
X326900Y162500D02*X330650Y166250D01*
X326900Y162500D02*X330650D01*
X335150Y168500D02*Y163250D01*
X335900Y162500D01*
X337400D01*
X338150Y163250D01*
Y168500D02*Y163250D01*
X339950Y168500D02*X342950D01*
X341450D02*Y162500D01*
X345800D02*X347750D01*
X344750Y163550D02*X345800Y162500D01*
X344750Y167450D02*Y163550D01*
Y167450D02*X345800Y168500D01*
X347750D01*
X200000Y182000D02*Y177500D01*
Y182000D02*X201050Y183500D01*
X202700D01*
X203750Y182000D01*
Y177500D01*
X200000Y180500D02*X203750D01*
X205550D02*Y178250D01*
X206300Y177500D01*
X207800D01*
X208550Y178250D01*
Y180500D02*Y178250D01*
X211100Y183500D02*Y178250D01*
X211850Y177500D01*
X210350Y181250D02*X211850D01*
X213350Y183500D02*Y177500D01*
Y179750D02*X214100Y180500D01*
X215600D01*
X216350Y179750D01*
Y177500D01*
X218150Y179750D02*Y178250D01*
Y179750D02*X218900Y180500D01*
X220400D01*
X221150Y179750D01*
Y178250D01*
X220400Y177500D02*X221150Y178250D01*
X218900Y177500D02*X220400D01*
X218150Y178250D02*X218900Y177500D01*
X223700Y179750D02*Y177500D01*
Y179750D02*X224450Y180500D01*
X225950D01*
X222950D02*X223700Y179750D01*
X227750Y181250D02*X228500D01*
X227750Y179750D02*X228500D01*
X236000Y183500D02*X236750Y182750D01*
X233750Y183500D02*X236000D01*
X233000Y182750D02*X233750Y183500D01*
X233000Y182750D02*Y181250D01*
X233750Y180500D01*
X236000D01*
X236750Y179750D01*
Y178250D01*
X236000Y177500D02*X236750Y178250D01*
X233750Y177500D02*X236000D01*
X233000Y178250D02*X233750Y177500D01*
X239300Y183500D02*Y178250D01*
X240050Y177500D01*
X238550Y181250D02*X240050D01*
X242300Y177500D02*X244550D01*
X241550Y178250D02*X242300Y177500D01*
X241550Y179750D02*Y178250D01*
Y179750D02*X242300Y180500D01*
X243800D01*
X244550Y179750D01*
X241550Y179000D02*X244550D01*
Y179750D02*Y179000D01*
X246350Y180500D02*X247850Y177500D01*
X249350Y180500D02*X247850Y177500D01*
X251900D02*X254150D01*
X251150Y178250D02*X251900Y177500D01*
X251150Y179750D02*Y178250D01*
Y179750D02*X251900Y180500D01*
X253400D01*
X254150Y179750D01*
X251150Y179000D02*X254150D01*
Y179750D02*Y179000D01*
X258650Y183500D02*Y180500D01*
X259400Y177500D01*
X260900Y180500D01*
X262400Y177500D01*
X263150Y180500D01*
Y183500D02*Y180500D01*
G54D49*X264950Y182000D02*Y181850D01*
G54D48*Y179750D02*Y177500D01*
X266450Y183500D02*Y178250D01*
X267200Y177500D01*
X268700Y183500D02*Y178250D01*
X269450Y177500D01*
X270950Y179750D02*Y178250D01*
Y179750D02*X271700Y180500D01*
X273200D01*
X273950Y179750D01*
Y178250D01*
X273200Y177500D02*X273950Y178250D01*
X271700Y177500D02*X273200D01*
X270950Y178250D02*X271700Y177500D01*
X275750Y180500D02*Y178250D01*
X276500Y177500D01*
X278000D01*
X278750Y178250D01*
Y180500D02*Y178250D01*
X282800Y180500D02*X283550Y179750D01*
X281300Y180500D02*X282800D01*
X280550Y179750D02*X281300Y180500D01*
X280550Y179750D02*Y178250D01*
X281300Y177500D01*
X282800D01*
X283550Y178250D01*
X280550Y176000D02*X281300Y175250D01*
X282800D01*
X283550Y176000D01*
Y180500D02*Y176000D01*
X285350Y183500D02*Y177500D01*
Y179750D02*X286100Y180500D01*
X287600D01*
X288350Y179750D01*
Y177500D01*
X290150Y183500D02*Y177500D01*
Y178250D02*X290900Y177500D01*
X292400D01*
X293150Y178250D01*
Y179750D02*Y178250D01*
X292400Y180500D02*X293150Y179750D01*
X290900Y180500D02*X292400D01*
X290150Y179750D02*X290900Y180500D01*
X294950D02*Y178250D01*
X295700Y177500D01*
X297950Y180500D02*Y176000D01*
X297200Y175250D02*X297950Y176000D01*
X295700Y175250D02*X297200D01*
X294950Y176000D02*X295700Y175250D01*
Y177500D02*X297200D01*
X297950Y178250D01*
X200000Y198500D02*X203000D01*
X201500D02*Y192500D01*
G54D49*X204800Y197000D02*Y196850D01*
G54D48*Y194750D02*Y192500D01*
X207050Y198500D02*Y193250D01*
X207800Y192500D01*
X206300Y196250D02*X207800D01*
X209300Y198500D02*Y193250D01*
X210050Y192500D01*
X212300D02*X214550D01*
X211550Y193250D02*X212300Y192500D01*
X211550Y194750D02*Y193250D01*
Y194750D02*X212300Y195500D01*
X213800D01*
X214550Y194750D01*
X211550Y194000D02*X214550D01*
Y194750D02*Y194000D01*
X216350Y196250D02*X217100D01*
X216350Y194750D02*X217100D01*
X221600Y193250D02*X222350Y192500D01*
X221600Y197750D02*X222350Y198500D01*
X221600Y197750D02*Y193250D01*
X224150Y195500D02*Y193250D01*
X224900Y192500D01*
X226400D01*
X227150Y193250D01*
Y195500D02*Y193250D01*
X229700Y194750D02*Y192500D01*
Y194750D02*X230450Y195500D01*
X231200D01*
X231950Y194750D01*
Y192500D01*
X228950Y195500D02*X229700Y194750D01*
X233750Y198500D02*Y192500D01*
Y194750D02*X236000Y192500D01*
X233750Y194750D02*X235250Y196250D01*
X238550Y194750D02*Y192500D01*
Y194750D02*X239300Y195500D01*
X240050D01*
X240800Y194750D01*
Y192500D01*
X237800Y195500D02*X238550Y194750D01*
X242600D02*Y193250D01*
Y194750D02*X243350Y195500D01*
X244850D01*
X245600Y194750D01*
Y193250D01*
X244850Y192500D02*X245600Y193250D01*
X243350Y192500D02*X244850D01*
X242600Y193250D02*X243350Y192500D01*
X247400Y195500D02*Y193250D01*
X248150Y192500D01*
X248900D01*
X249650Y193250D01*
Y195500D02*Y193250D01*
X250400Y192500D01*
X251150D01*
X251900Y193250D01*
Y195500D02*Y193250D01*
X254450Y194750D02*Y192500D01*
Y194750D02*X255200Y195500D01*
X255950D01*
X256700Y194750D01*
Y192500D01*
X253700Y195500D02*X254450Y194750D01*
X258500Y198500D02*X259250Y197750D01*
Y193250D01*
X258500Y192500D02*X259250Y193250D01*
X263750Y195500D02*X266750D01*
X271250Y198500D02*Y192500D01*
Y198500D02*X274250D01*
X271250Y195800D02*X273500D01*
X278300Y195500D02*X279050Y194750D01*
X276800Y195500D02*X278300D01*
X276050Y194750D02*X276800Y195500D01*
X276050Y194750D02*Y193250D01*
X276800Y192500D01*
X279050Y195500D02*Y193250D01*
X279800Y192500D01*
X276800D02*X278300D01*
X279050Y193250D01*
X281600Y198500D02*Y192500D01*
Y193250D02*X282350Y192500D01*
X283850D01*
X284600Y193250D01*
Y194750D02*Y193250D01*
X283850Y195500D02*X284600Y194750D01*
X282350Y195500D02*X283850D01*
X281600Y194750D02*X282350Y195500D01*
X287150Y194750D02*Y192500D01*
Y194750D02*X287900Y195500D01*
X289400D01*
X286400D02*X287150Y194750D01*
G54D49*X291200Y197000D02*Y196850D01*
G54D48*Y194750D02*Y192500D01*
X293450Y195500D02*X295700D01*
X292700Y194750D02*X293450Y195500D01*
X292700Y194750D02*Y193250D01*
X293450Y192500D01*
X295700D01*
X299750Y195500D02*X300500Y194750D01*
X298250Y195500D02*X299750D01*
X297500Y194750D02*X298250Y195500D01*
X297500Y194750D02*Y193250D01*
X298250Y192500D01*
X300500Y195500D02*Y193250D01*
X301250Y192500D01*
X298250D02*X299750D01*
X300500Y193250D01*
X303800Y198500D02*Y193250D01*
X304550Y192500D01*
X303050Y196250D02*X304550D01*
G54D49*X306050Y197000D02*Y196850D01*
G54D48*Y194750D02*Y192500D01*
X307550Y194750D02*Y193250D01*
Y194750D02*X308300Y195500D01*
X309800D01*
X310550Y194750D01*
Y193250D01*
X309800Y192500D02*X310550Y193250D01*
X308300Y192500D02*X309800D01*
X307550Y193250D02*X308300Y192500D01*
X313100Y194750D02*Y192500D01*
Y194750D02*X313850Y195500D01*
X314600D01*
X315350Y194750D01*
Y192500D01*
X312350Y195500D02*X313100Y194750D01*
X320600Y198500D02*Y192500D01*
X322550Y198500D02*X323600Y197450D01*
Y193550D01*
X322550Y192500D02*X323600Y193550D01*
X319850Y192500D02*X322550D01*
X319850Y198500D02*X322550D01*
X326150Y194750D02*Y192500D01*
Y194750D02*X326900Y195500D01*
X328400D01*
X325400D02*X326150Y194750D01*
X332450Y195500D02*X333200Y194750D01*
X330950Y195500D02*X332450D01*
X330200Y194750D02*X330950Y195500D01*
X330200Y194750D02*Y193250D01*
X330950Y192500D01*
X333200Y195500D02*Y193250D01*
X333950Y192500D01*
X330950D02*X332450D01*
X333200Y193250D01*
X335750Y195500D02*Y193250D01*
X336500Y192500D01*
X337250D01*
X338000Y193250D01*
Y195500D02*Y193250D01*
X338750Y192500D01*
X339500D01*
X340250Y193250D01*
Y195500D02*Y193250D01*
G54D49*X342050Y197000D02*Y196850D01*
G54D48*Y194750D02*Y192500D01*
X344300Y194750D02*Y192500D01*
Y194750D02*X345050Y195500D01*
X345800D01*
X346550Y194750D01*
Y192500D01*
X343550Y195500D02*X344300Y194750D01*
X350600Y195500D02*X351350Y194750D01*
X349100Y195500D02*X350600D01*
X348350Y194750D02*X349100Y195500D01*
X348350Y194750D02*Y193250D01*
X349100Y192500D01*
X350600D01*
X351350Y193250D01*
X348350Y191000D02*X349100Y190250D01*
X350600D01*
X351350Y191000D01*
Y195500D02*Y191000D01*
M02*
