G04 start of page 7 for group -4062 idx -4062 *
G04 Title: (unknown), soldermask *
G04 Creator: pcb v4.3.0-g9dea9f5a *
G04 CreationDate: Fri Oct 27 19:37:28 2023 UTC *
G04 For: steve *
G04 Format: Gerber/RS-274X *
G04 PCB-Dimensions (mil): 3200.00 1400.00 *
G04 PCB-Coordinate-Origin: lower left *
%MOIN*%
%FSLAX25Y25*%
%LNGBS*%
%ADD60C,0.1400*%
%ADD59C,0.1360*%
%ADD58C,0.1520*%
%ADD57C,0.1380*%
%ADD56C,0.1060*%
%ADD55C,0.0610*%
%ADD54C,0.0660*%
%ADD53C,0.0001*%
%ADD52C,0.0100*%
G54D52*X40000Y22500D02*Y110000D01*
Y100000D01*
Y20000D02*Y27500D01*
Y105000D02*Y120000D01*
X50000Y130000D01*
X40000Y25000D02*Y20000D01*
X320000Y110000D02*Y20000D01*
X310000Y10000D01*
X312500Y12500D01*
X310000Y130000D02*X320000Y120000D01*
Y105000D01*
X50000Y130000D02*X72500D01*
X70000D02*X82500D01*
X310000D01*
X40000Y20000D02*X50000Y10000D01*
X72500D01*
X67500D02*X82500D01*
X310000D01*
G54D53*G36*
X46700Y43300D02*Y36700D01*
X53300D01*
Y43300D01*
X46700D01*
G37*
G54D54*X60000Y40000D03*
X70000D03*
X80000D03*
X90000D03*
X100000D03*
X110000D03*
X120000D03*
G54D53*G36*
X46700Y103300D02*Y96700D01*
X53300D01*
Y103300D01*
X46700D01*
G37*
G54D54*X60000Y100000D03*
X70000D03*
X80000D03*
X90000D03*
X100000D03*
X110000D03*
X120000D03*
X130000D03*
X140000D03*
X150000D03*
X160000D03*
G54D55*X103000Y85000D03*
X113000D03*
G54D54*X130000Y40000D03*
X140000D03*
X150000D03*
X160000D03*
G54D56*X210100Y58200D03*
X220000Y67300D03*
X210100Y77900D03*
X220000Y20000D03*
X239600Y77900D03*
Y58200D03*
X259300Y67300D03*
Y20000D03*
X269200Y77900D03*
G54D53*G36*
X264400Y63000D02*Y53400D01*
X274000D01*
Y63000D01*
X264400D01*
G37*
G54D57*X167500Y120000D03*
G54D58*X212815Y113500D03*
X232500D03*
X193185D03*
G54D59*X167500Y20000D03*
G54D60*X60000D03*
G54D57*Y120000D03*
G54D60*X300000Y20000D03*
Y80000D03*
G54D58*X252185Y113500D03*
X271870D03*
X291555D03*
M02*
