M48
INCH
T42C0.050
T41C0.130
T40C0.060
T39C0.030
T38C0.038
%
T39
X010300Y008500
X011300Y008500
T38
X005000Y010000
X005000Y004000
X006000Y010000
X006000Y004000
X007000Y010000
X007000Y004000
X008000Y010000
X008000Y004000
X009000Y010000
X009000Y004000
X010000Y010000
X010000Y004000
X011000Y010000
X011000Y004000
X012000Y010000
X012000Y004000
X013000Y010000
X013000Y004000
X014000Y010000
X014000Y004000
X015000Y010000
X015000Y004000
X016000Y010000
X016000Y004000
T42
X019319Y011350
X021281Y011350
X023250Y011350
X025219Y011350
X027187Y011350
X029156Y011350
T40
X021010Y007790
X021010Y005820
X022000Y006730
X022000Y002000
X023960Y007790
X023960Y005820
X025930Y006730
X025930Y002000
X026920Y007790
X026920Y005820
T41
X006000Y012000
X006000Y002000
X016750Y012000
X016750Y002000
X030000Y008000
X030000Y002000
M30
