G04 start of page 8 for group -4079 idx -4079 *
G04 Title: (unknown), topsilk *
G04 Creator: pcb v4.3.0-g9dea9f5a *
G04 CreationDate: Fri Oct 27 19:37:28 2023 UTC *
G04 For: steve *
G04 Format: Gerber/RS-274X *
G04 PCB-Dimensions (mil): 3200.00 1400.00 *
G04 PCB-Coordinate-Origin: lower left *
%MOIN*%
%FSLAX25Y25*%
%LNGTO*%
%ADD62C,0.0001*%
%ADD61C,0.0100*%
G54D61*X40000Y22500D02*Y110000D01*
Y100000D01*
Y20000D02*Y27500D01*
Y105000D02*Y120000D01*
X50000Y130000D01*
X40000Y25000D02*Y20000D01*
X320000Y110000D02*Y20000D01*
X310000Y10000D01*
X312500Y12500D01*
X310000Y130000D02*X320000Y120000D01*
Y105000D01*
X50000Y130000D02*X72500D01*
X70000D02*X82500D01*
X310000D01*
X40000Y20000D02*X50000Y10000D01*
X72500D01*
X67500D02*X82500D01*
X310000D01*
G54D62*G36*
X289500Y57500D02*X317000D01*
Y37500D01*
X289500D01*
Y57500D01*
G37*
G54D61*X237185Y128500D02*X262185D01*
X306685Y124000D02*Y105500D01*
Y128500D02*Y118000D01*
X260185Y128500D02*X306685D01*
X239685Y98500D02*X262185D01*
X260185D02*X306685D01*
Y108000D02*Y99000D01*
X178185Y128000D02*Y113000D01*
Y111500D02*Y98500D01*
Y128500D02*X239185D01*
X178185Y121500D02*Y110500D01*
Y98500D02*X242185D01*
X40000Y50000D02*X45000D01*
X50000D02*X52500D01*
Y52500D01*
X40000Y90000D02*X45000D01*
X50000D02*X52500D01*
Y87500D01*
X78000Y69500D02*X82500D01*
X72000Y121200D02*X75320D01*
X76150Y122030D01*
Y124022D02*Y122030D01*
X75320Y124852D02*X76150Y124022D01*
X72830Y124852D02*X75320D01*
X72830Y127840D02*Y121200D01*
X72000Y127840D02*X75320D01*
X76150Y127010D01*
Y125682D01*
X75320Y124852D02*X76150Y125682D01*
X78142Y127840D02*Y122030D01*
X78972Y121200D01*
X80632D01*
X81462Y122030D01*
Y127840D02*Y122030D01*
X86774Y127840D02*X87604Y127010D01*
X84284Y127840D02*X86774D01*
X83454Y127010D02*X84284Y127840D01*
X83454Y127010D02*Y125350D01*
X84284Y124520D01*
X86774D01*
X87604Y123690D01*
Y122030D01*
X86774Y121200D02*X87604Y122030D01*
X84284Y121200D02*X86774D01*
X83454Y122030D02*X84284Y121200D01*
X89596Y127840D02*X91256Y124520D01*
X92916Y127840D01*
X91256Y124520D02*Y121200D01*
X94908Y127840D02*Y121200D01*
X98228D01*
X100220Y127840D02*X101880D01*
X101050D02*Y121200D01*
X100220D02*X101880D01*
X107192Y127840D02*X108022Y127010D01*
X104702Y127840D02*X107192D01*
X103872Y127010D02*X104702Y127840D01*
X103872Y127010D02*Y122030D01*
X104702Y121200D01*
X107192D01*
X108022Y122030D01*
Y123690D02*Y122030D01*
X107192Y124520D02*X108022Y123690D01*
X105532Y124520D02*X107192D01*
X110014Y127840D02*Y121200D01*
X114164Y127840D02*Y121200D01*
X110014Y124520D02*X114164D01*
X116156Y127840D02*X119476D01*
X117816D02*Y121200D01*
X127776Y127840D02*X128606Y127010D01*
X125286Y127840D02*X127776D01*
X124456Y127010D02*X125286Y127840D01*
X124456Y127010D02*Y125350D01*
X125286Y124520D01*
X127776D01*
X128606Y123690D01*
Y122030D01*
X127776Y121200D02*X128606Y122030D01*
X125286Y121200D02*X127776D01*
X124456Y122030D02*X125286Y121200D01*
X130598Y127840D02*Y121200D01*
X134748Y127840D02*Y121200D01*
X130598Y124520D02*X134748D01*
X136740Y127840D02*X138400D01*
X137570D02*Y121200D01*
X136740D02*X138400D01*
X140392Y124852D02*X142882D01*
X140392Y121200D02*X143712D01*
X140392Y127840D02*Y121200D01*
Y127840D02*X143712D01*
X145704D02*Y121200D01*
X149024D01*
X151846Y127840D02*Y121200D01*
X154004Y127840D02*X155166Y126678D01*
Y122362D01*
X154004Y121200D02*X155166Y122362D01*
X151016Y121200D02*X154004D01*
X151016Y127840D02*X154004D01*
X93000Y119530D02*Y115650D01*
Y119530D02*X94940D01*
X93000Y117784D02*X94455D01*
X96104Y119045D02*Y116135D01*
Y119045D02*X96589Y119530D01*
X97559D01*
X98044Y119045D01*
Y116135D01*
X97559Y115650D02*X98044Y116135D01*
X96589Y115650D02*X97559D01*
X96104Y116135D02*X96589Y115650D01*
X99208Y119530D02*X101148D01*
X101633Y119045D01*
Y118075D01*
X101148Y117590D02*X101633Y118075D01*
X99693Y117590D02*X101148D01*
X99693Y119530D02*Y115650D01*
X100469Y117590D02*X101633Y115650D01*
X104543Y118560D02*Y115650D01*
Y118560D02*X105222Y119530D01*
X106289D01*
X106968Y118560D01*
Y115650D01*
X104543Y117590D02*X106968D01*
X108132Y119530D02*X110072D01*
X110557Y119045D01*
Y118075D01*
X110072Y117590D02*X110557Y118075D01*
X108617Y117590D02*X110072D01*
X108617Y119530D02*Y115650D01*
X109393Y117590D02*X110557Y115650D01*
X112206Y119530D02*Y115650D01*
X113467Y119530D02*X114146Y118851D01*
Y116329D01*
X113467Y115650D02*X114146Y116329D01*
X111721Y115650D02*X113467D01*
X111721Y119530D02*X113467D01*
X115310D02*Y116135D01*
X115795Y115650D01*
X116765D01*
X117250Y116135D01*
Y119530D02*Y116135D01*
X118414Y119530D02*X119384D01*
X118899D02*Y115650D01*
X118414D02*X119384D01*
X120548Y119530D02*Y115650D01*
Y119530D02*X122973Y115650D01*
Y119530D02*Y115650D01*
X124137Y119045D02*Y116135D01*
Y119045D02*X124622Y119530D01*
X125592D01*
X126077Y119045D01*
Y116135D01*
X125592Y115650D02*X126077Y116135D01*
X124622Y115650D02*X125592D01*
X124137Y116135D02*X124622Y115650D01*
X129472Y119530D02*Y115650D01*
X128987Y119530D02*X130927D01*
X131412Y119045D01*
Y118075D01*
X130927Y117590D02*X131412Y118075D01*
X129472Y117590D02*X130927D01*
X132576Y119530D02*X134516D01*
X135001Y119045D01*
Y118075D01*
X134516Y117590D02*X135001Y118075D01*
X133061Y117590D02*X134516D01*
X133061Y119530D02*Y115650D01*
X133837Y117590D02*X135001Y115650D01*
X136165Y119045D02*Y116135D01*
Y119045D02*X136650Y119530D01*
X137620D01*
X138105Y119045D01*
Y116135D01*
X137620Y115650D02*X138105Y116135D01*
X136650Y115650D02*X137620D01*
X136165Y116135D02*X136650Y115650D01*
X141015Y119530D02*Y115650D01*
Y119530D02*X142470Y117590D01*
X143925Y119530D01*
Y115650D01*
X145089Y119530D02*X146059D01*
X145574D02*Y115650D01*
X145089D02*X146059D01*
X147902D02*X149163D01*
X147223Y116329D02*X147902Y115650D01*
X147223Y118851D02*Y116329D01*
Y118851D02*X147902Y119530D01*
X149163D01*
X150327D02*X152267D01*
X152752Y119045D01*
Y118075D01*
X152267Y117590D02*X152752Y118075D01*
X150812Y117590D02*X152267D01*
X150812Y119530D02*Y115650D01*
X151588Y117590D02*X152752Y115650D01*
X153916Y119045D02*Y116135D01*
Y119045D02*X154401Y119530D01*
X155371D01*
X155856Y119045D01*
Y116135D01*
X155371Y115650D02*X155856Y116135D01*
X154401Y115650D02*X155371D01*
X153916Y116135D02*X154401Y115650D01*
X155000Y109000D02*X157000D01*
X155000Y110000D02*X157000D01*
X156500Y110500D02*Y108500D01*
X155500Y110500D02*Y108500D01*
X158200Y110700D02*X159000Y111500D01*
Y107500D01*
X158200D02*X159700D01*
X160900Y108000D02*X161400Y107500D01*
X160900Y111000D02*Y108000D01*
Y111000D02*X161400Y111500D01*
X162400D01*
X162900Y111000D01*
Y108000D01*
X162400Y107500D02*X162900Y108000D01*
X161400Y107500D02*X162400D01*
X160900Y108500D02*X162900Y110500D01*
X200700Y91500D02*X201500D01*
Y88000D01*
X201000Y87500D02*X201500Y88000D01*
X200500Y87500D02*X201000D01*
X200000Y88000D02*X200500Y87500D01*
X200000Y88500D02*Y88000D01*
X202700D02*X203200Y87500D01*
X202700Y91000D02*Y88000D01*
Y91000D02*X203200Y91500D01*
X204200D01*
X204700Y91000D01*
Y88000D01*
X204200Y87500D02*X204700Y88000D01*
X203200Y87500D02*X204200D01*
X202700Y88500D02*X204700Y90500D01*
X207700Y91500D02*Y87500D01*
X209700D01*
X210900Y91500D02*X211900D01*
X211400D02*Y87500D01*
X210900D02*X211900D01*
X215100Y91500D02*X215600Y91000D01*
X213600Y91500D02*X215100D01*
X213100Y91000D02*X213600Y91500D01*
X213100Y91000D02*Y88000D01*
X213600Y87500D01*
X215100D01*
X215600Y88000D01*
Y89000D02*Y88000D01*
X215100Y89500D02*X215600Y89000D01*
X214100Y89500D02*X215100D01*
X216800Y91500D02*Y87500D01*
X219300Y91500D02*Y87500D01*
X216800Y89500D02*X219300D01*
X220500Y91500D02*X222500D01*
X221500D02*Y87500D01*
X242700Y97000D02*X243500D01*
Y93500D01*
X243000Y93000D02*X243500Y93500D01*
X242500Y93000D02*X243000D01*
X242000Y93500D02*X242500Y93000D01*
X242000Y94000D02*Y93500D01*
X244700Y96200D02*X245500Y97000D01*
Y93000D01*
X244700D02*X246200D01*
X249200Y97000D02*X251200D01*
X251700Y96500D01*
Y95500D01*
X251200Y95000D02*X251700Y95500D01*
X249700Y95000D02*X251200D01*
X249700Y97000D02*Y93000D01*
X250500Y95000D02*X251700Y93000D01*
X254900Y97000D02*X255400Y96500D01*
X253400Y97000D02*X254900D01*
X252900Y96500D02*X253400Y97000D01*
X252900Y96500D02*Y95500D01*
X253400Y95000D01*
X254900D01*
X255400Y94500D01*
Y93500D01*
X254900Y93000D02*X255400Y93500D01*
X253400Y93000D02*X254900D01*
X252900Y93500D02*X253400Y93000D01*
X256600Y95000D02*X258600D01*
X259800Y94500D02*X261800Y97000D01*
X259800Y94500D02*X262300D01*
X261800Y97000D02*Y93000D01*
X263500Y93500D02*X264000Y93000D01*
X263500Y94300D02*Y93500D01*
Y94300D02*X264200Y95000D01*
X264800D01*
X265500Y94300D01*
Y93500D01*
X265000Y93000D02*X265500Y93500D01*
X264000Y93000D02*X265000D01*
X263500Y95700D02*X264200Y95000D01*
X263500Y96500D02*Y95700D01*
Y96500D02*X264000Y97000D01*
X265000D01*
X265500Y96500D01*
Y95700D01*
X264800Y95000D02*X265500Y95700D01*
X266700Y97000D02*X268700D01*
X266700D02*Y95000D01*
X267200Y95500D01*
X268200D01*
X268700Y95000D01*
Y93500D01*
X268200Y93000D02*X268700Y93500D01*
X267200Y93000D02*X268200D01*
X266700Y93500D02*X267200Y93000D01*
X216500Y78500D02*X218500D01*
X217500Y79500D02*Y77500D01*
X219700Y80500D02*X220700Y76500D01*
X221700Y80500D01*
X223400Y78500D02*X224900D01*
X222900Y78000D02*X223400Y78500D01*
X222900Y78000D02*Y77000D01*
X223400Y76500D01*
X224900D01*
X226600Y78500D02*X228100D01*
X226100Y78000D02*X226600Y78500D01*
X226100Y78000D02*Y77000D01*
X226600Y76500D01*
X228100D01*
X256500Y81000D02*Y77000D01*
X258500D01*
X259700Y81000D02*X261700D01*
X259700D02*Y79000D01*
X260200Y79500D01*
X261200D01*
X261700Y79000D01*
Y77500D01*
X261200Y77000D02*X261700Y77500D01*
X260200Y77000D02*X261200D01*
X259700Y77500D02*X260200Y77000D01*
X248000Y81000D02*Y77000D01*
X250000D01*
X252700Y81000D02*X253200Y80500D01*
X251700Y81000D02*X252700D01*
X251200Y80500D02*X251700Y81000D01*
X251200Y80500D02*Y77500D01*
X251700Y77000D01*
X252700Y79200D02*X253200Y78700D01*
X251200Y79200D02*X252700D01*
X251700Y77000D02*X252700D01*
X253200Y77500D01*
Y78700D02*Y77500D01*
X145000Y109000D02*X147000D01*
X145000Y110000D02*X147000D01*
X146500Y110500D02*Y108500D01*
X145500Y110500D02*Y108500D01*
X148200Y110700D02*X149000Y111500D01*
Y107500D01*
X148200D02*X149700D01*
X152400Y111500D02*X152900Y111000D01*
X151400Y111500D02*X152400D01*
X150900Y111000D02*X151400Y111500D01*
X150900Y111000D02*Y108000D01*
X151400Y107500D01*
X152400Y109700D02*X152900Y109200D01*
X150900Y109700D02*X152400D01*
X151400Y107500D02*X152400D01*
X152900Y108000D01*
Y109200D02*Y108000D01*
X135000Y109000D02*X137000D01*
X135000Y110000D02*X137000D01*
X136500Y110500D02*Y108500D01*
X135500Y110500D02*Y108500D01*
X138200Y110700D02*X139000Y111500D01*
Y107500D01*
X138200D02*X139700D01*
X140900Y109000D02*X142900Y111500D01*
X140900Y109000D02*X143400D01*
X142900Y111500D02*Y107500D01*
X125000Y109000D02*X127000D01*
X125000Y110000D02*X127000D01*
X126500Y110500D02*Y108500D01*
X125500Y110500D02*Y108500D01*
X128200Y110700D02*X129000Y111500D01*
Y107500D01*
X128200D02*X129700D01*
X130900Y111500D02*X132900D01*
X130900D02*Y109500D01*
X131400Y110000D01*
X132400D01*
X132900Y109500D01*
Y108000D01*
X132400Y107500D02*X132900Y108000D01*
X131400Y107500D02*X132400D01*
X130900Y108000D02*X131400Y107500D01*
X117500Y110500D02*Y107500D01*
Y110500D02*X118200Y111500D01*
X119300D01*
X120000Y110500D01*
Y107500D01*
X117500Y109500D02*X120000D01*
X121200Y108000D02*X121700Y107500D01*
X121200Y111000D02*Y108000D01*
Y111000D02*X121700Y111500D01*
X122700D01*
X123200Y111000D01*
Y108000D01*
X122700Y107500D02*X123200Y108000D01*
X121700Y107500D02*X122700D01*
X121200Y108500D02*X123200Y110500D01*
X107500D02*Y107500D01*
Y110500D02*X108200Y111500D01*
X109300D01*
X110000Y110500D01*
Y107500D01*
X107500Y109500D02*X110000D01*
X111200Y110700D02*X112000Y111500D01*
Y107500D01*
X111200D02*X112700D01*
X97500Y110500D02*Y107500D01*
Y110500D02*X98200Y111500D01*
X99300D01*
X100000Y110500D01*
Y107500D01*
X97500Y109500D02*X100000D01*
X101200Y111000D02*X101700Y111500D01*
X103200D01*
X103700Y111000D01*
Y110000D01*
X101200Y107500D02*X103700Y110000D01*
X101200Y107500D02*X103700D01*
X87500Y110500D02*Y107500D01*
Y110500D02*X88200Y111500D01*
X89300D01*
X90000Y110500D01*
Y107500D01*
X87500Y109500D02*X90000D01*
X91200Y111000D02*X91700Y111500D01*
X92700D01*
X93200Y111000D01*
X92700Y107500D02*X93200Y108000D01*
X91700Y107500D02*X92700D01*
X91200Y108000D02*X91700Y107500D01*
Y109700D02*X92700D01*
X93200Y111000D02*Y110200D01*
Y109200D02*Y108000D01*
Y109200D02*X92700Y109700D01*
X93200Y110200D02*X92700Y109700D01*
X56000Y110500D02*X56500Y110000D01*
X54500Y110500D02*X56000D01*
X54000Y110000D02*X54500Y110500D01*
X54000Y110000D02*Y107000D01*
X54500Y106500D01*
X56000D01*
X56500Y107000D01*
Y108000D02*Y107000D01*
X56000Y108500D02*X56500Y108000D01*
X55000Y108500D02*X56000D01*
X57700Y110500D02*Y106500D01*
Y110500D02*X60200Y106500D01*
Y110500D02*Y106500D01*
X61900Y110500D02*Y106500D01*
X63200Y110500D02*X63900Y109800D01*
Y107200D01*
X63200Y106500D02*X63900Y107200D01*
X61400Y106500D02*X63200D01*
X61400Y110500D02*X63200D01*
X68500Y109500D02*Y107500D01*
Y109500D02*X69000Y110000D01*
X70000D01*
X70500Y109500D02*X70000Y110000D01*
X70500Y109500D02*Y108000D01*
X68500D02*X72500D01*
X70500Y108800D02*X72500Y110000D01*
X68500Y113200D02*X69000Y113700D01*
X68500Y113200D02*Y111700D01*
X69000Y111200D02*X68500Y111700D01*
X69000Y111200D02*X70000D01*
X70500Y111700D01*
Y113200D02*Y111700D01*
Y113200D02*X71000Y113700D01*
X72000D01*
X72500Y113200D02*X72000Y113700D01*
X72500Y113200D02*Y111700D01*
X72000Y111200D02*X72500Y111700D01*
X68500Y116900D02*Y114900D01*
Y115900D02*X72500D01*
X78500Y107500D02*X82500Y108500D01*
X78500Y109500D01*
X80500Y112700D02*Y111200D01*
X81000Y110700D02*X80500Y111200D01*
X81000Y110700D02*X82000D01*
X82500Y111200D01*
Y112700D02*Y111200D01*
X80500Y115900D02*Y114400D01*
X81000Y113900D02*X80500Y114400D01*
X81000Y113900D02*X82000D01*
X82500Y114400D01*
Y115900D02*Y114400D01*
X43500Y109500D02*Y107500D01*
Y109500D02*X44000Y110000D01*
X45000D01*
X45500Y109500D02*X45000Y110000D01*
X45500Y109500D02*Y108000D01*
X43500D02*X47500D01*
X45500Y108800D02*X47500Y110000D01*
X44500Y111200D02*X47500D01*
X44500D02*X43500Y111900D01*
Y113000D02*Y111900D01*
Y113000D02*X44500Y113700D01*
X47500D01*
X45500D02*Y111200D01*
X43500Y114900D02*X45500D01*
X47500Y115400D01*
X45500Y116400D01*
X47500Y117400D01*
X45500Y117900D01*
X43500D02*X45500D01*
X76500Y18500D02*X77000Y18000D01*
X75000Y18500D02*X76500D01*
X74500Y18000D02*X75000Y18500D01*
X74500Y18000D02*Y17000D01*
X75000Y16500D01*
X76500D01*
X77000Y16000D01*
Y15000D01*
X76500Y14500D02*X77000Y15000D01*
X75000Y14500D02*X76500D01*
X74500Y15000D02*X75000Y14500D01*
X78200Y18500D02*X80200D01*
X79200D02*Y14500D01*
X81400Y16700D02*X82900D01*
X81400Y14500D02*X83400D01*
X81400Y18500D02*Y14500D01*
Y18500D02*X83400D01*
X84600D02*X85600Y14500D01*
X86600Y18500D01*
X87800Y16700D02*X89300D01*
X87800Y14500D02*X89800D01*
X87800Y18500D02*Y14500D01*
Y18500D02*X89800D01*
X92800D02*Y16500D01*
X93300Y14500D01*
X94300Y16500D01*
X95300Y14500D01*
X95800Y16500D01*
Y18500D02*Y16500D01*
X97000Y18500D02*X98000D01*
X97500D02*Y14500D01*
X97000D02*X98000D01*
X99200Y18500D02*Y14500D01*
X101200D01*
X102400Y18500D02*Y14500D01*
X104400D01*
X105600Y18000D02*Y15000D01*
Y18000D02*X106100Y18500D01*
X107100D01*
X107600Y18000D01*
Y15000D01*
X107100Y14500D02*X107600Y15000D01*
X106100Y14500D02*X107100D01*
X105600Y15000D02*X106100Y14500D01*
X108800Y18500D02*Y15000D01*
X109300Y14500D01*
X110300D01*
X110800Y15000D01*
Y18500D02*Y15000D01*
X114000Y18500D02*X114500Y18000D01*
X112500Y18500D02*X114000D01*
X112000Y18000D02*X112500Y18500D01*
X112000Y18000D02*Y15000D01*
X112500Y14500D01*
X114000D01*
X114500Y15000D01*
Y16000D02*Y15000D01*
X114000Y16500D02*X114500Y16000D01*
X113000Y16500D02*X114000D01*
X115700Y18500D02*Y14500D01*
X118200Y18500D02*Y14500D01*
X115700Y16500D02*X118200D01*
X119400Y14500D02*X121400D01*
X121900Y15000D01*
Y16200D02*Y15000D01*
X121400Y16700D02*X121900Y16200D01*
X119900Y16700D02*X121400D01*
X119900Y18500D02*Y14500D01*
X119400Y18500D02*X121400D01*
X121900Y18000D01*
Y17200D01*
X121400Y16700D02*X121900Y17200D01*
X123100Y18500D02*X124100Y16500D01*
X125100Y18500D01*
X124100Y16500D02*Y14500D01*
X129900Y17700D02*X130700Y18500D01*
Y14500D01*
X129900D02*X131400D01*
X132600Y15000D02*X133100Y14500D01*
X132600Y18000D02*Y15000D01*
Y18000D02*X133100Y18500D01*
X134100D01*
X134600Y18000D01*
Y15000D01*
X134100Y14500D02*X134600Y15000D01*
X133100Y14500D02*X134100D01*
X132600Y15500D02*X134600Y17500D01*
X135800Y15000D02*X138800Y18000D01*
X140000D02*X140500Y18500D01*
X142000D01*
X142500Y18000D01*
Y17000D01*
X140000Y14500D02*X142500Y17000D01*
X140000Y14500D02*X142500D01*
X143700Y15000D02*X144200Y14500D01*
X143700Y18000D02*Y15000D01*
Y18000D02*X144200Y18500D01*
X145200D01*
X145700Y18000D01*
Y15000D01*
X145200Y14500D02*X145700Y15000D01*
X144200Y14500D02*X145200D01*
X143700Y15500D02*X145700Y17500D01*
X146900Y18000D02*X147400Y18500D01*
X148900D01*
X149400Y18000D01*
Y17000D01*
X146900Y14500D02*X149400Y17000D01*
X146900Y14500D02*X149400D01*
X150600Y18000D02*X151100Y18500D01*
X152100D01*
X152600Y18000D01*
X152100Y14500D02*X152600Y15000D01*
X151100Y14500D02*X152100D01*
X150600Y15000D02*X151100Y14500D01*
Y16700D02*X152100D01*
X152600Y18000D02*Y17200D01*
Y16200D02*Y15000D01*
Y16200D02*X152100Y16700D01*
X152600Y17200D02*X152100Y16700D01*
X109000Y24500D02*X110000Y20500D01*
X111000Y24500D01*
X112200Y24000D02*X112700Y24500D01*
X114200D01*
X114700Y24000D01*
Y23000D01*
X112200Y20500D02*X114700Y23000D01*
X112200Y20500D02*X114700D01*
X115900D02*X116400D01*
X117600Y21000D02*X118100Y20500D01*
X117600Y24000D02*Y21000D01*
Y24000D02*X118100Y24500D01*
X119100D01*
X119600Y24000D01*
Y21000D01*
X119100Y20500D02*X119600Y21000D01*
X118100Y20500D02*X119100D01*
X117600Y21500D02*X119600Y23500D01*
X120800Y20500D02*X121300D01*
X122500Y21000D02*X123000Y20500D01*
X122500Y24000D02*Y21000D01*
Y24000D02*X123000Y24500D01*
X124000D01*
X124500Y24000D01*
Y21000D01*
X124000Y20500D02*X124500Y21000D01*
X123000Y20500D02*X124000D01*
X122500Y21500D02*X124500Y23500D01*
X117500Y29000D02*X119500D01*
X117500Y30000D02*X119500D01*
X119000Y30500D02*Y28500D01*
X118000Y30500D02*Y28500D01*
X120700Y31500D02*X122700D01*
X120700D02*Y29500D01*
X121200Y30000D01*
X122200D01*
X122700Y29500D01*
Y28000D01*
X122200Y27500D02*X122700Y28000D01*
X121200Y27500D02*X122200D01*
X120700Y28000D02*X121200Y27500D01*
X107500Y29000D02*X109500D01*
X107500Y30000D02*X109500D01*
X109000Y30500D02*Y28500D01*
X108000Y30500D02*Y28500D01*
X110700Y29000D02*X112700Y31500D01*
X110700Y29000D02*X113200D01*
X112700Y31500D02*Y27500D01*
X83000Y54000D02*Y50500D01*
X83500Y50000D01*
X84500D01*
X85000Y50500D01*
Y54000D02*Y50500D01*
X86200Y53200D02*X87000Y54000D01*
Y50000D01*
X86200D02*X87700D01*
X90700Y54000D02*X92700D01*
X91700D02*Y50000D01*
X93900Y54000D02*Y50000D01*
X96400Y54000D02*Y50000D01*
X93900Y52000D02*X96400D01*
X97600Y54000D02*X98600Y50000D01*
X99600Y54000D01*
X101300D02*Y50000D01*
X102600Y54000D02*X103300Y53300D01*
Y50700D01*
X102600Y50000D02*X103300Y50700D01*
X100800Y50000D02*X102600D01*
X100800Y54000D02*X102600D01*
X104500Y53200D02*X105300Y54000D01*
Y50000D01*
X104500D02*X106000D01*
X107200Y51500D02*X109200Y54000D01*
X107200Y51500D02*X109700D01*
X109200Y54000D02*Y50000D01*
X110900Y53500D02*X111400Y54000D01*
X112400D01*
X112900Y53500D01*
X112400Y50000D02*X112900Y50500D01*
X111400Y50000D02*X112400D01*
X110900Y50500D02*X111400Y50000D01*
Y52200D02*X112400D01*
X112900Y53500D02*Y52700D01*
Y51700D02*Y50500D01*
Y51700D02*X112400Y52200D01*
X112900Y52700D02*X112400Y52200D01*
X114600Y50000D02*X116100Y52000D01*
Y53500D02*Y52000D01*
X115600Y54000D02*X116100Y53500D01*
X114600Y54000D02*X115600D01*
X114100Y53500D02*X114600Y54000D01*
X114100Y53500D02*Y52500D01*
X114600Y52000D01*
X116100D01*
X57000Y53200D02*X57800Y54000D01*
Y50000D01*
X57000D02*X58500D01*
X59700Y50500D02*X60200Y50000D01*
X59700Y53500D02*Y50500D01*
Y53500D02*X60200Y54000D01*
X61200D01*
X61700Y53500D01*
Y50500D01*
X61200Y50000D02*X61700Y50500D01*
X60200Y50000D02*X61200D01*
X59700Y51000D02*X61700Y53000D01*
X62900Y54000D02*Y50000D01*
Y52000D02*X64900Y54000D01*
X62900Y52000D02*X64900Y50000D01*
X78000Y68230D02*X79540D01*
X79925Y67845D01*
Y67075D01*
X79540Y66690D02*X79925Y67075D01*
X78385Y66690D02*X79540D01*
X78385Y68230D02*Y65150D01*
X79001Y66690D02*X79925Y65150D01*
X80849Y66844D02*X82004D01*
X80849Y65150D02*X82389D01*
X80849Y68230D02*Y65150D01*
Y68230D02*X82389D01*
X78380Y63740D02*Y60700D01*
X79368Y63740D02*X79900Y63208D01*
Y61232D01*
X79368Y60700D02*X79900Y61232D01*
X78000Y60700D02*X79368D01*
X78000Y63740D02*X79368D01*
X80812Y62372D02*X81952D01*
X80812Y60700D02*X82332D01*
X80812Y63740D02*Y60700D01*
Y63740D02*X82332D01*
X79385Y58730D02*Y55650D01*
X80386Y58730D02*X80925Y58191D01*
Y56189D01*
X80386Y55650D02*X80925Y56189D01*
X79000Y55650D02*X80386D01*
X79000Y58730D02*X80386D01*
X43000Y80000D02*Y76500D01*
X43500Y76000D01*
X44500D01*
X45000Y76500D01*
Y80000D02*Y76500D01*
X46200Y79500D02*X46700Y80000D01*
X48200D01*
X48700Y79500D01*
Y78500D01*
X46200Y76000D02*X48700Y78500D01*
X46200Y76000D02*X48700D01*
X51700Y79500D02*Y76500D01*
Y79500D02*X52200Y80000D01*
X53200D01*
X53700Y79500D01*
Y76500D01*
X53200Y76000D02*X53700Y76500D01*
X52200Y76000D02*X53200D01*
X51700Y76500D02*X52200Y76000D01*
X54900Y80000D02*X56900D01*
X57400Y79500D01*
Y78500D01*
X56900Y78000D02*X57400Y78500D01*
X55400Y78000D02*X56900D01*
X55400Y80000D02*Y76000D01*
X56200Y78000D02*X57400Y76000D01*
X58600Y80000D02*Y76000D01*
Y80000D02*X61100Y76000D01*
Y80000D02*Y76000D01*
X62300Y80000D02*X64300D01*
X63300D02*Y76000D01*
X65500Y79000D02*Y76000D01*
Y79000D02*X66200Y80000D01*
X67300D01*
X68000Y79000D01*
Y76000D01*
X65500Y78000D02*X68000D01*
X69200Y79200D02*X70000Y80000D01*
Y76000D01*
X69200D02*X70700D01*
X71900Y76500D02*X72400Y76000D01*
X71900Y79500D02*Y76500D01*
Y79500D02*X72400Y80000D01*
X73400D01*
X73900Y79500D01*
Y76500D01*
X73400Y76000D02*X73900Y76500D01*
X72400Y76000D02*X73400D01*
X71900Y77000D02*X73900Y79000D01*
X75100Y76500D02*X75600Y76000D01*
X75100Y79500D02*Y76500D01*
Y79500D02*X75600Y80000D01*
X76600D01*
X77100Y79500D01*
Y76500D01*
X76600Y76000D02*X77100Y76500D01*
X75600Y76000D02*X76600D01*
X75100Y77000D02*X77100Y79000D01*
X78300Y79500D02*X78800Y80000D01*
X80300D01*
X80800Y79500D01*
Y78500D01*
X78300Y76000D02*X80800Y78500D01*
X78300Y76000D02*X80800D01*
X82000D02*X84000D01*
X84500Y76500D01*
Y77700D02*Y76500D01*
X84000Y78200D02*X84500Y77700D01*
X82500Y78200D02*X84000D01*
X82500Y80000D02*Y76000D01*
X82000Y80000D02*X84000D01*
X84500Y79500D01*
Y78700D01*
X84000Y78200D02*X84500Y78700D01*
X85700Y80000D02*X87700D01*
X86700D02*Y76000D01*
X88900Y79200D02*X89700Y80000D01*
Y76000D01*
X88900D02*X90400D01*
X98700Y77000D02*X100000D01*
X98000Y77700D02*X98700Y77000D01*
X98000Y80300D02*Y77700D01*
Y80300D02*X98700Y81000D01*
X100000D01*
X101200Y77500D02*X101700Y77000D01*
X101200Y80500D02*Y77500D01*
Y80500D02*X101700Y81000D01*
X102700D01*
X103200Y80500D01*
Y77500D01*
X102700Y77000D02*X103200Y77500D01*
X101700Y77000D02*X102700D01*
X101200Y78000D02*X103200Y80000D01*
X106200Y77500D02*X106700Y77000D01*
X106200Y80500D02*Y77500D01*
Y80500D02*X106700Y81000D01*
X107700D01*
X108200Y80500D01*
Y77500D01*
X107700Y77000D02*X108200Y77500D01*
X106700Y77000D02*X107700D01*
X106200Y78000D02*X108200Y80000D01*
X109400Y77000D02*X109900D01*
X111100Y80200D02*X111900Y81000D01*
Y77000D01*
X111100D02*X112600D01*
X113800Y79000D02*Y77500D01*
X114300Y77000D01*
X115300D01*
X115800Y77500D01*
Y79000D02*Y77500D01*
X117000Y81000D02*Y77000D01*
Y81000D02*X119000D01*
X117000Y79200D02*X118500D01*
X79000Y74230D02*X80540D01*
X80925Y73845D01*
Y73075D01*
X80540Y72690D02*X80925Y73075D01*
X79385Y72690D02*X80540D01*
X79385Y74230D02*Y71150D01*
X80001Y72690D02*X80925Y71150D01*
X68500Y24500D02*X69000Y25000D01*
X68500Y24500D02*Y23000D01*
X69000Y22500D02*X68500Y23000D01*
X69000Y22500D02*X72000D01*
X72500Y23000D01*
Y24500D02*Y23000D01*
Y24500D02*X72000Y25000D01*
X71000D02*X72000D01*
X70500Y24500D02*X71000Y25000D01*
X70500Y24500D02*Y23500D01*
X68500Y26200D02*X72500D01*
X68500D02*X72500Y28700D01*
X68500D02*X72500D01*
X68500Y30400D02*X72500D01*
X68500Y31700D02*X69200Y32400D01*
X71800D01*
X72500Y31700D02*X71800Y32400D01*
X72500Y31700D02*Y29900D01*
X68500Y31700D02*Y29900D01*
X97500Y29000D02*X99500D01*
X97500Y30000D02*X99500D01*
X99000Y30500D02*Y28500D01*
X98000Y30500D02*Y28500D01*
X100700Y31000D02*X101200Y31500D01*
X102200D01*
X102700Y31000D01*
X102200Y27500D02*X102700Y28000D01*
X101200Y27500D02*X102200D01*
X100700Y28000D02*X101200Y27500D01*
Y29700D02*X102200D01*
X102700Y31000D02*Y30200D01*
Y29200D02*Y28000D01*
Y29200D02*X102200Y29700D01*
X102700Y30200D02*X102200Y29700D01*
X87500Y29000D02*X89500D01*
X87500Y30000D02*X89500D01*
X89000Y30500D02*Y28500D01*
X88000Y30500D02*Y28500D01*
X90700Y31000D02*X91200Y31500D01*
X92700D01*
X93200Y31000D01*
Y30000D01*
X90700Y27500D02*X93200Y30000D01*
X90700Y27500D02*X93200D01*
X78500Y24500D02*X79000Y25000D01*
X78500Y24500D02*Y23000D01*
X79000Y22500D02*X78500Y23000D01*
X79000Y22500D02*X82000D01*
X82500Y23000D01*
Y24500D02*Y23000D01*
Y24500D02*X82000Y25000D01*
X81000D02*X82000D01*
X80500Y24500D02*X81000Y25000D01*
X80500Y24500D02*Y23500D01*
X78500Y26200D02*X82500D01*
X78500D02*X82500Y28700D01*
X78500D02*X82500D01*
X78500Y30400D02*X82500D01*
X78500Y31700D02*X79200Y32400D01*
X81800D01*
X82500Y31700D02*X81800Y32400D01*
X82500Y31700D02*Y29900D01*
X78500Y31700D02*Y29900D01*
X283000Y43100D02*X286760D01*
X287700Y44040D01*
Y46296D02*Y44040D01*
X286760Y47236D02*X287700Y46296D01*
X283940Y47236D02*X286760D01*
X283940Y50620D02*Y43100D01*
X283000Y50620D02*X286760D01*
X287700Y49680D01*
Y48176D01*
X286760Y47236D02*X287700Y48176D01*
X298500Y64000D02*X299000Y63500D01*
X297000Y64000D02*X298500D01*
X296500Y63500D02*X297000Y64000D01*
X296500Y63500D02*Y62500D01*
X297000Y62000D01*
X298500D01*
X299000Y61500D01*
Y60500D01*
X298500Y60000D02*X299000Y60500D01*
X297000Y60000D02*X298500D01*
X296500Y60500D02*X297000Y60000D01*
X300200Y60500D02*X303200Y63500D01*
X304400Y64000D02*Y60000D01*
Y64000D02*X306900Y60000D01*
Y64000D02*Y60000D01*
X227000Y69500D02*Y65500D01*
X229000D01*
X230200Y66000D02*X230700Y65500D01*
X230200Y69000D02*Y66000D01*
Y69000D02*X230700Y69500D01*
X231700D01*
X232200Y69000D01*
Y66000D01*
X231700Y65500D02*X232200Y66000D01*
X230700Y65500D02*X231700D01*
X230200Y66500D02*X232200Y68500D01*
X217500Y60000D02*Y56000D01*
X219500D01*
X220700Y59500D02*X221200Y60000D01*
X222700D01*
X223200Y59500D01*
Y58500D01*
X220700Y56000D02*X223200Y58500D01*
X220700Y56000D02*X223200D01*
X247500Y60000D02*Y56000D01*
X249500D01*
X250700Y57500D02*X252700Y60000D01*
X250700Y57500D02*X253200D01*
X252700Y60000D02*Y56000D01*
X246500Y70500D02*Y66500D01*
X248500D01*
X249700Y70000D02*X250200Y70500D01*
X251200D01*
X251700Y70000D01*
X251200Y66500D02*X251700Y67000D01*
X250200Y66500D02*X251200D01*
X249700Y67000D02*X250200Y66500D01*
Y68700D02*X251200D01*
X251700Y70000D02*Y69200D01*
Y68200D02*Y67000D01*
Y68200D02*X251200Y68700D01*
X251700Y69200D02*X251200Y68700D01*
X272500Y68500D02*Y64500D01*
X274500D01*
X275700Y67700D02*X276500Y68500D01*
Y64500D01*
X275700D02*X277200D01*
X56500Y33500D02*X58500D01*
X59000Y33000D01*
Y32000D01*
X58500Y31500D02*X59000Y32000D01*
X57000Y31500D02*X58500D01*
X57000Y33500D02*Y29500D01*
X57800Y31500D02*X59000Y29500D01*
X60200D02*X62700Y33500D01*
X60200D02*X62700Y29500D01*
X47000Y33500D02*X49000D01*
X48000D02*Y29500D01*
X50200D02*X52700Y33500D01*
X50200D02*X52700Y29500D01*
X157500Y29000D02*X159500D01*
X157500Y30000D02*X159500D01*
X159000Y30500D02*Y28500D01*
X158000Y30500D02*Y28500D01*
X161200Y27500D02*X162700Y29500D01*
Y31000D02*Y29500D01*
X162200Y31500D02*X162700Y31000D01*
X161200Y31500D02*X162200D01*
X160700Y31000D02*X161200Y31500D01*
X160700Y31000D02*Y30000D01*
X161200Y29500D01*
X162700D01*
X147500Y29000D02*X149500D01*
X147500Y30000D02*X149500D01*
X149000Y30500D02*Y28500D01*
X148000Y30500D02*Y28500D01*
X150700Y28000D02*X151200Y27500D01*
X150700Y28800D02*Y28000D01*
Y28800D02*X151400Y29500D01*
X152000D01*
X152700Y28800D01*
Y28000D01*
X152200Y27500D02*X152700Y28000D01*
X151200Y27500D02*X152200D01*
X150700Y30200D02*X151400Y29500D01*
X150700Y31000D02*Y30200D01*
Y31000D02*X151200Y31500D01*
X152200D01*
X152700Y31000D01*
Y30200D01*
X152000Y29500D02*X152700Y30200D01*
X137500Y29000D02*X139500D01*
X137500Y30000D02*X139500D01*
X139000Y30500D02*Y28500D01*
X138000Y30500D02*Y28500D01*
X141200Y27500D02*X143200Y31500D01*
X140700D02*X143200D01*
X127500Y29000D02*X129500D01*
X127500Y30000D02*X129500D01*
X129000Y30500D02*Y28500D01*
X128000Y30500D02*Y28500D01*
X132200Y31500D02*X132700Y31000D01*
X131200Y31500D02*X132200D01*
X130700Y31000D02*X131200Y31500D01*
X130700Y31000D02*Y28000D01*
X131200Y27500D01*
X132200Y29700D02*X132700Y29200D01*
X130700Y29700D02*X132200D01*
X131200Y27500D02*X132200D01*
X132700Y28000D01*
Y29200D02*Y28000D01*
X128500Y55000D02*X132000D01*
X132500Y55500D01*
Y56500D02*Y55500D01*
Y56500D02*X132000Y57000D01*
X128500D02*X132000D01*
Y58200D02*X132500Y58700D01*
X129000Y58200D02*X132000D01*
X129000D02*X128500Y58700D01*
Y59700D02*Y58700D01*
Y59700D02*X129000Y60200D01*
X132000D01*
X132500Y59700D02*X132000Y60200D01*
X132500Y59700D02*Y58700D01*
X131500Y58200D02*X129500Y60200D01*
X128500Y63200D02*X132000D01*
X132500Y63700D01*
Y64700D02*Y63700D01*
Y64700D02*X132000Y65200D01*
X128500D02*X132000D01*
X128500Y66400D02*X132500D01*
Y68400D02*Y66400D01*
X128500Y69600D02*X132500D01*
X128500D02*X132500Y72100D01*
X128500D02*X132500D01*
X129000Y73300D02*X128500Y73800D01*
Y75300D02*Y73800D01*
Y75300D02*X129000Y75800D01*
X130000D01*
X132500Y73300D02*X130000Y75800D01*
X132500D02*Y73300D01*
X132000Y77000D02*X132500Y77500D01*
X129000Y77000D02*X132000D01*
X129000D02*X128500Y77500D01*
Y78500D02*Y77500D01*
Y78500D02*X129000Y79000D01*
X132000D01*
X132500Y78500D02*X132000Y79000D01*
X132500Y78500D02*Y77500D01*
X131500Y77000D02*X129500Y79000D01*
X132000Y80200D02*X132500Y80700D01*
X129000Y80200D02*X132000D01*
X129000D02*X128500Y80700D01*
Y81700D02*Y80700D01*
Y81700D02*X129000Y82200D01*
X132000D01*
X132500Y81700D02*X132000Y82200D01*
X132500Y81700D02*Y80700D01*
X131500Y80200D02*X129500Y82200D01*
X129000Y83400D02*X128500Y83900D01*
Y84900D02*Y83900D01*
Y84900D02*X129000Y85400D01*
X132500Y84900D02*X132000Y85400D01*
X132500Y84900D02*Y83900D01*
X132000Y83400D02*X132500Y83900D01*
X130300Y84900D02*Y83900D01*
X129000Y85400D02*X129800D01*
X130800D02*X132000D01*
X130800D02*X130300Y84900D01*
X129800Y85400D02*X130300Y84900D01*
X129500Y86600D02*X132500D01*
X129500D02*X128500Y87300D01*
Y88400D02*Y87300D01*
Y88400D02*X129500Y89100D01*
X132500D01*
X130500D02*Y86600D01*
X167500Y59000D02*Y55000D01*
X169500D01*
X170700Y58200D02*X171500Y59000D01*
Y55000D01*
X170700D02*X172200D01*
X175200Y59000D02*X177200D01*
X177700Y58500D01*
Y57500D01*
X177200Y57000D02*X177700Y57500D01*
X175700Y57000D02*X177200D01*
X175700Y59000D02*Y55000D01*
X176500Y57000D02*X177700Y55000D01*
X167500Y64000D02*Y60000D01*
X169500D01*
X170700Y63500D02*X171200Y64000D01*
X172200D01*
X172700Y63500D01*
X172200Y60000D02*X172700Y60500D01*
X171200Y60000D02*X172200D01*
X170700Y60500D02*X171200Y60000D01*
Y62200D02*X172200D01*
X172700Y63500D02*Y62700D01*
Y61700D02*Y60500D01*
Y61700D02*X172200Y62200D01*
X172700Y62700D02*X172200Y62200D01*
X175700Y64000D02*X176700Y62000D01*
X177700Y64000D01*
X176700Y62000D02*Y60000D01*
X167500Y69000D02*Y65000D01*
X169500D01*
X170700Y66500D02*X172700Y69000D01*
X170700Y66500D02*X173200D01*
X172700Y69000D02*Y65000D01*
X178200Y69000D02*X178700Y68500D01*
X176700Y69000D02*X178200D01*
X176200Y68500D02*X176700Y69000D01*
X176200Y68500D02*Y65500D01*
X176700Y65000D01*
X178200D01*
X178700Y65500D01*
Y66500D02*Y65500D01*
X178200Y67000D02*X178700Y66500D01*
X177200Y67000D02*X178200D01*
X167500Y79000D02*Y75000D01*
X169500D01*
X170700Y75500D02*X171200Y75000D01*
X170700Y78500D02*Y75500D01*
Y78500D02*X171200Y79000D01*
X172200D01*
X172700Y78500D01*
Y75500D01*
X172200Y75000D02*X172700Y75500D01*
X171200Y75000D02*X172200D01*
X170700Y76000D02*X172700Y78000D01*
X175700Y75000D02*X177700D01*
X178200Y75500D01*
Y76700D02*Y75500D01*
X177700Y77200D02*X178200Y76700D01*
X176200Y77200D02*X177700D01*
X176200Y79000D02*Y75000D01*
X175700Y79000D02*X177700D01*
X178200Y78500D01*
Y77700D01*
X177700Y77200D02*X178200Y77700D01*
X167500Y74000D02*Y70000D01*
X169500D01*
X170700Y73500D02*X171200Y74000D01*
X172700D01*
X173200Y73500D01*
Y72500D01*
X170700Y70000D02*X173200Y72500D01*
X170700Y70000D02*X173200D01*
X176700Y71500D02*Y70000D01*
Y71500D02*X177200Y72000D01*
X178200D01*
X176200D02*X176700Y71500D01*
X167500Y89000D02*Y85000D01*
X169500D01*
X170700Y89000D02*X172700D01*
X170700D02*Y87000D01*
X171200Y87500D01*
X172200D01*
X172700Y87000D01*
Y85500D01*
X172200Y85000D02*X172700Y85500D01*
X171200Y85000D02*X172200D01*
X170700Y85500D02*X171200Y85000D01*
X167500Y84000D02*Y80000D01*
X169500D01*
X172200Y84000D02*X172700Y83500D01*
X171200Y84000D02*X172200D01*
X170700Y83500D02*X171200Y84000D01*
X170700Y83500D02*Y80500D01*
X171200Y80000D01*
X172200Y82200D02*X172700Y81700D01*
X170700Y82200D02*X172200D01*
X171200Y80000D02*X172200D01*
X172700Y80500D01*
Y81700D02*Y80500D01*
G54D62*G36*
X289500Y57500D02*X317000D01*
Y37500D01*
X289500D01*
Y57500D01*
G37*
G54D61*X198300Y10200D02*X281000D01*
X198300D02*Y84600D01*
X227300D01*
X227200D02*X281000D01*
Y10200D01*
X45000Y35000D02*X165000D01*
Y45000D02*Y35000D01*
X45000Y45000D02*X165000D01*
X45000D02*Y35000D01*
X55000Y45000D02*Y35000D01*
X45000Y45000D02*X55000D01*
X134500Y89500D02*Y50500D01*
X165500D01*
Y89500D01*
X134500D02*X147500D01*
X165500D02*X152500D01*
X147500D02*G75*G03X152500Y89500I2500J0D01*G01*
X45500Y74500D02*Y55500D01*
X76500D01*
Y74500D01*
X45500D02*X58500D01*
X76500D02*X63500D01*
X58500D02*G75*G03X63500Y74500I2500J0D01*G01*
X83500D02*Y55500D01*
X114500D01*
Y74500D01*
X83500D02*X96500D01*
X114500D02*X101500D01*
X96500D02*G75*G03X101500Y74500I2500J0D01*G01*
X103000Y85000D02*X105500D01*
X110500D02*X113000D01*
X105500Y85800D02*X110500D01*
Y84200D01*
X105500D01*
Y85800D01*
X45000Y95000D02*X165000D01*
Y105000D02*Y95000D01*
X45000Y105000D02*X165000D01*
X45000D02*Y95000D01*
X55000Y105000D02*Y95000D01*
X45000Y105000D02*X55000D01*
M02*
