G04 start of page 9 for group -4078 idx -4078 *
G04 Title: (unknown), bottomsilk *
G04 Creator: pcb v4.3.0-g9dea9f5a *
G04 CreationDate: Fri Oct 27 19:37:28 2023 UTC *
G04 For: steve *
G04 Format: Gerber/RS-274X *
G04 PCB-Dimensions (mil): 3200.00 1400.00 *
G04 PCB-Coordinate-Origin: lower left *
%MOIN*%
%FSLAX25Y25*%
%LNGBO*%
%ADD63C,0.0100*%
G54D63*X40000Y22500D02*Y110000D01*
Y100000D01*
Y20000D02*Y27500D01*
Y105000D02*Y120000D01*
X50000Y130000D01*
X40000Y25000D02*Y20000D01*
X320000Y110000D02*Y20000D01*
X310000Y10000D01*
X312500Y12500D01*
X310000Y130000D02*X320000Y120000D01*
Y105000D01*
X50000Y130000D02*X72500D01*
X70000D02*X82500D01*
X310000D01*
X40000Y20000D02*X50000Y10000D01*
X72500D01*
X67500D02*X82500D01*
X310000D01*
X197500Y85000D02*X282500D01*
Y10000D01*
X197500Y85000D02*Y10000D01*
X165000Y45000D02*Y35000D01*
Y105000D02*Y95000D01*
X199000Y98000D02*X183000D01*
Y105000D01*
X208000Y98000D02*X222000D01*
X224000D02*X236000D01*
X248000D02*X262000D01*
X222000D02*Y105000D01*
X224000D02*Y98000D01*
X262000D02*Y105000D01*
X45000D02*X165000D01*
X45000Y95000D02*Y105000D01*
X40000Y90000D02*X52500D01*
X165000Y95000D02*X45000D01*
Y45000D02*X165000D01*
X45000D02*X50000D01*
X165000Y35000D02*X45000D01*
Y45000D01*
X52500Y90000D02*Y50000D01*
X40000D01*
X268185Y123500D02*X268685Y124000D01*
X266685Y123500D02*X268185D01*
X266185Y124000D02*X266685Y123500D01*
X266185Y124000D02*Y127000D01*
X266685Y127500D01*
X268185D01*
X268685Y127000D01*
Y126000D02*Y127000D01*
X268185Y125500D02*X268685Y126000D01*
X267185Y125500D02*X268185D01*
X269885Y123500D02*Y127500D01*
Y123500D02*X272385Y127500D01*
Y123500D02*Y127500D01*
X274085Y123500D02*Y127500D01*
X275385Y123500D02*X276085Y124200D01*
Y126800D01*
X275385Y127500D02*X276085Y126800D01*
X273585Y127500D02*X275385D01*
X273585Y123500D02*X275385D01*
X288339Y123498D02*X288839Y123998D01*
X286839Y123498D02*X288339D01*
X286339Y123998D02*X286839Y123498D01*
X286339Y123998D02*Y126998D01*
X286839Y127498D01*
X288339D01*
X288839Y126998D01*
Y125998D02*Y126998D01*
X288339Y125498D02*X288839Y125998D01*
X287339Y125498D02*X288339D01*
X290039Y123498D02*Y127498D01*
Y123498D02*X292539Y127498D01*
Y123498D02*Y127498D01*
X294239Y123498D02*Y127498D01*
X295539Y123498D02*X296239Y124198D01*
Y126798D01*
X295539Y127498D02*X296239Y126798D01*
X293739Y127498D02*X295539D01*
X293739Y123498D02*X295539D01*
X282000Y94000D02*X284000D01*
X284500Y94500D01*
Y95500D01*
X284000Y96000D02*X284500Y95500D01*
X282500Y96000D02*X284000D01*
X282500Y94000D02*Y98000D01*
X283300Y96000D02*X284500Y98000D01*
X287700Y94000D02*X288200Y94500D01*
X286200Y94000D02*X287700D01*
X285700Y94500D02*X286200Y94000D01*
X285700Y94500D02*Y95500D01*
X286200Y96000D01*
X287700D01*
X288200Y96500D01*
Y97500D01*
X287700Y98000D02*X288200Y97500D01*
X286200Y98000D02*X287700D01*
X285700Y97500D02*X286200Y98000D01*
X289400Y96000D02*X291400D01*
X292600Y96500D02*X294600Y94000D01*
X292600Y96500D02*X295100D01*
X294600Y94000D02*Y98000D01*
X296300Y97500D02*X296800Y98000D01*
X296300Y96700D02*Y97500D01*
Y96700D02*X297000Y96000D01*
X297600D01*
X298300Y96700D01*
Y97500D01*
X297800Y98000D02*X298300Y97500D01*
X296800Y98000D02*X297800D01*
X296300Y95300D02*X297000Y96000D01*
X296300Y94500D02*Y95300D01*
Y94500D02*X296800Y94000D01*
X297800D01*
X298300Y94500D01*
Y95300D01*
X297600Y96000D02*X298300Y95300D01*
X299500Y94000D02*X301500D01*
X299500D02*Y96000D01*
X300000Y95500D01*
X301000D01*
X301500Y96000D01*
Y97500D01*
X301000Y98000D02*X301500Y97500D01*
X300000Y98000D02*X301000D01*
X299500Y97500D02*X300000Y98000D01*
X211185Y124500D02*Y127500D01*
Y124500D02*X211885Y123500D01*
X212985D01*
X213685Y124500D01*
Y127500D01*
X211185Y125500D02*X213685D01*
X192185Y127500D02*X194185D01*
X194685Y127000D01*
Y125800D02*Y127000D01*
X194185Y125300D02*X194685Y125800D01*
X192685Y125300D02*X194185D01*
X192685Y123500D02*Y127500D01*
X192185Y123500D02*X194185D01*
X194685Y124000D01*
Y124800D01*
X194185Y125300D02*X194685Y124800D01*
X250185Y127500D02*X252185D01*
X252685Y127000D01*
Y125800D02*Y127000D01*
X252185Y125300D02*X252685Y125800D01*
X250685Y125300D02*X252185D01*
X250685Y123500D02*Y127500D01*
X250185Y123500D02*X252185D01*
X252685Y124000D01*
Y124800D01*
X252185Y125300D02*X252685Y124800D01*
X231185Y124500D02*Y127500D01*
Y124500D02*X231885Y123500D01*
X232985D01*
X233685Y124500D01*
Y127500D01*
X231185Y125500D02*X233685D01*
X201000Y96000D02*X202000D01*
X201500D02*Y100000D01*
X201000D02*X202000D01*
X203200Y96000D02*Y100000D01*
Y96000D02*X205700Y100000D01*
Y96000D02*Y100000D01*
X238185Y96000D02*Y99000D01*
Y96000D02*X238685Y95500D01*
X239685D01*
X240185Y96000D01*
Y99000D01*
X239685Y99500D02*X240185Y99000D01*
X238685Y99500D02*X239685D01*
X238185Y99000D02*X238685Y99500D01*
X241385Y95500D02*Y99000D01*
X241885Y99500D01*
X242885D01*
X243385Y99000D01*
Y95500D02*Y99000D01*
X244585Y95500D02*X246585D01*
X245585D02*Y99500D01*
X217000Y78500D02*X219000D01*
X218000Y77500D02*Y79500D01*
X220200Y76500D02*X221200Y80500D01*
X222200Y76500D01*
X223900Y78500D02*X225400D01*
X223400Y79000D02*X223900Y78500D01*
X223400Y79000D02*Y80000D01*
X223900Y80500D01*
X225400D01*
X227100Y78500D02*X228600D01*
X226600Y79000D02*X227100Y78500D01*
X226600Y79000D02*Y80000D01*
X227100Y80500D01*
X228600D01*
X248000Y77000D02*Y81000D01*
X250000D01*
X252700Y77000D02*X253200Y77500D01*
X251700Y77000D02*X252700D01*
X251200Y77500D02*X251700Y77000D01*
X251200Y77500D02*Y80500D01*
X251700Y81000D01*
X252700Y78800D02*X253200Y79300D01*
X251200Y78800D02*X252700D01*
X251700Y81000D02*X252700D01*
X253200Y80500D01*
Y79300D02*Y80500D01*
X256000Y77000D02*Y81000D01*
X258000D01*
X259200Y77000D02*X261200D01*
X259200D02*Y79000D01*
X259700Y78500D01*
X260700D01*
X261200Y79000D01*
Y80500D01*
X260700Y81000D02*X261200Y80500D01*
X259700Y81000D02*X260700D01*
X259200Y80500D02*X259700Y81000D01*
X227500Y65500D02*Y69500D01*
X229500D01*
X230700Y69000D02*X231200Y69500D01*
X230700Y66000D02*Y69000D01*
Y66000D02*X231200Y65500D01*
X232200D01*
X232700Y66000D01*
Y69000D01*
X232200Y69500D02*X232700Y69000D01*
X231200Y69500D02*X232200D01*
X230700Y68500D02*X232700Y66500D01*
X218000Y55500D02*Y59500D01*
X220000D01*
X221200Y56000D02*X221700Y55500D01*
X223200D01*
X223700Y56000D01*
Y57000D01*
X221200Y59500D02*X223700Y57000D01*
X221200Y59500D02*X223700D01*
X247500Y56000D02*Y60000D01*
X249500D01*
X250700Y58500D02*X252700Y56000D01*
X250700Y58500D02*X253200D01*
X252700Y56000D02*Y60000D01*
X246500Y66500D02*Y70500D01*
X248500D01*
X249700Y67000D02*X250200Y66500D01*
X251200D01*
X251700Y67000D01*
X251200Y70500D02*X251700Y70000D01*
X250200Y70500D02*X251200D01*
X249700Y70000D02*X250200Y70500D01*
Y68300D02*X251200D01*
X251700Y67000D02*Y67800D01*
Y68800D02*Y70000D01*
Y68800D02*X251200Y68300D01*
X251700Y67800D02*X251200Y68300D01*
X272500Y64500D02*Y68500D01*
X274500D01*
X275700Y65300D02*X276500Y64500D01*
Y68500D01*
X275700D02*X277200D01*
M02*
