G04 start of page 6 for group -4063 idx -4063 *
G04 Title: (unknown), componentmask *
G04 Creator: pcb v4.3.0-g9dea9f5a *
G04 CreationDate: Fri Oct 27 19:37:28 2023 UTC *
G04 For: steve *
G04 Format: Gerber/RS-274X *
G04 PCB-Dimensions (mil): 3200.00 1400.00 *
G04 PCB-Coordinate-Origin: lower left *
%MOIN*%
%FSLAX25Y25*%
%LNGTS*%
%ADD51C,0.1400*%
%ADD50C,0.1360*%
%ADD49C,0.1520*%
%ADD48C,0.1380*%
%ADD47C,0.1060*%
%ADD46C,0.0610*%
%ADD45C,0.0660*%
%ADD44C,0.0001*%
%ADD43C,0.0100*%
G54D43*X40000Y22500D02*Y110000D01*
Y100000D01*
Y20000D02*Y27500D01*
Y105000D02*Y120000D01*
X50000Y130000D01*
X40000Y25000D02*Y20000D01*
X320000Y110000D02*Y20000D01*
X310000Y10000D01*
X312500Y12500D01*
X310000Y130000D02*X320000Y120000D01*
Y105000D01*
X50000Y130000D02*X72500D01*
X70000D02*X82500D01*
X310000D01*
X40000Y20000D02*X50000Y10000D01*
X72500D01*
X67500D02*X82500D01*
X310000D01*
G54D44*G36*
X46700Y43300D02*Y36700D01*
X53300D01*
Y43300D01*
X46700D01*
G37*
G54D45*X60000Y40000D03*
X70000D03*
X80000D03*
X90000D03*
X100000D03*
X110000D03*
X120000D03*
G54D44*G36*
X46700Y103300D02*Y96700D01*
X53300D01*
Y103300D01*
X46700D01*
G37*
G54D45*X60000Y100000D03*
X70000D03*
X80000D03*
X90000D03*
X100000D03*
X110000D03*
X120000D03*
X130000D03*
X140000D03*
X150000D03*
X160000D03*
G54D46*X103000Y85000D03*
X113000D03*
G54D45*X130000Y40000D03*
X140000D03*
X150000D03*
X160000D03*
G54D47*X210100Y58200D03*
X220000Y67300D03*
X210100Y77900D03*
X220000Y20000D03*
X239600Y77900D03*
Y58200D03*
X259300Y67300D03*
Y20000D03*
X269200Y77900D03*
G54D44*G36*
X264400Y63000D02*Y53400D01*
X274000D01*
Y63000D01*
X264400D01*
G37*
G54D48*X167500Y120000D03*
G54D49*X212815Y113500D03*
X232500D03*
X193185D03*
G54D50*X167500Y20000D03*
G54D51*X60000D03*
G54D48*Y120000D03*
G54D51*X300000Y20000D03*
Y80000D03*
G54D49*X252185Y113500D03*
X271870D03*
X291555D03*
G54D44*G36*
X104500Y59000D02*Y56000D01*
X114000D01*
Y59000D01*
X104500D01*
G37*
G36*
Y64000D02*Y61000D01*
X114000D01*
Y64000D01*
X104500D01*
G37*
G36*
Y69000D02*Y66000D01*
X114000D01*
Y69000D01*
X104500D01*
G37*
G36*
X84000Y74000D02*Y71000D01*
X93500D01*
Y74000D01*
X84000D01*
G37*
G36*
Y69000D02*Y66000D01*
X93500D01*
Y69000D01*
X84000D01*
G37*
G36*
Y64000D02*Y61000D01*
X93500D01*
Y64000D01*
X84000D01*
G37*
G36*
Y59000D02*Y56000D01*
X93500D01*
Y59000D01*
X84000D01*
G37*
G36*
X104500Y74000D02*Y71000D01*
X114000D01*
Y74000D01*
X104500D01*
G37*
G36*
X135000D02*Y71000D01*
X144500D01*
Y74000D01*
X135000D01*
G37*
G36*
Y69000D02*Y66000D01*
X144500D01*
Y69000D01*
X135000D01*
G37*
G36*
Y64000D02*Y61000D01*
X144500D01*
Y64000D01*
X135000D01*
G37*
G36*
Y59000D02*Y56000D01*
X144500D01*
Y59000D01*
X135000D01*
G37*
G36*
Y89000D02*Y86000D01*
X144500D01*
Y89000D01*
X135000D01*
G37*
G36*
Y84000D02*Y81000D01*
X144500D01*
Y84000D01*
X135000D01*
G37*
G36*
Y79000D02*Y76000D01*
X144500D01*
Y79000D01*
X135000D01*
G37*
G36*
Y54000D02*Y51000D01*
X144500D01*
Y54000D01*
X135000D01*
G37*
G36*
X155500D02*Y51000D01*
X165000D01*
Y54000D01*
X155500D01*
G37*
G36*
Y59000D02*Y56000D01*
X165000D01*
Y59000D01*
X155500D01*
G37*
G36*
Y64000D02*Y61000D01*
X165000D01*
Y64000D01*
X155500D01*
G37*
G36*
Y69000D02*Y66000D01*
X165000D01*
Y69000D01*
X155500D01*
G37*
G36*
Y74000D02*Y71000D01*
X165000D01*
Y74000D01*
X155500D01*
G37*
G36*
Y79000D02*Y76000D01*
X165000D01*
Y79000D01*
X155500D01*
G37*
G36*
Y84000D02*Y81000D01*
X165000D01*
Y84000D01*
X155500D01*
G37*
G36*
Y89000D02*Y86000D01*
X165000D01*
Y89000D01*
X155500D01*
G37*
G36*
X46000Y74000D02*Y71000D01*
X55500D01*
Y74000D01*
X46000D01*
G37*
G36*
Y69000D02*Y66000D01*
X55500D01*
Y69000D01*
X46000D01*
G37*
G36*
Y64000D02*Y61000D01*
X55500D01*
Y64000D01*
X46000D01*
G37*
G36*
X66500D02*Y61000D01*
X76000D01*
Y64000D01*
X66500D01*
G37*
G36*
X46000Y59000D02*Y56000D01*
X55500D01*
Y59000D01*
X46000D01*
G37*
G36*
X66500D02*Y56000D01*
X76000D01*
Y59000D01*
X66500D01*
G37*
G36*
Y69000D02*Y66000D01*
X76000D01*
Y69000D01*
X66500D01*
G37*
G36*
Y74000D02*Y71000D01*
X76000D01*
Y74000D01*
X66500D01*
G37*
M02*
