G04 start of page 2 for group 0 idx 0 *
G04 Title: (unknown), top *
G04 Creator: pcb v4.3.0-g9dea9f5a *
G04 CreationDate: Fri Oct 27 19:37:28 2023 UTC *
G04 For: steve *
G04 Format: Gerber/RS-274X *
G04 PCB-Dimensions (mil): 3200.00 1400.00 *
G04 PCB-Coordinate-Origin: lower left *
%MOIN*%
%FSLAX25Y25*%
%LNGTL*%
%ADD23C,0.0300*%
%ADD22C,0.0380*%
%ADD21C,0.0500*%
%ADD20C,0.1300*%
%ADD19C,0.1360*%
%ADD18C,0.1400*%
%ADD17C,0.1000*%
%ADD16C,0.0550*%
%ADD15C,0.0600*%
%ADD14C,0.0001*%
%ADD13C,0.0150*%
%ADD12C,0.0250*%
%ADD11C,0.0100*%
G54D11*X40000Y22500D02*Y110000D01*
Y100000D01*
Y20000D02*Y27500D01*
Y105000D02*Y120000D01*
X50000Y130000D01*
X40000Y25000D02*Y20000D01*
X320000Y110000D02*Y20000D01*
X310000Y10000D01*
X312500Y12500D01*
X310000Y130000D02*X320000Y120000D01*
Y105000D01*
X50000Y130000D02*X72500D01*
X70000D02*X82500D01*
X310000D01*
X40000Y20000D02*X50000Y10000D01*
X72500D01*
X67500D02*X82500D01*
X310000D01*
X150000Y60000D02*Y40000D01*
X160000D02*X152500Y47500D01*
Y55000D02*Y47500D01*
X132500Y72500D02*X139750D01*
X150000Y77500D02*X139750D01*
X150000Y85000D02*X147500Y82500D01*
X139750D01*
G54D12*X132500Y20000D02*X137500D01*
G54D11*X135000Y22000D02*X133000Y20000D01*
X137000D01*
X135000D02*Y22000D01*
X137000Y20000D01*
G54D13*X135000Y47000D02*Y20000D01*
G54D12*X147000D02*X157000Y30000D01*
X182500Y57500D02*X207500Y32500D01*
X185000Y62500D02*X210000Y37500D01*
X187500Y67500D02*X212500Y42500D01*
X219800Y67500D02*X220000Y67300D01*
X172500Y62500D02*X185000D01*
X172500Y67500D02*X187500D01*
X160250Y72500D02*X195800D01*
X172500Y77500D02*X197500D01*
X207500Y67500D01*
X212500Y42500D02*X227500D01*
X195800Y72500D02*X210100Y58200D01*
X207500Y67500D02*X219800D01*
X239600Y58200D02*Y49600D01*
X259300Y67300D02*Y44300D01*
X252500Y37500D01*
X269200Y58200D02*Y41700D01*
X260000Y32500D01*
X239600Y49600D02*X232500Y42500D01*
X225000D01*
X210000Y37500D02*X252500D01*
X260000Y32500D02*X225000D01*
X207500D02*X227500D01*
X157000Y30000D02*X196000D01*
X206000Y20000D01*
X287000Y93000D02*Y26000D01*
X281000Y20000D01*
X206000D02*X281000D01*
G54D11*X140000Y100000D02*X147500Y92500D01*
Y90000D01*
X145000Y87500D01*
X139750D01*
X164000Y107000D02*X128000D01*
X125000Y104000D01*
X178000Y109000D02*X118000D01*
X125000Y104000D02*X127000Y106000D01*
G54D12*X160250Y87500D02*X187500D01*
X200000Y100000D01*
X172500Y82500D02*X190000D01*
X202500Y95000D01*
X222500D01*
X200000Y100000D02*X247100D01*
X269200Y77900D01*
X222500Y95000D02*X239600Y77900D01*
G54D11*X212815Y113500D02*X212500D01*
X193185D02*X182500D01*
X178000Y109000D01*
G54D12*X271870Y113500D02*X291555D01*
Y97555D01*
X287000Y93000D01*
G54D11*X212500Y113500D02*X203000Y104000D01*
X167000D01*
X164000Y107000D01*
X115000Y106000D02*Y105000D01*
X118000Y109000D02*X115000Y106000D01*
X160000Y100000D02*X152500Y92500D01*
Y80000D01*
X150000Y77500D01*
Y100000D02*Y85000D01*
G54D12*X160250Y82500D02*X175000D01*
X160250Y77500D02*X175000D01*
X160250Y67500D02*X175000D01*
X160250Y62500D02*X175000D01*
X160250Y57500D02*X182500D01*
G54D11*X117000Y82000D02*Y75000D01*
X116500Y67500D02*X120000Y71000D01*
Y83000D01*
X120500Y62500D02*X125000Y67000D01*
Y104000D01*
X120000Y82000D02*Y89000D01*
X115000Y94000D01*
Y106000D01*
X147500Y62500D02*X150000Y60000D01*
X139750Y67500D02*X150000D01*
X152500Y65000D01*
Y50000D01*
X148750Y61250D02*X150000Y60000D01*
X139750Y57500D02*X145000D01*
X147500Y55000D01*
X139750Y62500D02*X147500D01*
X109250Y72500D02*X114500D01*
X109250Y67500D02*X116500D01*
X109250Y62500D02*X120500D01*
X140000Y40000D02*X147500Y47500D01*
Y55000D01*
X130000Y40000D02*Y70000D01*
X132500Y72500D01*
G54D13*X139750Y52500D02*X134500D01*
X133000Y51000D01*
Y49000D01*
X135000Y47000D01*
G54D12*X80000Y30000D02*Y25000D01*
X85000Y20000D01*
G54D11*X62000Y31000D02*X65000Y34000D01*
G54D12*X70000Y40000D02*X79500D01*
X80000Y40500D01*
Y40000D02*Y28500D01*
G54D11*X50000Y34000D02*X53000Y31000D01*
X62000D01*
G54D12*X85000Y20000D02*X147000D01*
G54D11*X90000Y40000D02*Y45000D01*
X50000Y40000D02*Y34000D01*
X65000D02*Y43500D01*
X64500Y72500D02*X63000Y71000D01*
Y53000D01*
X65000Y40000D02*Y46000D01*
X68000Y52000D02*X65000Y49000D01*
Y44000D01*
X63000Y53000D02*X60000Y50000D01*
Y40000D01*
X50750Y67500D02*X56500D01*
X59000Y70000D01*
X52500Y72500D02*X58500D01*
X59000Y72000D01*
X58000Y72500D02*X58500D01*
X71250D02*X88750D01*
X103000Y85000D02*Y62000D01*
X109250Y57500D02*X104500D01*
X103000Y59000D01*
Y63000D01*
X71000Y72500D02*X64500D01*
X80000Y92000D02*X67000D01*
X78000D02*X101000D01*
X67000D02*X59000Y84000D01*
Y75000D01*
X114500Y72500D02*X117000Y75000D01*
X50750Y62500D02*X45500D01*
X44000Y64000D01*
Y76000D01*
X60000Y92000D01*
Y100000D01*
X59000Y70000D02*Y77000D01*
X58500Y72500D02*X59000Y73000D01*
X88750Y57500D02*X81500D01*
X76000Y52000D01*
X68000D01*
X90000Y45000D02*X96000Y51000D01*
Y59000D01*
X100000Y40000D02*Y64000D01*
X94500Y62500D02*X96000Y61000D01*
Y58000D01*
X71250Y67500D02*X98500D01*
X100000Y66000D01*
Y63000D01*
X71250Y62500D02*X94500D01*
X80000Y100000D02*Y92000D01*
X79000D02*X80000Y93000D01*
X81000Y92000D01*
X100000D02*X111000D01*
X113000Y90000D01*
Y85000D01*
X114000D01*
X117000Y82000D01*
G54D14*G36*
X47000Y43000D02*Y37000D01*
X53000D01*
Y43000D01*
X47000D01*
G37*
G54D15*X60000Y40000D03*
X70000D03*
X80000D03*
X90000D03*
X100000D03*
X110000D03*
X120000D03*
G54D14*G36*
X47000Y103000D02*Y97000D01*
X53000D01*
Y103000D01*
X47000D01*
G37*
G54D15*X60000Y100000D03*
X70000D03*
X80000D03*
X90000D03*
X100000D03*
X110000D03*
X120000D03*
X130000D03*
X140000D03*
X150000D03*
X160000D03*
G54D16*X103000Y85000D03*
X113000D03*
G54D15*X130000Y40000D03*
X140000D03*
X150000D03*
X160000D03*
G54D17*X210100Y58200D03*
X220000Y67300D03*
X210100Y77900D03*
X220000Y20000D03*
X239600Y77900D03*
Y58200D03*
X259300Y67300D03*
Y20000D03*
X269200Y77900D03*
G54D14*G36*
X264700Y62700D02*Y53700D01*
X273700D01*
Y62700D01*
X264700D01*
G37*
G36*
X105000Y58500D02*Y56500D01*
X113500D01*
Y58500D01*
X105000D01*
G37*
G36*
Y63500D02*Y61500D01*
X113500D01*
Y63500D01*
X105000D01*
G37*
G36*
Y68500D02*Y66500D01*
X113500D01*
Y68500D01*
X105000D01*
G37*
G36*
X84500Y73500D02*Y71500D01*
X93000D01*
Y73500D01*
X84500D01*
G37*
G36*
Y68500D02*Y66500D01*
X93000D01*
Y68500D01*
X84500D01*
G37*
G36*
Y63500D02*Y61500D01*
X93000D01*
Y63500D01*
X84500D01*
G37*
G36*
Y58500D02*Y56500D01*
X93000D01*
Y58500D01*
X84500D01*
G37*
G36*
X105000Y73500D02*Y71500D01*
X113500D01*
Y73500D01*
X105000D01*
G37*
G36*
X135500D02*Y71500D01*
X144000D01*
Y73500D01*
X135500D01*
G37*
G36*
Y68500D02*Y66500D01*
X144000D01*
Y68500D01*
X135500D01*
G37*
G36*
Y63500D02*Y61500D01*
X144000D01*
Y63500D01*
X135500D01*
G37*
G36*
Y58500D02*Y56500D01*
X144000D01*
Y58500D01*
X135500D01*
G37*
G36*
Y88500D02*Y86500D01*
X144000D01*
Y88500D01*
X135500D01*
G37*
G36*
Y83500D02*Y81500D01*
X144000D01*
Y83500D01*
X135500D01*
G37*
G36*
Y78500D02*Y76500D01*
X144000D01*
Y78500D01*
X135500D01*
G37*
G36*
Y53500D02*Y51500D01*
X144000D01*
Y53500D01*
X135500D01*
G37*
G36*
X156000D02*Y51500D01*
X164500D01*
Y53500D01*
X156000D01*
G37*
G36*
Y58500D02*Y56500D01*
X164500D01*
Y58500D01*
X156000D01*
G37*
G36*
Y63500D02*Y61500D01*
X164500D01*
Y63500D01*
X156000D01*
G37*
G36*
Y68500D02*Y66500D01*
X164500D01*
Y68500D01*
X156000D01*
G37*
G36*
Y73500D02*Y71500D01*
X164500D01*
Y73500D01*
X156000D01*
G37*
G36*
Y78500D02*Y76500D01*
X164500D01*
Y78500D01*
X156000D01*
G37*
G36*
Y83500D02*Y81500D01*
X164500D01*
Y83500D01*
X156000D01*
G37*
G36*
Y88500D02*Y86500D01*
X164500D01*
Y88500D01*
X156000D01*
G37*
G36*
X46500Y73500D02*Y71500D01*
X55000D01*
Y73500D01*
X46500D01*
G37*
G36*
Y68500D02*Y66500D01*
X55000D01*
Y68500D01*
X46500D01*
G37*
G36*
Y63500D02*Y61500D01*
X55000D01*
Y63500D01*
X46500D01*
G37*
G36*
X67000D02*Y61500D01*
X75500D01*
Y63500D01*
X67000D01*
G37*
G36*
X46500Y58500D02*Y56500D01*
X55000D01*
Y58500D01*
X46500D01*
G37*
G36*
X67000D02*Y56500D01*
X75500D01*
Y58500D01*
X67000D01*
G37*
G36*
Y68500D02*Y66500D01*
X75500D01*
Y68500D01*
X67000D01*
G37*
G36*
Y73500D02*Y71500D01*
X75500D01*
Y73500D01*
X67000D01*
G37*
G54D18*X167500Y120000D03*
G54D19*X212815Y113500D03*
X232500D03*
X193185D03*
G54D18*X167500Y20000D03*
X60000D03*
Y120000D03*
X300000Y20000D03*
Y80000D03*
G54D19*X252185Y113500D03*
X271870D03*
X291555D03*
G54D20*G54D21*G54D20*G54D21*G54D22*G54D23*G54D22*G54D15*M02*
