G04 start of page 12 for group -3984 idx -3984 *
G04 Title: (unknown), fab *
G04 Creator: pcb v4.3.0-g9dea9f5a *
G04 CreationDate: Fri Oct 27 19:37:28 2023 UTC *
G04 For: steve *
G04 Format: Gerber/RS-274X *
G04 PCB-Dimensions (mil): 3200.00 1400.00 *
G04 PCB-Coordinate-Origin: lower left *
%MOIN*%
%FSLAX25Y25*%
%LNFAB*%
%ADD68C,0.0075*%
%ADD67C,0.0060*%
%ADD66C,0.0080*%
%ADD65C,0.0100*%
G54D65*X40000Y22500D02*Y110000D01*
Y100000D01*
Y20000D02*Y27500D01*
Y105000D02*Y120000D01*
X50000Y130000D01*
X40000Y25000D02*Y20000D01*
X320000Y110000D02*Y20000D01*
X310000Y10000D01*
X312500Y12500D01*
X310000Y130000D02*X320000Y120000D01*
Y105000D01*
X50000Y130000D02*X72500D01*
X70000D02*X82500D01*
X310000D01*
X40000Y20000D02*X50000Y10000D01*
X72500D01*
X67500D02*X82500D01*
X310000D01*
G54D66*X165900Y21600D02*X169100D01*
X165900D02*Y18400D01*
X169100D01*
Y21600D02*Y18400D01*
X165900Y121600D02*X169100D01*
X165900D02*Y118400D01*
X169100D01*
Y121600D02*Y118400D01*
X298400Y21600D02*X301600D01*
X298400D02*Y18400D01*
X301600D01*
Y21600D02*Y18400D01*
X298400Y81600D02*X301600D01*
X298400D02*Y78400D01*
X301600D01*
Y81600D02*Y78400D01*
X58400Y21600D02*X61600D01*
X58400D02*Y18400D01*
X61600D01*
Y21600D02*Y18400D01*
X58400Y121600D02*X61600D01*
X58400D02*Y118400D01*
X61600D01*
Y121600D02*Y118400D01*
X13400Y152850D02*X16600D01*
X13400D02*Y149650D01*
X16600D01*
Y152850D02*Y149650D01*
G54D67*X135000Y153500D02*X136500Y150500D01*
X138000Y153500D01*
X136500Y150500D02*Y147500D01*
X139800Y150800D02*X142050D01*
X139800Y147500D02*X142800D01*
X139800Y153500D02*Y147500D01*
Y153500D02*X142800D01*
X147600D02*X148350Y152750D01*
X145350Y153500D02*X147600D01*
X144600Y152750D02*X145350Y153500D01*
X144600Y152750D02*Y151250D01*
X145350Y150500D01*
X147600D01*
X148350Y149750D01*
Y148250D01*
X147600Y147500D02*X148350Y148250D01*
X145350Y147500D02*X147600D01*
X144600Y148250D02*X145350Y147500D01*
X100250Y153500D02*X101000Y152750D01*
X98750Y153500D02*X100250D01*
X98000Y152750D02*X98750Y153500D01*
X98000Y152750D02*Y148250D01*
X98750Y147500D01*
X100250Y150800D02*X101000Y150050D01*
X98000Y150800D02*X100250D01*
X98750Y147500D02*X100250D01*
X101000Y148250D01*
Y150050D02*Y148250D01*
X45000D02*X45750Y147500D01*
X45000Y152750D02*Y148250D01*
Y152750D02*X45750Y153500D01*
X47250D01*
X48000Y152750D01*
Y148250D01*
X47250Y147500D02*X48000Y148250D01*
X45750Y147500D02*X47250D01*
X45000Y149000D02*X48000Y152000D01*
X49800Y147500D02*X50550D01*
X52350Y152300D02*X53550Y153500D01*
Y147500D01*
X52350D02*X54600D01*
X56400Y152750D02*X57150Y153500D01*
X58650D01*
X59400Y152750D01*
X58650Y147500D02*X59400Y148250D01*
X57150Y147500D02*X58650D01*
X56400Y148250D02*X57150Y147500D01*
Y150800D02*X58650D01*
X59400Y152750D02*Y151550D01*
Y150050D02*Y148250D01*
Y150050D02*X58650Y150800D01*
X59400Y151550D02*X58650Y150800D01*
X61200Y148250D02*X61950Y147500D01*
X61200Y152750D02*Y148250D01*
Y152750D02*X61950Y153500D01*
X63450D01*
X64200Y152750D01*
Y148250D01*
X63450Y147500D02*X64200Y148250D01*
X61950Y147500D02*X63450D01*
X61200Y149000D02*X64200Y152000D01*
X209300Y58200D02*G75*G03X210900Y58200I800J0D01*G01*
G75*G03X209300Y58200I-800J0D01*G01*
X219200Y67300D02*G75*G03X220800Y67300I800J0D01*G01*
G75*G03X219200Y67300I-800J0D01*G01*
X209300Y77900D02*G75*G03X210900Y77900I800J0D01*G01*
G75*G03X209300Y77900I-800J0D01*G01*
X238800D02*G75*G03X240400Y77900I800J0D01*G01*
G75*G03X238800Y77900I-800J0D01*G01*
Y58200D02*G75*G03X240400Y58200I800J0D01*G01*
G75*G03X238800Y58200I-800J0D01*G01*
X258500Y67300D02*G75*G03X260100Y67300I800J0D01*G01*
G75*G03X258500Y67300I-800J0D01*G01*
X268400Y77900D02*G75*G03X270000Y77900I800J0D01*G01*
G75*G03X268400Y77900I-800J0D01*G01*
Y58200D02*G75*G03X270000Y58200I800J0D01*G01*
G75*G03X268400Y58200I-800J0D01*G01*
X219200Y20000D02*G75*G03X220800Y20000I800J0D01*G01*
G75*G03X219200Y20000I-800J0D01*G01*
X258500D02*G75*G03X260100Y20000I800J0D01*G01*
G75*G03X258500Y20000I-800J0D01*G01*
X14200Y166250D02*G75*G03X15800Y166250I800J0D01*G01*
G75*G03X14200Y166250I-800J0D01*G01*
X135000Y168500D02*X136500Y165500D01*
X138000Y168500D01*
X136500Y165500D02*Y162500D01*
X139800Y165800D02*X142050D01*
X139800Y162500D02*X142800D01*
X139800Y168500D02*Y162500D01*
Y168500D02*X142800D01*
X147600D02*X148350Y167750D01*
X145350Y168500D02*X147600D01*
X144600Y167750D02*X145350Y168500D01*
X144600Y167750D02*Y166250D01*
X145350Y165500D01*
X147600D01*
X148350Y164750D01*
Y163250D01*
X147600Y162500D02*X148350Y163250D01*
X145350Y162500D02*X147600D01*
X144600Y163250D02*X145350Y162500D01*
X98000Y167300D02*X99200Y168500D01*
Y162500D01*
X98000D02*X100250D01*
X102050Y163250D02*X102800Y162500D01*
X102050Y167750D02*Y163250D01*
Y167750D02*X102800Y168500D01*
X104300D01*
X105050Y167750D01*
Y163250D01*
X104300Y162500D02*X105050Y163250D01*
X102800Y162500D02*X104300D01*
X102050Y164000D02*X105050Y167000D01*
X45000Y163250D02*X45750Y162500D01*
X45000Y167750D02*Y163250D01*
Y167750D02*X45750Y168500D01*
X47250D01*
X48000Y167750D01*
Y163250D01*
X47250Y162500D02*X48000Y163250D01*
X45750Y162500D02*X47250D01*
X45000Y164000D02*X48000Y167000D01*
X49800Y162500D02*X50550D01*
X52350Y163250D02*X53100Y162500D01*
X52350Y167750D02*Y163250D01*
Y167750D02*X53100Y168500D01*
X54600D01*
X55350Y167750D01*
Y163250D01*
X54600Y162500D02*X55350Y163250D01*
X53100Y162500D02*X54600D01*
X52350Y164000D02*X55350Y167000D01*
X59400Y168500D02*X60150Y167750D01*
X57900Y168500D02*X59400D01*
X57150Y167750D02*X57900Y168500D01*
X57150Y167750D02*Y163250D01*
X57900Y162500D01*
X59400Y165800D02*X60150Y165050D01*
X57150Y165800D02*X59400D01*
X57900Y162500D02*X59400D01*
X60150Y163250D01*
Y165050D02*Y163250D01*
X61950D02*X62700Y162500D01*
X61950Y167750D02*Y163250D01*
Y167750D02*X62700Y168500D01*
X64200D01*
X64950Y167750D01*
Y163250D01*
X64200Y162500D02*X64950Y163250D01*
X62700Y162500D02*X64200D01*
X61950Y164000D02*X64950Y167000D01*
X211615Y114700D02*X214015Y112300D01*
X211615D02*X214015Y114700D01*
X231300D02*X233700Y112300D01*
X231300D02*X233700Y114700D01*
X250985D02*X253385Y112300D01*
X250985D02*X253385Y114700D01*
X191985D02*X194385Y112300D01*
X191985D02*X194385Y114700D01*
X270670D02*X273070Y112300D01*
X270670D02*X273070Y114700D01*
X290355D02*X292755Y112300D01*
X290355D02*X292755Y114700D01*
X13800Y182450D02*X16200Y180050D01*
X13800D02*X16200Y182450D01*
X135000Y183500D02*X136500Y180500D01*
X138000Y183500D01*
X136500Y180500D02*Y177500D01*
X139800Y180800D02*X142050D01*
X139800Y177500D02*X142800D01*
X139800Y183500D02*Y177500D01*
Y183500D02*X142800D01*
X147600D02*X148350Y182750D01*
X145350Y183500D02*X147600D01*
X144600Y182750D02*X145350Y183500D01*
X144600Y182750D02*Y181250D01*
X145350Y180500D01*
X147600D01*
X148350Y179750D01*
Y178250D01*
X147600Y177500D02*X148350Y178250D01*
X145350Y177500D02*X147600D01*
X144600Y178250D02*X145350Y177500D01*
X100250Y183500D02*X101000Y182750D01*
X98750Y183500D02*X100250D01*
X98000Y182750D02*X98750Y183500D01*
X98000Y182750D02*Y178250D01*
X98750Y177500D01*
X100250Y180800D02*X101000Y180050D01*
X98000Y180800D02*X100250D01*
X98750Y177500D02*X100250D01*
X101000Y178250D01*
Y180050D02*Y178250D01*
X45000D02*X45750Y177500D01*
X45000Y182750D02*Y178250D01*
Y182750D02*X45750Y183500D01*
X47250D01*
X48000Y182750D01*
Y178250D01*
X47250Y177500D02*X48000Y178250D01*
X45750Y177500D02*X47250D01*
X45000Y179000D02*X48000Y182000D01*
X49800Y177500D02*X50550D01*
X52350Y178250D02*X53100Y177500D01*
X52350Y182750D02*Y178250D01*
Y182750D02*X53100Y183500D01*
X54600D01*
X55350Y182750D01*
Y178250D01*
X54600Y177500D02*X55350Y178250D01*
X53100Y177500D02*X54600D01*
X52350Y179000D02*X55350Y182000D01*
X57150Y183500D02*X60150D01*
X57150D02*Y180500D01*
X57900Y181250D01*
X59400D01*
X60150Y180500D01*
Y178250D01*
X59400Y177500D02*X60150Y178250D01*
X57900Y177500D02*X59400D01*
X57150Y178250D02*X57900Y177500D01*
X61950Y178250D02*X62700Y177500D01*
X61950Y182750D02*Y178250D01*
Y182750D02*X62700Y183500D01*
X64200D01*
X64950Y182750D01*
Y178250D01*
X64200Y177500D02*X64950Y178250D01*
X62700Y177500D02*X64200D01*
X61950Y179000D02*X64950Y182000D01*
X50000Y101600D02*Y98400D01*
X48400Y100000D02*X51600D01*
X60000Y101600D02*Y98400D01*
X58400Y100000D02*X61600D01*
X70000Y101600D02*Y98400D01*
X68400Y100000D02*X71600D01*
X80000Y101600D02*Y98400D01*
X78400Y100000D02*X81600D01*
X90000Y101600D02*Y98400D01*
X88400Y100000D02*X91600D01*
X100000Y101600D02*Y98400D01*
X98400Y100000D02*X101600D01*
X110000Y101600D02*Y98400D01*
X108400Y100000D02*X111600D01*
X120000Y101600D02*Y98400D01*
X118400Y100000D02*X121600D01*
X130000Y101600D02*Y98400D01*
X128400Y100000D02*X131600D01*
X140000Y101600D02*Y98400D01*
X138400Y100000D02*X141600D01*
X150000Y101600D02*Y98400D01*
X148400Y100000D02*X151600D01*
X160000Y101600D02*Y98400D01*
X158400Y100000D02*X161600D01*
X50000Y41600D02*Y38400D01*
X48400Y40000D02*X51600D01*
X60000Y41600D02*Y38400D01*
X58400Y40000D02*X61600D01*
X70000Y41600D02*Y38400D01*
X68400Y40000D02*X71600D01*
X80000Y41600D02*Y38400D01*
X78400Y40000D02*X81600D01*
X90000Y41600D02*Y38400D01*
X88400Y40000D02*X91600D01*
X100000Y41600D02*Y38400D01*
X98400Y40000D02*X101600D01*
X110000Y41600D02*Y38400D01*
X108400Y40000D02*X111600D01*
X120000Y41600D02*Y38400D01*
X118400Y40000D02*X121600D01*
X130000Y41600D02*Y38400D01*
X128400Y40000D02*X131600D01*
X140000Y41600D02*Y38400D01*
X138400Y40000D02*X141600D01*
X150000Y41600D02*Y38400D01*
X148400Y40000D02*X151600D01*
X160000Y41600D02*Y38400D01*
X158400Y40000D02*X161600D01*
X15000Y197850D02*Y194650D01*
X13400Y196250D02*X16600D01*
X135000Y198500D02*X136500Y195500D01*
X138000Y198500D01*
X136500Y195500D02*Y192500D01*
X139800Y195800D02*X142050D01*
X139800Y192500D02*X142800D01*
X139800Y198500D02*Y192500D01*
Y198500D02*X142800D01*
X147600D02*X148350Y197750D01*
X145350Y198500D02*X147600D01*
X144600Y197750D02*X145350Y198500D01*
X144600Y197750D02*Y196250D01*
X145350Y195500D01*
X147600D01*
X148350Y194750D01*
Y193250D01*
X147600Y192500D02*X148350Y193250D01*
X145350Y192500D02*X147600D01*
X144600Y193250D02*X145350Y192500D01*
X98000Y197750D02*X98750Y198500D01*
X101000D01*
X101750Y197750D01*
Y196250D01*
X98000Y192500D02*X101750Y196250D01*
X98000Y192500D02*X101750D01*
X103550Y194750D02*X106550Y198500D01*
X103550Y194750D02*X107300D01*
X106550Y198500D02*Y192500D01*
X45000Y193250D02*X45750Y192500D01*
X45000Y197750D02*Y193250D01*
Y197750D02*X45750Y198500D01*
X47250D01*
X48000Y197750D01*
Y193250D01*
X47250Y192500D02*X48000Y193250D01*
X45750Y192500D02*X47250D01*
X45000Y194000D02*X48000Y197000D01*
X49800Y192500D02*X50550D01*
X52350Y193250D02*X53100Y192500D01*
X52350Y197750D02*Y193250D01*
Y197750D02*X53100Y198500D01*
X54600D01*
X55350Y197750D01*
Y193250D01*
X54600Y192500D02*X55350Y193250D01*
X53100Y192500D02*X54600D01*
X52350Y194000D02*X55350Y197000D01*
X57150Y197750D02*X57900Y198500D01*
X59400D01*
X60150Y197750D01*
X59400Y192500D02*X60150Y193250D01*
X57900Y192500D02*X59400D01*
X57150Y193250D02*X57900Y192500D01*
Y195800D02*X59400D01*
X60150Y197750D02*Y196550D01*
Y195050D02*Y193250D01*
Y195050D02*X59400Y195800D01*
X60150Y196550D02*X59400Y195800D01*
X61950Y193250D02*X62700Y192500D01*
X61950Y194450D02*Y193250D01*
Y194450D02*X63000Y195500D01*
X63900D01*
X64950Y194450D01*
Y193250D01*
X64200Y192500D02*X64950Y193250D01*
X62700Y192500D02*X64200D01*
X61950Y196550D02*X63000Y195500D01*
X61950Y197750D02*Y196550D01*
Y197750D02*X62700Y198500D01*
X64200D01*
X64950Y197750D01*
Y196550D01*
X63900Y195500D02*X64950Y196550D01*
X103000Y85000D02*Y83400D01*
Y85000D02*X104387Y85800D01*
X103000Y85000D02*X101613Y85800D01*
X113000Y85000D02*Y83400D01*
Y85000D02*X114387Y85800D01*
X113000Y85000D02*X111613Y85800D01*
X15000Y211250D02*Y209650D01*
Y211250D02*X16387Y212050D01*
X15000Y211250D02*X13613Y212050D01*
X135000Y213500D02*X136500Y210500D01*
X138000Y213500D01*
X136500Y210500D02*Y207500D01*
X139800Y210800D02*X142050D01*
X139800Y207500D02*X142800D01*
X139800Y213500D02*Y207500D01*
Y213500D02*X142800D01*
X147600D02*X148350Y212750D01*
X145350Y213500D02*X147600D01*
X144600Y212750D02*X145350Y213500D01*
X144600Y212750D02*Y211250D01*
X145350Y210500D01*
X147600D01*
X148350Y209750D01*
Y208250D01*
X147600Y207500D02*X148350Y208250D01*
X145350Y207500D02*X147600D01*
X144600Y208250D02*X145350Y207500D01*
X98000Y212750D02*X98750Y213500D01*
X101000D01*
X101750Y212750D01*
Y211250D01*
X98000Y207500D02*X101750Y211250D01*
X98000Y207500D02*X101750D01*
X45000Y208250D02*X45750Y207500D01*
X45000Y212750D02*Y208250D01*
Y212750D02*X45750Y213500D01*
X47250D01*
X48000Y212750D01*
Y208250D01*
X47250Y207500D02*X48000Y208250D01*
X45750Y207500D02*X47250D01*
X45000Y209000D02*X48000Y212000D01*
X49800Y207500D02*X50550D01*
X52350Y208250D02*X53100Y207500D01*
X52350Y212750D02*Y208250D01*
Y212750D02*X53100Y213500D01*
X54600D01*
X55350Y212750D01*
Y208250D01*
X54600Y207500D02*X55350Y208250D01*
X53100Y207500D02*X54600D01*
X52350Y209000D02*X55350Y212000D01*
X57150Y212750D02*X57900Y213500D01*
X59400D01*
X60150Y212750D01*
X59400Y207500D02*X60150Y208250D01*
X57900Y207500D02*X59400D01*
X57150Y208250D02*X57900Y207500D01*
Y210800D02*X59400D01*
X60150Y212750D02*Y211550D01*
Y210050D02*Y208250D01*
Y210050D02*X59400Y210800D01*
X60150Y211550D02*X59400Y210800D01*
X61950Y208250D02*X62700Y207500D01*
X61950Y212750D02*Y208250D01*
Y212750D02*X62700Y213500D01*
X64200D01*
X64950Y212750D01*
Y208250D01*
X64200Y207500D02*X64950Y208250D01*
X62700Y207500D02*X64200D01*
X61950Y209000D02*X64950Y212000D01*
X3000Y228500D02*X3750Y227750D01*
X750Y228500D02*X3000D01*
X0Y227750D02*X750Y228500D01*
X0Y227750D02*Y226250D01*
X750Y225500D01*
X3000D01*
X3750Y224750D01*
Y223250D01*
X3000Y222500D02*X3750Y223250D01*
X750Y222500D02*X3000D01*
X0Y223250D02*X750Y222500D01*
X5550Y225500D02*Y223250D01*
X6300Y222500D01*
X8550Y225500D02*Y221000D01*
X7800Y220250D02*X8550Y221000D01*
X6300Y220250D02*X7800D01*
X5550Y221000D02*X6300Y220250D01*
Y222500D02*X7800D01*
X8550Y223250D01*
X11100Y224750D02*Y222500D01*
Y224750D02*X11850Y225500D01*
X12600D01*
X13350Y224750D01*
Y222500D01*
Y224750D02*X14100Y225500D01*
X14850D01*
X15600Y224750D01*
Y222500D01*
X10350Y225500D02*X11100Y224750D01*
X17400Y228500D02*Y222500D01*
Y223250D02*X18150Y222500D01*
X19650D01*
X20400Y223250D01*
Y224750D02*Y223250D01*
X19650Y225500D02*X20400Y224750D01*
X18150Y225500D02*X19650D01*
X17400Y224750D02*X18150Y225500D01*
X22200Y224750D02*Y223250D01*
Y224750D02*X22950Y225500D01*
X24450D01*
X25200Y224750D01*
Y223250D01*
X24450Y222500D02*X25200Y223250D01*
X22950Y222500D02*X24450D01*
X22200Y223250D02*X22950Y222500D01*
X27000Y228500D02*Y223250D01*
X27750Y222500D01*
X0Y219250D02*X29250D01*
X41750Y228500D02*Y222500D01*
X43700Y228500D02*X44750Y227450D01*
Y223550D01*
X43700Y222500D02*X44750Y223550D01*
X41000Y222500D02*X43700D01*
X41000Y228500D02*X43700D01*
G54D68*X46550Y227000D02*Y226850D01*
G54D67*Y224750D02*Y222500D01*
X50300Y225500D02*X51050Y224750D01*
X48800Y225500D02*X50300D01*
X48050Y224750D02*X48800Y225500D01*
X48050Y224750D02*Y223250D01*
X48800Y222500D01*
X51050Y225500D02*Y223250D01*
X51800Y222500D01*
X48800D02*X50300D01*
X51050Y223250D01*
X54350Y224750D02*Y222500D01*
Y224750D02*X55100Y225500D01*
X55850D01*
X56600Y224750D01*
Y222500D01*
Y224750D02*X57350Y225500D01*
X58100D01*
X58850Y224750D01*
Y222500D01*
X53600Y225500D02*X54350Y224750D01*
X60650Y222500D02*X61400D01*
X65900Y223250D02*X66650Y222500D01*
X65900Y227750D02*X66650Y228500D01*
X65900Y227750D02*Y223250D01*
X68450Y228500D02*X69950D01*
X69200D02*Y222500D01*
X68450D02*X69950D01*
X72500Y224750D02*Y222500D01*
Y224750D02*X73250Y225500D01*
X74000D01*
X74750Y224750D01*
Y222500D01*
X71750Y225500D02*X72500Y224750D01*
X77300Y225500D02*X79550D01*
X76550Y224750D02*X77300Y225500D01*
X76550Y224750D02*Y223250D01*
X77300Y222500D01*
X79550D01*
X81350Y228500D02*Y222500D01*
Y224750D02*X82100Y225500D01*
X83600D01*
X84350Y224750D01*
Y222500D01*
X86150Y228500D02*X86900Y227750D01*
Y223250D01*
X86150Y222500D02*X86900Y223250D01*
X41000Y219250D02*X88700D01*
X96050Y222500D02*X98000D01*
X95000Y223550D02*X96050Y222500D01*
X95000Y227450D02*Y223550D01*
Y227450D02*X96050Y228500D01*
X98000D01*
X99800Y224750D02*Y223250D01*
Y224750D02*X100550Y225500D01*
X102050D01*
X102800Y224750D01*
Y223250D01*
X102050Y222500D02*X102800Y223250D01*
X100550Y222500D02*X102050D01*
X99800Y223250D02*X100550Y222500D01*
X104600Y225500D02*Y223250D01*
X105350Y222500D01*
X106850D01*
X107600Y223250D01*
Y225500D02*Y223250D01*
X110150Y224750D02*Y222500D01*
Y224750D02*X110900Y225500D01*
X111650D01*
X112400Y224750D01*
Y222500D01*
X109400Y225500D02*X110150Y224750D01*
X114950Y228500D02*Y223250D01*
X115700Y222500D01*
X114200Y226250D02*X115700D01*
X95000Y219250D02*X117200D01*
X130750Y228500D02*Y222500D01*
X130000Y228500D02*X133000D01*
X133750Y227750D01*
Y226250D01*
X133000Y225500D02*X133750Y226250D01*
X130750Y225500D02*X133000D01*
X135550Y228500D02*Y223250D01*
X136300Y222500D01*
X140050Y225500D02*X140800Y224750D01*
X138550Y225500D02*X140050D01*
X137800Y224750D02*X138550Y225500D01*
X137800Y224750D02*Y223250D01*
X138550Y222500D01*
X140800Y225500D02*Y223250D01*
X141550Y222500D01*
X138550D02*X140050D01*
X140800Y223250D01*
X144100Y228500D02*Y223250D01*
X144850Y222500D01*
X143350Y226250D02*X144850D01*
X147100Y222500D02*X149350D01*
X146350Y223250D02*X147100Y222500D01*
X146350Y224750D02*Y223250D01*
Y224750D02*X147100Y225500D01*
X148600D01*
X149350Y224750D01*
X146350Y224000D02*X149350D01*
Y224750D02*Y224000D01*
X154150Y228500D02*Y222500D01*
X153400D02*X154150Y223250D01*
X151900Y222500D02*X153400D01*
X151150Y223250D02*X151900Y222500D01*
X151150Y224750D02*Y223250D01*
Y224750D02*X151900Y225500D01*
X153400D01*
X154150Y224750D01*
X157450Y225500D02*Y224750D01*
Y223250D02*Y222500D01*
X155950Y227750D02*Y227000D01*
Y227750D02*X156700Y228500D01*
X158200D01*
X158950Y227750D01*
Y227000D01*
X157450Y225500D02*X158950Y227000D01*
X130000Y219250D02*X160750D01*
X0Y243500D02*X3000D01*
X1500D02*Y237500D01*
X4800Y243500D02*Y237500D01*
Y239750D02*X5550Y240500D01*
X7050D01*
X7800Y239750D01*
Y237500D01*
X10350D02*X12600D01*
X9600Y238250D02*X10350Y237500D01*
X9600Y239750D02*Y238250D01*
Y239750D02*X10350Y240500D01*
X11850D01*
X12600Y239750D01*
X9600Y239000D02*X12600D01*
Y239750D02*Y239000D01*
X15150Y239750D02*Y237500D01*
Y239750D02*X15900Y240500D01*
X17400D01*
X14400D02*X15150Y239750D01*
X19950Y237500D02*X22200D01*
X19200Y238250D02*X19950Y237500D01*
X19200Y239750D02*Y238250D01*
Y239750D02*X19950Y240500D01*
X21450D01*
X22200Y239750D01*
X19200Y239000D02*X22200D01*
Y239750D02*Y239000D01*
X28950Y240500D02*X29700Y239750D01*
X27450Y240500D02*X28950D01*
X26700Y239750D02*X27450Y240500D01*
X26700Y239750D02*Y238250D01*
X27450Y237500D01*
X29700Y240500D02*Y238250D01*
X30450Y237500D01*
X27450D02*X28950D01*
X29700Y238250D01*
X33000Y239750D02*Y237500D01*
Y239750D02*X33750Y240500D01*
X35250D01*
X32250D02*X33000Y239750D01*
X37800Y237500D02*X40050D01*
X37050Y238250D02*X37800Y237500D01*
X37050Y239750D02*Y238250D01*
Y239750D02*X37800Y240500D01*
X39300D01*
X40050Y239750D01*
X37050Y239000D02*X40050D01*
Y239750D02*Y239000D01*
X44550Y243500D02*X47550D01*
X44550D02*Y240500D01*
X45300Y241250D01*
X46800D01*
X47550Y240500D01*
Y238250D01*
X46800Y237500D02*X47550Y238250D01*
X45300Y237500D02*X46800D01*
X44550Y238250D02*X45300Y237500D01*
X55050Y243500D02*Y237500D01*
X54300D02*X55050Y238250D01*
X52800Y237500D02*X54300D01*
X52050Y238250D02*X52800Y237500D01*
X52050Y239750D02*Y238250D01*
Y239750D02*X52800Y240500D01*
X54300D01*
X55050Y239750D01*
G54D68*X56850Y242000D02*Y241850D01*
G54D67*Y239750D02*Y237500D01*
X59100Y242750D02*Y237500D01*
Y242750D02*X59850Y243500D01*
X60600D01*
X58350Y240500D02*X59850D01*
X62850Y242750D02*Y237500D01*
Y242750D02*X63600Y243500D01*
X64350D01*
X62100Y240500D02*X63600D01*
X66600Y237500D02*X68850D01*
X65850Y238250D02*X66600Y237500D01*
X65850Y239750D02*Y238250D01*
Y239750D02*X66600Y240500D01*
X68100D01*
X68850Y239750D01*
X65850Y239000D02*X68850D01*
Y239750D02*Y239000D01*
X71400Y239750D02*Y237500D01*
Y239750D02*X72150Y240500D01*
X73650D01*
X70650D02*X71400Y239750D01*
X76200Y237500D02*X78450D01*
X75450Y238250D02*X76200Y237500D01*
X75450Y239750D02*Y238250D01*
Y239750D02*X76200Y240500D01*
X77700D01*
X78450Y239750D01*
X75450Y239000D02*X78450D01*
Y239750D02*Y239000D01*
X81000Y239750D02*Y237500D01*
Y239750D02*X81750Y240500D01*
X82500D01*
X83250Y239750D01*
Y237500D01*
X80250Y240500D02*X81000Y239750D01*
X85800Y243500D02*Y238250D01*
X86550Y237500D01*
X85050Y241250D02*X86550D01*
X93750Y243500D02*Y237500D01*
X93000D02*X93750Y238250D01*
X91500Y237500D02*X93000D01*
X90750Y238250D02*X91500Y237500D01*
X90750Y239750D02*Y238250D01*
Y239750D02*X91500Y240500D01*
X93000D01*
X93750Y239750D01*
X96300D02*Y237500D01*
Y239750D02*X97050Y240500D01*
X98550D01*
X95550D02*X96300Y239750D01*
G54D68*X100350Y242000D02*Y241850D01*
G54D67*Y239750D02*Y237500D01*
X101850Y243500D02*Y238250D01*
X102600Y237500D01*
X104100Y243500D02*Y238250D01*
X104850Y237500D01*
X109800D02*X112050D01*
X112800Y238250D01*
X112050Y239000D02*X112800Y238250D01*
X109800Y239000D02*X112050D01*
X109050Y239750D02*X109800Y239000D01*
X109050Y239750D02*X109800Y240500D01*
X112050D01*
X112800Y239750D01*
X109050Y238250D02*X109800Y237500D01*
G54D68*X114600Y242000D02*Y241850D01*
G54D67*Y239750D02*Y237500D01*
X116100Y240500D02*X119100D01*
X116100Y237500D02*X119100Y240500D01*
X116100Y237500D02*X119100D01*
X121650D02*X123900D01*
X120900Y238250D02*X121650Y237500D01*
X120900Y239750D02*Y238250D01*
Y239750D02*X121650Y240500D01*
X123150D01*
X123900Y239750D01*
X120900Y239000D02*X123900D01*
Y239750D02*Y239000D01*
X126450Y237500D02*X128700D01*
X129450Y238250D01*
X128700Y239000D02*X129450Y238250D01*
X126450Y239000D02*X128700D01*
X125700Y239750D02*X126450Y239000D01*
X125700Y239750D02*X126450Y240500D01*
X128700D01*
X129450Y239750D01*
X125700Y238250D02*X126450Y237500D01*
X133950Y240500D02*Y238250D01*
X134700Y237500D01*
X136200D01*
X136950Y238250D01*
Y240500D02*Y238250D01*
X139500Y237500D02*X141750D01*
X142500Y238250D01*
X141750Y239000D02*X142500Y238250D01*
X139500Y239000D02*X141750D01*
X138750Y239750D02*X139500Y239000D01*
X138750Y239750D02*X139500Y240500D01*
X141750D01*
X142500Y239750D01*
X138750Y238250D02*X139500Y237500D01*
X145050D02*X147300D01*
X144300Y238250D02*X145050Y237500D01*
X144300Y239750D02*Y238250D01*
Y239750D02*X145050Y240500D01*
X146550D01*
X147300Y239750D01*
X144300Y239000D02*X147300D01*
Y239750D02*Y239000D01*
X152100Y243500D02*Y237500D01*
X151350D02*X152100Y238250D01*
X149850Y237500D02*X151350D01*
X149100Y238250D02*X149850Y237500D01*
X149100Y239750D02*Y238250D01*
Y239750D02*X149850Y240500D01*
X151350D01*
X152100Y239750D01*
G54D68*X156600Y242000D02*Y241850D01*
G54D67*Y239750D02*Y237500D01*
X158850Y239750D02*Y237500D01*
Y239750D02*X159600Y240500D01*
X160350D01*
X161100Y239750D01*
Y237500D01*
X158100Y240500D02*X158850Y239750D01*
X166350Y243500D02*Y238250D01*
X167100Y237500D01*
X165600Y241250D02*X167100D01*
X168600Y243500D02*Y237500D01*
Y239750D02*X169350Y240500D01*
X170850D01*
X171600Y239750D01*
Y237500D01*
G54D68*X173400Y242000D02*Y241850D01*
G54D67*Y239750D02*Y237500D01*
X175650D02*X177900D01*
X178650Y238250D01*
X177900Y239000D02*X178650Y238250D01*
X175650Y239000D02*X177900D01*
X174900Y239750D02*X175650Y239000D01*
X174900Y239750D02*X175650Y240500D01*
X177900D01*
X178650Y239750D01*
X174900Y238250D02*X175650Y237500D01*
X183150Y243500D02*Y238250D01*
X183900Y237500D01*
X187650Y240500D02*X188400Y239750D01*
X186150Y240500D02*X187650D01*
X185400Y239750D02*X186150Y240500D01*
X185400Y239750D02*Y238250D01*
X186150Y237500D01*
X188400Y240500D02*Y238250D01*
X189150Y237500D01*
X186150D02*X187650D01*
X188400Y238250D01*
X190950Y240500D02*Y238250D01*
X191700Y237500D01*
X193950Y240500D02*Y236000D01*
X193200Y235250D02*X193950Y236000D01*
X191700Y235250D02*X193200D01*
X190950Y236000D02*X191700Y235250D01*
Y237500D02*X193200D01*
X193950Y238250D01*
X195750Y239750D02*Y238250D01*
Y239750D02*X196500Y240500D01*
X198000D01*
X198750Y239750D01*
Y238250D01*
X198000Y237500D02*X198750Y238250D01*
X196500Y237500D02*X198000D01*
X195750Y238250D02*X196500Y237500D01*
X200550Y240500D02*Y238250D01*
X201300Y237500D01*
X202800D01*
X203550Y238250D01*
Y240500D02*Y238250D01*
X206100Y243500D02*Y238250D01*
X206850Y237500D01*
X205350Y241250D02*X206850D01*
X208350Y236000D02*X209850Y237500D01*
X214350Y239750D02*X217350Y243500D01*
X214350Y239750D02*X218100D01*
X217350Y243500D02*Y237500D01*
X219900Y238250D02*X220650Y237500D01*
X219900Y239450D02*Y238250D01*
Y239450D02*X220950Y240500D01*
X221850D01*
X222900Y239450D01*
Y238250D01*
X222150Y237500D02*X222900Y238250D01*
X220650Y237500D02*X222150D01*
X219900Y241550D02*X220950Y240500D01*
X219900Y242750D02*Y241550D01*
Y242750D02*X220650Y243500D01*
X222150D01*
X222900Y242750D01*
Y241550D01*
X221850Y240500D02*X222900Y241550D01*
X227400Y243500D02*Y237500D01*
Y239750D02*X228150Y240500D01*
X229650D01*
X230400Y239750D01*
Y237500D01*
X232200Y239750D02*Y238250D01*
Y239750D02*X232950Y240500D01*
X234450D01*
X235200Y239750D01*
Y238250D01*
X234450Y237500D02*X235200Y238250D01*
X232950Y237500D02*X234450D01*
X232200Y238250D02*X232950Y237500D01*
X237000Y243500D02*Y238250D01*
X237750Y237500D01*
X240000D02*X242250D01*
X239250Y238250D02*X240000Y237500D01*
X239250Y239750D02*Y238250D01*
Y239750D02*X240000Y240500D01*
X241500D01*
X242250Y239750D01*
X239250Y239000D02*X242250D01*
Y239750D02*Y239000D01*
X244800Y237500D02*X247050D01*
X247800Y238250D01*
X247050Y239000D02*X247800Y238250D01*
X244800Y239000D02*X247050D01*
X244050Y239750D02*X244800Y239000D01*
X244050Y239750D02*X244800Y240500D01*
X247050D01*
X247800Y239750D01*
X244050Y238250D02*X244800Y237500D01*
X253050Y243500D02*Y238250D01*
X253800Y237500D01*
X252300Y241250D02*X253800D01*
X255300Y239750D02*Y238250D01*
Y239750D02*X256050Y240500D01*
X257550D01*
X258300Y239750D01*
Y238250D01*
X257550Y237500D02*X258300Y238250D01*
X256050Y237500D02*X257550D01*
X255300Y238250D02*X256050Y237500D01*
X260850Y243500D02*Y238250D01*
X261600Y237500D01*
X260100Y241250D02*X261600D01*
X265350Y240500D02*X266100Y239750D01*
X263850Y240500D02*X265350D01*
X263100Y239750D02*X263850Y240500D01*
X263100Y239750D02*Y238250D01*
X263850Y237500D01*
X266100Y240500D02*Y238250D01*
X266850Y237500D01*
X263850D02*X265350D01*
X266100Y238250D01*
X268650Y243500D02*Y238250D01*
X269400Y237500D01*
G54D65*X320000Y110000D02*Y20000D01*
X310000Y10000D01*
X40000Y22500D02*Y110000D01*
Y100000D01*
Y20000D02*Y27500D01*
Y105000D02*Y120000D01*
X50000Y130000D01*
X72500D01*
X40000Y25000D02*Y20000D01*
X50000Y10000D01*
X72500D01*
X67500D02*X82500D01*
X310000D01*
X312500Y12500D01*
X70000Y130000D02*X82500D01*
X310000D01*
X320000Y120000D01*
Y105000D01*
G54D67*X73675Y-9500D02*X76675D01*
X77425Y-8750D01*
Y-6950D02*Y-8750D01*
X76675Y-6200D02*X77425Y-6950D01*
X74425Y-6200D02*X76675D01*
X74425Y-3500D02*Y-9500D01*
X73675Y-3500D02*X76675D01*
X77425Y-4250D01*
Y-5450D01*
X76675Y-6200D02*X77425Y-5450D01*
X79225Y-7250D02*Y-8750D01*
Y-7250D02*X79975Y-6500D01*
X81475D01*
X82225Y-7250D01*
Y-8750D01*
X81475Y-9500D02*X82225Y-8750D01*
X79975Y-9500D02*X81475D01*
X79225Y-8750D02*X79975Y-9500D01*
X86275Y-6500D02*X87025Y-7250D01*
X84775Y-6500D02*X86275D01*
X84025Y-7250D02*X84775Y-6500D01*
X84025Y-7250D02*Y-8750D01*
X84775Y-9500D01*
X87025Y-6500D02*Y-8750D01*
X87775Y-9500D01*
X84775D02*X86275D01*
X87025Y-8750D01*
X90325Y-7250D02*Y-9500D01*
Y-7250D02*X91075Y-6500D01*
X92575D01*
X89575D02*X90325Y-7250D01*
X97375Y-3500D02*Y-9500D01*
X96625D02*X97375Y-8750D01*
X95125Y-9500D02*X96625D01*
X94375Y-8750D02*X95125Y-9500D01*
X94375Y-7250D02*Y-8750D01*
Y-7250D02*X95125Y-6500D01*
X96625D01*
X97375Y-7250D01*
X101875D02*Y-8750D01*
Y-7250D02*X102625Y-6500D01*
X104125D01*
X104875Y-7250D01*
Y-8750D01*
X104125Y-9500D02*X104875Y-8750D01*
X102625Y-9500D02*X104125D01*
X101875Y-8750D02*X102625Y-9500D01*
X106675Y-6500D02*Y-8750D01*
X107425Y-9500D01*
X108925D01*
X109675Y-8750D01*
Y-6500D02*Y-8750D01*
X112225Y-3500D02*Y-8750D01*
X112975Y-9500D01*
X111475Y-5750D02*X112975D01*
X114475Y-3500D02*Y-8750D01*
X115225Y-9500D01*
G54D68*X116725Y-5000D02*Y-5150D01*
G54D67*Y-7250D02*Y-9500D01*
X118975Y-7250D02*Y-9500D01*
Y-7250D02*X119725Y-6500D01*
X120475D01*
X121225Y-7250D01*
Y-9500D01*
X118225Y-6500D02*X118975Y-7250D01*
X123775Y-9500D02*X126025D01*
X123025Y-8750D02*X123775Y-9500D01*
X123025Y-7250D02*Y-8750D01*
Y-7250D02*X123775Y-6500D01*
X125275D01*
X126025Y-7250D01*
X123025Y-8000D02*X126025D01*
Y-7250D02*Y-8000D01*
G54D68*X130525Y-5000D02*Y-5150D01*
G54D67*Y-7250D02*Y-9500D01*
X132775D02*X135025D01*
X135775Y-8750D01*
X135025Y-8000D02*X135775Y-8750D01*
X132775Y-8000D02*X135025D01*
X132025Y-7250D02*X132775Y-8000D01*
X132025Y-7250D02*X132775Y-6500D01*
X135025D01*
X135775Y-7250D01*
X132025Y-8750D02*X132775Y-9500D01*
X141025Y-3500D02*Y-8750D01*
X141775Y-9500D01*
X140275Y-5750D02*X141775D01*
X143275Y-3500D02*Y-9500D01*
Y-7250D02*X144025Y-6500D01*
X145525D01*
X146275Y-7250D01*
Y-9500D01*
X148825D02*X151075D01*
X148075Y-8750D02*X148825Y-9500D01*
X148075Y-7250D02*Y-8750D01*
Y-7250D02*X148825Y-6500D01*
X150325D01*
X151075Y-7250D01*
X148075Y-8000D02*X151075D01*
Y-7250D02*Y-8000D01*
X156325Y-6500D02*X158575D01*
X155575Y-7250D02*X156325Y-6500D01*
X155575Y-7250D02*Y-8750D01*
X156325Y-9500D01*
X158575D01*
X161125D02*X163375D01*
X160375Y-8750D02*X161125Y-9500D01*
X160375Y-7250D02*Y-8750D01*
Y-7250D02*X161125Y-6500D01*
X162625D01*
X163375Y-7250D01*
X160375Y-8000D02*X163375D01*
Y-7250D02*Y-8000D01*
X165925Y-7250D02*Y-9500D01*
Y-7250D02*X166675Y-6500D01*
X167425D01*
X168175Y-7250D01*
Y-9500D01*
X165175Y-6500D02*X165925Y-7250D01*
X170725Y-3500D02*Y-8750D01*
X171475Y-9500D01*
X169975Y-5750D02*X171475D01*
X173725Y-9500D02*X175975D01*
X172975Y-8750D02*X173725Y-9500D01*
X172975Y-7250D02*Y-8750D01*
Y-7250D02*X173725Y-6500D01*
X175225D01*
X175975Y-7250D01*
X172975Y-8000D02*X175975D01*
Y-7250D02*Y-8000D01*
X178525Y-7250D02*Y-9500D01*
Y-7250D02*X179275Y-6500D01*
X180775D01*
X177775D02*X178525Y-7250D01*
X182575Y-3500D02*Y-8750D01*
X183325Y-9500D01*
G54D68*X184825Y-5000D02*Y-5150D01*
G54D67*Y-7250D02*Y-9500D01*
X187075Y-7250D02*Y-9500D01*
Y-7250D02*X187825Y-6500D01*
X188575D01*
X189325Y-7250D01*
Y-9500D01*
X186325Y-6500D02*X187075Y-7250D01*
X191875Y-9500D02*X194125D01*
X191125Y-8750D02*X191875Y-9500D01*
X191125Y-7250D02*Y-8750D01*
Y-7250D02*X191875Y-6500D01*
X193375D01*
X194125Y-7250D01*
X191125Y-8000D02*X194125D01*
Y-7250D02*Y-8000D01*
X198625Y-7250D02*Y-8750D01*
Y-7250D02*X199375Y-6500D01*
X200875D01*
X201625Y-7250D01*
Y-8750D01*
X200875Y-9500D02*X201625Y-8750D01*
X199375Y-9500D02*X200875D01*
X198625Y-8750D02*X199375Y-9500D01*
X204175Y-4250D02*Y-9500D01*
Y-4250D02*X204925Y-3500D01*
X205675D01*
X203425Y-6500D02*X204925D01*
X210625Y-3500D02*Y-8750D01*
X211375Y-9500D01*
X209875Y-5750D02*X211375D01*
X212875Y-3500D02*Y-9500D01*
Y-7250D02*X213625Y-6500D01*
X215125D01*
X215875Y-7250D01*
Y-9500D01*
G54D68*X217675Y-5000D02*Y-5150D01*
G54D67*Y-7250D02*Y-9500D01*
X219925D02*X222175D01*
X222925Y-8750D01*
X222175Y-8000D02*X222925Y-8750D01*
X219925Y-8000D02*X222175D01*
X219175Y-7250D02*X219925Y-8000D01*
X219175Y-7250D02*X219925Y-6500D01*
X222175D01*
X222925Y-7250D01*
X219175Y-8750D02*X219925Y-9500D01*
X228175Y-7250D02*Y-11750D01*
X227425Y-6500D02*X228175Y-7250D01*
X228925Y-6500D01*
X230425D01*
X231175Y-7250D01*
Y-8750D01*
X230425Y-9500D02*X231175Y-8750D01*
X228925Y-9500D02*X230425D01*
X228175Y-8750D02*X228925Y-9500D01*
X235225Y-6500D02*X235975Y-7250D01*
X233725Y-6500D02*X235225D01*
X232975Y-7250D02*X233725Y-6500D01*
X232975Y-7250D02*Y-8750D01*
X233725Y-9500D01*
X235975Y-6500D02*Y-8750D01*
X236725Y-9500D01*
X233725D02*X235225D01*
X235975Y-8750D01*
X239275Y-3500D02*Y-8750D01*
X240025Y-9500D01*
X238525Y-5750D02*X240025D01*
X241525Y-3500D02*Y-9500D01*
Y-7250D02*X242275Y-6500D01*
X243775D01*
X244525Y-7250D01*
Y-9500D01*
X200750Y168500D02*Y162500D01*
X202700Y168500D02*X203750Y167450D01*
Y163550D01*
X202700Y162500D02*X203750Y163550D01*
X200000Y162500D02*X202700D01*
X200000Y168500D02*X202700D01*
X207800Y165500D02*X208550Y164750D01*
X206300Y165500D02*X207800D01*
X205550Y164750D02*X206300Y165500D01*
X205550Y164750D02*Y163250D01*
X206300Y162500D01*
X208550Y165500D02*Y163250D01*
X209300Y162500D01*
X206300D02*X207800D01*
X208550Y163250D01*
X211850Y168500D02*Y163250D01*
X212600Y162500D01*
X211100Y166250D02*X212600D01*
X214850Y162500D02*X217100D01*
X214100Y163250D02*X214850Y162500D01*
X214100Y164750D02*Y163250D01*
Y164750D02*X214850Y165500D01*
X216350D01*
X217100Y164750D01*
X214100Y164000D02*X217100D01*
Y164750D02*Y164000D01*
X218900Y166250D02*X219650D01*
X218900Y164750D02*X219650D01*
X224150Y168500D02*Y162500D01*
Y168500D02*X227150D01*
X224150Y165800D02*X226400D01*
X229700Y164750D02*Y162500D01*
Y164750D02*X230450Y165500D01*
X231950D01*
X228950D02*X229700Y164750D01*
G54D68*X233750Y167000D02*Y166850D01*
G54D67*Y164750D02*Y162500D01*
X237950Y167750D02*Y163250D01*
Y167750D02*X238700Y168500D01*
X240200D01*
X240950Y167750D01*
Y163250D01*
X240200Y162500D02*X240950Y163250D01*
X238700Y162500D02*X240200D01*
X237950Y163250D02*X238700Y162500D01*
X243500Y165500D02*X245750D01*
X242750Y164750D02*X243500Y165500D01*
X242750Y164750D02*Y163250D01*
X243500Y162500D01*
X245750D01*
X248300Y168500D02*Y163250D01*
X249050Y162500D01*
X247550Y166250D02*X249050D01*
X253250Y167750D02*X254000Y168500D01*
X256250D01*
X257000Y167750D01*
Y166250D01*
X253250Y162500D02*X257000Y166250D01*
X253250Y162500D02*X257000D01*
X259550D02*X262550Y168500D01*
X258800D02*X262550D01*
X267050Y167300D02*X268250Y168500D01*
Y162500D01*
X267050D02*X269300D01*
X271850D02*X274100Y165500D01*
Y167750D02*Y165500D01*
X273350Y168500D02*X274100Y167750D01*
X271850Y168500D02*X273350D01*
X271100Y167750D02*X271850Y168500D01*
X271100Y167750D02*Y166250D01*
X271850Y165500D01*
X274100D01*
X275900Y166250D02*X276650D01*
X275900Y164750D02*X276650D01*
X278450Y167750D02*X279200Y168500D01*
X280700D01*
X281450Y167750D01*
X280700Y162500D02*X281450Y163250D01*
X279200Y162500D02*X280700D01*
X278450Y163250D02*X279200Y162500D01*
Y165800D02*X280700D01*
X281450Y167750D02*Y166550D01*
Y165050D02*Y163250D01*
Y165050D02*X280700Y165800D01*
X281450Y166550D02*X280700Y165800D01*
X284000Y162500D02*X287000Y168500D01*
X283250D02*X287000D01*
X288800Y166250D02*X289550D01*
X288800Y164750D02*X289550D01*
X291350Y167750D02*X292100Y168500D01*
X294350D01*
X295100Y167750D01*
Y166250D01*
X291350Y162500D02*X295100Y166250D01*
X291350Y162500D02*X295100D01*
X296900Y163250D02*X297650Y162500D01*
X296900Y164450D02*Y163250D01*
Y164450D02*X297950Y165500D01*
X298850D01*
X299900Y164450D01*
Y163250D01*
X299150Y162500D02*X299900Y163250D01*
X297650Y162500D02*X299150D01*
X296900Y166550D02*X297950Y165500D01*
X296900Y167750D02*Y166550D01*
Y167750D02*X297650Y168500D01*
X299150D01*
X299900Y167750D01*
Y166550D01*
X298850Y165500D02*X299900Y166550D01*
X304400Y167750D02*X305150Y168500D01*
X307400D01*
X308150Y167750D01*
Y166250D01*
X304400Y162500D02*X308150Y166250D01*
X304400Y162500D02*X308150D01*
X309950Y163250D02*X310700Y162500D01*
X309950Y167750D02*Y163250D01*
Y167750D02*X310700Y168500D01*
X312200D01*
X312950Y167750D01*
Y163250D01*
X312200Y162500D02*X312950Y163250D01*
X310700Y162500D02*X312200D01*
X309950Y164000D02*X312950Y167000D01*
X314750Y167750D02*X315500Y168500D01*
X317750D01*
X318500Y167750D01*
Y166250D01*
X314750Y162500D02*X318500Y166250D01*
X314750Y162500D02*X318500D01*
X320300Y167750D02*X321050Y168500D01*
X322550D01*
X323300Y167750D01*
X322550Y162500D02*X323300Y163250D01*
X321050Y162500D02*X322550D01*
X320300Y163250D02*X321050Y162500D01*
Y165800D02*X322550D01*
X323300Y167750D02*Y166550D01*
Y165050D02*Y163250D01*
Y165050D02*X322550Y165800D01*
X323300Y166550D02*X322550Y165800D01*
X327800Y168500D02*Y163250D01*
X328550Y162500D01*
X330050D01*
X330800Y163250D01*
Y168500D02*Y163250D01*
X332600Y168500D02*X335600D01*
X334100D02*Y162500D01*
X338450D02*X340400D01*
X337400Y163550D02*X338450Y162500D01*
X337400Y167450D02*Y163550D01*
Y167450D02*X338450Y168500D01*
X340400D01*
X200000Y182000D02*Y177500D01*
Y182000D02*X201050Y183500D01*
X202700D01*
X203750Y182000D01*
Y177500D01*
X200000Y180500D02*X203750D01*
X205550D02*Y178250D01*
X206300Y177500D01*
X207800D01*
X208550Y178250D01*
Y180500D02*Y178250D01*
X211100Y183500D02*Y178250D01*
X211850Y177500D01*
X210350Y181250D02*X211850D01*
X213350Y183500D02*Y177500D01*
Y179750D02*X214100Y180500D01*
X215600D01*
X216350Y179750D01*
Y177500D01*
X218150Y179750D02*Y178250D01*
Y179750D02*X218900Y180500D01*
X220400D01*
X221150Y179750D01*
Y178250D01*
X220400Y177500D02*X221150Y178250D01*
X218900Y177500D02*X220400D01*
X218150Y178250D02*X218900Y177500D01*
X223700Y179750D02*Y177500D01*
Y179750D02*X224450Y180500D01*
X225950D01*
X222950D02*X223700Y179750D01*
X227750Y181250D02*X228500D01*
X227750Y179750D02*X228500D01*
X236000Y183500D02*X236750Y182750D01*
X233750Y183500D02*X236000D01*
X233000Y182750D02*X233750Y183500D01*
X233000Y182750D02*Y181250D01*
X233750Y180500D01*
X236000D01*
X236750Y179750D01*
Y178250D01*
X236000Y177500D02*X236750Y178250D01*
X233750Y177500D02*X236000D01*
X233000Y178250D02*X233750Y177500D01*
X239300Y183500D02*Y178250D01*
X240050Y177500D01*
X238550Y181250D02*X240050D01*
X242300Y177500D02*X244550D01*
X241550Y178250D02*X242300Y177500D01*
X241550Y179750D02*Y178250D01*
Y179750D02*X242300Y180500D01*
X243800D01*
X244550Y179750D01*
X241550Y179000D02*X244550D01*
Y179750D02*Y179000D01*
X246350Y180500D02*X247850Y177500D01*
X249350Y180500D02*X247850Y177500D01*
X251900D02*X254150D01*
X251150Y178250D02*X251900Y177500D01*
X251150Y179750D02*Y178250D01*
Y179750D02*X251900Y180500D01*
X253400D01*
X254150Y179750D01*
X251150Y179000D02*X254150D01*
Y179750D02*Y179000D01*
X258650Y183500D02*Y180500D01*
X259400Y177500D01*
X260900Y180500D01*
X262400Y177500D01*
X263150Y180500D01*
Y183500D02*Y180500D01*
G54D68*X264950Y182000D02*Y181850D01*
G54D67*Y179750D02*Y177500D01*
X266450Y183500D02*Y178250D01*
X267200Y177500D01*
X268700Y183500D02*Y178250D01*
X269450Y177500D01*
X270950Y179750D02*Y178250D01*
Y179750D02*X271700Y180500D01*
X273200D01*
X273950Y179750D01*
Y178250D01*
X273200Y177500D02*X273950Y178250D01*
X271700Y177500D02*X273200D01*
X270950Y178250D02*X271700Y177500D01*
X275750Y180500D02*Y178250D01*
X276500Y177500D01*
X278000D01*
X278750Y178250D01*
Y180500D02*Y178250D01*
X282800Y180500D02*X283550Y179750D01*
X281300Y180500D02*X282800D01*
X280550Y179750D02*X281300Y180500D01*
X280550Y179750D02*Y178250D01*
X281300Y177500D01*
X282800D01*
X283550Y178250D01*
X280550Y176000D02*X281300Y175250D01*
X282800D01*
X283550Y176000D01*
Y180500D02*Y176000D01*
X285350Y183500D02*Y177500D01*
Y179750D02*X286100Y180500D01*
X287600D01*
X288350Y179750D01*
Y177500D01*
X290150Y183500D02*Y177500D01*
Y178250D02*X290900Y177500D01*
X292400D01*
X293150Y178250D01*
Y179750D02*Y178250D01*
X292400Y180500D02*X293150Y179750D01*
X290900Y180500D02*X292400D01*
X290150Y179750D02*X290900Y180500D01*
X294950D02*Y178250D01*
X295700Y177500D01*
X297950Y180500D02*Y176000D01*
X297200Y175250D02*X297950Y176000D01*
X295700Y175250D02*X297200D01*
X294950Y176000D02*X295700Y175250D01*
Y177500D02*X297200D01*
X297950Y178250D01*
X200000Y198500D02*X203000D01*
X201500D02*Y192500D01*
G54D68*X204800Y197000D02*Y196850D01*
G54D67*Y194750D02*Y192500D01*
X207050Y198500D02*Y193250D01*
X207800Y192500D01*
X206300Y196250D02*X207800D01*
X209300Y198500D02*Y193250D01*
X210050Y192500D01*
X212300D02*X214550D01*
X211550Y193250D02*X212300Y192500D01*
X211550Y194750D02*Y193250D01*
Y194750D02*X212300Y195500D01*
X213800D01*
X214550Y194750D01*
X211550Y194000D02*X214550D01*
Y194750D02*Y194000D01*
X216350Y196250D02*X217100D01*
X216350Y194750D02*X217100D01*
X221600Y193250D02*X222350Y192500D01*
X221600Y197750D02*X222350Y198500D01*
X221600Y197750D02*Y193250D01*
X224150Y195500D02*Y193250D01*
X224900Y192500D01*
X226400D01*
X227150Y193250D01*
Y195500D02*Y193250D01*
X229700Y194750D02*Y192500D01*
Y194750D02*X230450Y195500D01*
X231200D01*
X231950Y194750D01*
Y192500D01*
X228950Y195500D02*X229700Y194750D01*
X233750Y198500D02*Y192500D01*
Y194750D02*X236000Y192500D01*
X233750Y194750D02*X235250Y196250D01*
X238550Y194750D02*Y192500D01*
Y194750D02*X239300Y195500D01*
X240050D01*
X240800Y194750D01*
Y192500D01*
X237800Y195500D02*X238550Y194750D01*
X242600D02*Y193250D01*
Y194750D02*X243350Y195500D01*
X244850D01*
X245600Y194750D01*
Y193250D01*
X244850Y192500D02*X245600Y193250D01*
X243350Y192500D02*X244850D01*
X242600Y193250D02*X243350Y192500D01*
X247400Y195500D02*Y193250D01*
X248150Y192500D01*
X248900D01*
X249650Y193250D01*
Y195500D02*Y193250D01*
X250400Y192500D01*
X251150D01*
X251900Y193250D01*
Y195500D02*Y193250D01*
X254450Y194750D02*Y192500D01*
Y194750D02*X255200Y195500D01*
X255950D01*
X256700Y194750D01*
Y192500D01*
X253700Y195500D02*X254450Y194750D01*
X258500Y198500D02*X259250Y197750D01*
Y193250D01*
X258500Y192500D02*X259250Y193250D01*
X263750Y195500D02*X266750D01*
X271250Y198500D02*Y192500D01*
Y198500D02*X274250D01*
X271250Y195800D02*X273500D01*
X278300Y195500D02*X279050Y194750D01*
X276800Y195500D02*X278300D01*
X276050Y194750D02*X276800Y195500D01*
X276050Y194750D02*Y193250D01*
X276800Y192500D01*
X279050Y195500D02*Y193250D01*
X279800Y192500D01*
X276800D02*X278300D01*
X279050Y193250D01*
X281600Y198500D02*Y192500D01*
Y193250D02*X282350Y192500D01*
X283850D01*
X284600Y193250D01*
Y194750D02*Y193250D01*
X283850Y195500D02*X284600Y194750D01*
X282350Y195500D02*X283850D01*
X281600Y194750D02*X282350Y195500D01*
X287150Y194750D02*Y192500D01*
Y194750D02*X287900Y195500D01*
X289400D01*
X286400D02*X287150Y194750D01*
G54D68*X291200Y197000D02*Y196850D01*
G54D67*Y194750D02*Y192500D01*
X293450Y195500D02*X295700D01*
X292700Y194750D02*X293450Y195500D01*
X292700Y194750D02*Y193250D01*
X293450Y192500D01*
X295700D01*
X299750Y195500D02*X300500Y194750D01*
X298250Y195500D02*X299750D01*
X297500Y194750D02*X298250Y195500D01*
X297500Y194750D02*Y193250D01*
X298250Y192500D01*
X300500Y195500D02*Y193250D01*
X301250Y192500D01*
X298250D02*X299750D01*
X300500Y193250D01*
X303800Y198500D02*Y193250D01*
X304550Y192500D01*
X303050Y196250D02*X304550D01*
G54D68*X306050Y197000D02*Y196850D01*
G54D67*Y194750D02*Y192500D01*
X307550Y194750D02*Y193250D01*
Y194750D02*X308300Y195500D01*
X309800D01*
X310550Y194750D01*
Y193250D01*
X309800Y192500D02*X310550Y193250D01*
X308300Y192500D02*X309800D01*
X307550Y193250D02*X308300Y192500D01*
X313100Y194750D02*Y192500D01*
Y194750D02*X313850Y195500D01*
X314600D01*
X315350Y194750D01*
Y192500D01*
X312350Y195500D02*X313100Y194750D01*
X320600Y198500D02*Y192500D01*
X322550Y198500D02*X323600Y197450D01*
Y193550D01*
X322550Y192500D02*X323600Y193550D01*
X319850Y192500D02*X322550D01*
X319850Y198500D02*X322550D01*
X326150Y194750D02*Y192500D01*
Y194750D02*X326900Y195500D01*
X328400D01*
X325400D02*X326150Y194750D01*
X332450Y195500D02*X333200Y194750D01*
X330950Y195500D02*X332450D01*
X330200Y194750D02*X330950Y195500D01*
X330200Y194750D02*Y193250D01*
X330950Y192500D01*
X333200Y195500D02*Y193250D01*
X333950Y192500D01*
X330950D02*X332450D01*
X333200Y193250D01*
X335750Y195500D02*Y193250D01*
X336500Y192500D01*
X337250D01*
X338000Y193250D01*
Y195500D02*Y193250D01*
X338750Y192500D01*
X339500D01*
X340250Y193250D01*
Y195500D02*Y193250D01*
G54D68*X342050Y197000D02*Y196850D01*
G54D67*Y194750D02*Y192500D01*
X344300Y194750D02*Y192500D01*
Y194750D02*X345050Y195500D01*
X345800D01*
X346550Y194750D01*
Y192500D01*
X343550Y195500D02*X344300Y194750D01*
X350600Y195500D02*X351350Y194750D01*
X349100Y195500D02*X350600D01*
X348350Y194750D02*X349100Y195500D01*
X348350Y194750D02*Y193250D01*
X349100Y192500D01*
X350600D01*
X351350Y193250D01*
X348350Y191000D02*X349100Y190250D01*
X350600D01*
X351350Y191000D01*
Y195500D02*Y191000D01*
M02*
