M48
INCH
T30C0.130
T29C0.060
T28C0.038
%
T28
X005000Y010000
X005000Y004000
X006000Y010000
X006000Y004000
X007000Y010000
X007000Y004000
X008000Y010000
X008000Y004000
X009000Y010000
X009000Y004000
X010000Y010000
X010000Y004000
X011000Y010000
X011000Y004000
X012000Y010000
X012000Y004000
X013000Y010000
X013000Y004000
X014000Y010000
X014000Y004000
X015000Y010000
X015000Y004000
X016000Y010000
X016000Y004000
T29
X021010Y007790
X021010Y005820
X022000Y006730
X022000Y002000
X023960Y007790
X023960Y005820
X025930Y006730
X025930Y002000
X026920Y007790
X026920Y005820
T30
X006000Y012000
X006000Y002000
X018000Y010500
X018000Y003500
X030000Y010500
X030000Y003500
M30
