G04 start of page 3 for group 1 idx 1 *
G04 Title: (unknown), ground *
G04 Creator: pcb 4.3.0 *
G04 CreationDate: Wed Mar 23 17:19:41 2022 UTC *
G04 For: steve *
G04 Format: Gerber/RS-274X *
G04 PCB-Dimensions (mil): 3200.00 1400.00 *
G04 PCB-Coordinate-Origin: lower left *
%MOIN*%
%FSLAX25Y25*%
%LNGBL*%
%ADD26C,0.0380*%
%ADD25C,0.1300*%
%ADD24C,0.1400*%
%ADD23C,0.1000*%
%ADD22C,0.0600*%
%ADD21C,0.0001*%
%ADD20C,0.0060*%
%ADD19C,0.0250*%
G54D19*X270700Y76700D02*X269200Y78200D01*
X239200Y77800D02*X239600Y78200D01*
X270200Y77200D02*X269200Y78200D01*
X259300Y20000D02*X85000D01*
X210000Y107500D02*Y78000D01*
X210100Y77900D01*
X60000Y82500D02*X80000Y62500D01*
X85000Y20000D02*X80000Y25000D01*
Y62500D02*Y25000D01*
X60000Y100000D02*Y82500D01*
X80000Y107500D02*X87500Y115000D01*
X80000Y100000D02*Y107500D01*
X85000Y112500D01*
X210000Y107500D02*X197500Y120000D01*
X92500D01*
X86250Y113750D01*
G54D20*X310000Y45000D02*Y47000D01*
X310500Y47500D01*
X311700D01*
X312200Y47000D02*X311700Y47500D01*
X312200Y45500D02*Y47000D01*
X310000Y45500D02*X314000D01*
Y45000D02*Y47000D01*
X313500Y47500D01*
X312700D02*X313500D01*
X312200Y47000D02*X312700Y47500D01*
X310500Y48700D02*X314000D01*
X310500D02*X310000Y49200D01*
Y50200D01*
X310500Y50700D01*
X314000D01*
Y53900D02*X313500Y54400D01*
X314000Y52400D02*Y53900D01*
X313500Y51900D02*X314000Y52400D01*
X312500Y51900D02*X313500D01*
X312500D02*X312000Y52400D01*
Y53900D01*
X311500Y54400D01*
X310500D02*X311500D01*
X310000Y53900D02*X310500Y54400D01*
X310000Y52400D02*Y53900D01*
X310500Y51900D02*X310000Y52400D01*
X314000Y55600D02*X312000Y56600D01*
X314000Y57600D01*
X310000Y56600D02*X312000D01*
X310000Y58800D02*X314000D01*
X310000D02*Y60800D01*
X314000Y62000D02*Y63000D01*
X310000Y62500D02*X314000D01*
X310000Y62000D02*Y63000D01*
X314000Y66200D02*X313500Y66700D01*
X314000Y64700D02*Y66200D01*
X313500Y64200D02*X314000Y64700D01*
X310500Y64200D02*X313500D01*
X310500D02*X310000Y64700D01*
Y66200D01*
X310500Y66700D01*
X311500D01*
X312000Y66200D02*X311500Y66700D01*
X312000Y65200D02*Y66200D01*
X310000Y67900D02*X314000D01*
X310000Y70400D02*X314000D01*
X312000Y67900D02*Y70400D01*
X314000Y71600D02*Y73600D01*
X310000Y72600D02*X314000D01*
Y78600D02*X313500Y79100D01*
X314000Y77100D02*Y78600D01*
X313500Y76600D02*X314000Y77100D01*
X312500Y76600D02*X313500D01*
X312500D02*X312000Y77100D01*
Y78600D01*
X311500Y79100D01*
X310500D02*X311500D01*
X310000Y78600D02*X310500Y79100D01*
X310000Y77100D02*Y78600D01*
X310500Y76600D02*X310000Y77100D01*
Y80300D02*X314000D01*
X310000Y82800D02*X314000D01*
X312000Y80300D02*Y82800D01*
X314000Y84000D02*Y85000D01*
X310000Y84500D02*X314000D01*
X310000Y84000D02*Y85000D01*
X312200Y86200D02*Y87700D01*
X310000Y86200D02*Y88200D01*
Y86200D02*X314000D01*
Y88200D01*
X310000Y89400D02*X314000D01*
X310000D02*Y91400D01*
Y93100D02*X314000D01*
Y94400D02*X313300Y95100D01*
X310700D02*X313300D01*
X310000Y94400D02*X310700Y95100D01*
X310000Y92600D02*Y94400D01*
X314000Y92600D02*Y94400D01*
X306500Y62500D02*X302500Y63500D01*
X306500Y64500D01*
X302500Y65700D02*Y66200D01*
X305700Y67400D02*X306500Y68200D01*
X302500D02*X306500D01*
X302500Y67400D02*Y68900D01*
Y70100D02*Y70600D01*
X303000Y71800D02*X302500Y72300D01*
X303000Y71800D02*X306000D01*
X306500Y72300D01*
Y73300D01*
X306000Y73800D01*
X303000D02*X306000D01*
X302500Y73300D02*X303000Y73800D01*
X302500Y72300D02*Y73300D01*
X303500Y71800D02*X305500Y73800D01*
X302500Y75000D02*Y75500D01*
X306000Y76700D02*X306500Y77200D01*
Y78700D01*
X306000Y79200D01*
X305000D02*X306000D01*
X302500Y76700D02*X305000Y79200D01*
X302500Y76700D02*Y79200D01*
G54D21*G36*
X47000Y43000D02*Y37000D01*
X53000D01*
Y43000D01*
X47000D01*
G37*
G54D22*X60000Y40000D03*
X70000D03*
X80000D03*
X90000D03*
X100000D03*
X110000D03*
X120000D03*
X80000Y100000D03*
X90000D03*
X100000D03*
X110000D03*
G54D21*G36*
X47000Y103000D02*Y97000D01*
X53000D01*
Y103000D01*
X47000D01*
G37*
G54D22*X60000Y100000D03*
X70000D03*
X120000D03*
X130000D03*
X140000D03*
X150000D03*
X160000D03*
X130000Y40000D03*
X140000D03*
X150000D03*
X160000D03*
G54D23*X210100Y58200D03*
X220000Y67300D03*
X210100Y77900D03*
X220000Y20000D03*
X239600Y77900D03*
Y58200D03*
X259300Y67300D03*
Y20000D03*
X269200Y77900D03*
G54D21*G36*
X264700Y62700D02*Y53700D01*
X273700D01*
Y62700D01*
X264700D01*
G37*
G54D24*X180000Y35000D03*
Y105000D03*
X300000D03*
Y35000D03*
X60000Y20000D03*
Y120000D03*
G54D25*G54D26*G54D22*M02*
